<?xml version="1.0" standalone="no"?><!DOCTYPE svg PUBLIC "-//W3C//DTD SVG 1.1//EN" "http://www.w3.org/Graphics/SVG/1.1/DTD/svg11.dtd"><svg t="1624958035855" class="icon" viewBox="0 0 1025 1024" version="1.1" xmlns="http://www.w3.org/2000/svg" p-id="1978" xmlns:xlink="http://www.w3.org/1999/xlink" width="128.125" height="128"><defs><style type="text/css"></style></defs><path d="M1008.00076 6.285714q18.857143 13.714286 15.428571 36.571429l-146.285714 877.714286q-2.857143 16.571429-18.285714 25.714286-8 4.571429-17.714286 4.571429-6.285714 0-13.714286-2.857143l-258.857143-105.714286-138.285714 168.571429q-10.285714 13.142857-28 13.142857-7.428571 0-12.571429-2.285714-10.857143-4-17.428571-13.428571t-6.571429-20.857143l0-199.428571 493.714286-605.142857-610.857143 528.571429-225.714286-92.571429q-21.142857-8-22.857143-31.428571-1.142857-22.857143 18.285714-33.714286l950.857143-548.571429q8.571429-5.142857 18.285714-5.142857 11.428571 0 20.571429 6.285714z" p-id="1979" fill="#2ABB9B"></path></svg>