<?xml version="1.0" standalone="no"?><!DOCTYPE svg PUBLIC "-//W3C//DTD SVG 1.1//EN" "http://www.w3.org/Graphics/SVG/1.1/DTD/svg11.dtd"><svg t="1581668739438" class="icon" viewBox="0 0 1024 1024" version="1.1" xmlns="http://www.w3.org/2000/svg" p-id="2914" xmlns:xlink="http://www.w3.org/1999/xlink" width="200" height="200"><defs><style type="text/css"></style></defs><path d="M832 256l-192 0 0-64-192-192-448 0 0 768 384 0 0 256 640 0 0-576-192-192zM832 346.496l101.504 101.504-101.504 0 0-101.504zM448 90.496l101.504 101.504-101.504 0 0-101.504zM64 64l320 0 0 192 192 0 0 448-512 0 0-640zM960 960l-512 0 0-192 192 0 0-448 128 0 0 192 192 0 0 448z" p-id="2915"></path></svg>