<?xml version="1.0" standalone="no"?><!DOCTYPE svg PUBLIC "-//W3C//DTD SVG 1.1//EN" "http://www.w3.org/Graphics/SVG/1.1/DTD/svg11.dtd"><svg t="1583034697950" class="icon" viewBox="0 0 1280 1024" version="1.1" xmlns="http://www.w3.org/2000/svg" p-id="9834" xmlns:xlink="http://www.w3.org/1999/xlink" width="250" height="200"><defs><style type="text/css"></style></defs><path d="M476.9536 696.6272l164.8128-60.8512L1046.7072 180.4032c18.4576-21.4528 16-53.7856-5.4528-72.192l-58.2144-50.0736c-9.6768-8.2944-21.5296-12.3648-33.3824-12.3648-14.4128 0-28.6976 6.0416-38.8608 17.8176L505.856 518.9376 476.9536 696.6272zM554.0352 541.8496 949.6064 96.9728c0 0 0.0256 0 0.0512 0l58.8032 49.408L611.9936 592.1792l-70.4 26.0096L554.0352 541.8496zM1011.2 371.2l0 512c0 28.2368-22.9632 51.2-51.2 51.2l-614.4 0c-28.2368 0-51.2-22.9632-51.2-51.2l0-614.4c0-28.2368 22.9632-51.2 51.2-51.2l281.6 0 0-51.2-281.6 0c-56.5504 0-102.4 45.8496-102.4 102.4l0 614.4c0 56.5504 45.8496 102.4 102.4 102.4l614.4 0c56.5504 0 102.4-45.8496 102.4-102.4l0-512L1011.2 371.2z" p-id="9835"></path></svg>