<?xml version="1.0" standalone="no"?><!DOCTYPE svg PUBLIC "-//W3C//DTD SVG 1.1//EN" "http://www.w3.org/Graphics/SVG/1.1/DTD/svg11.dtd"><svg t="1583035123014" class="icon" viewBox="0 0 1024 1024" version="1.1" xmlns="http://www.w3.org/2000/svg" p-id="22278" xmlns:xlink="http://www.w3.org/1999/xlink" width="200" height="200"><defs><style type="text/css"></style></defs><path d="M510.976 960c-247.296 0-448-201.216-448-448 0-246.784 200.704-448 448-448 246.784 0 448 200.704 448 448C958.976 758.784 757.76 960 510.976 960zM510.976 106.496c-223.744 0-405.504 181.76-405.504 405.504s181.76 405.504 405.504 405.504S916.48 735.744 916.48 512 734.208 106.496 510.976 106.496z" p-id="22279"></path><path d="M802.8 417.16l-175.5 175.5-128.1 47.7 48.2-127.6 175.5-175.5c17.7-17.7 46.3-17.7 64 0l16 16C820.4 370.86 820.4 399.46 802.8 417.16zM537.9 601.56l76.9-28.6 4.3-4.3-48-48-4.3 4.3L537.9 601.56zM587.2 504.66l48 48 119.6-119.6-48-48L587.2 504.66zM786.9 368.86l-16-16c-8.8-8.8-23.2-8.8-32 0l-16.2 16.2 48 48 16.2-16.2C795.7 392.06 795.7 377.66 786.9 368.86zM375.1 651.76l0-22.6 111.1 0-8.5 22.6L375.1 651.76zM503.3 583.96l-128.2 0L375.1 561.36l136.8 0L503.3 583.96zM375.1 425.66l113 0 0 22.6-113 0L375.1 425.66zM488.1 516.16l-113 0 0-22.6 113 0L488.1 516.16zM623.8 629.16l0 22.6-109.9 0 60.7-22.6L623.8 629.16zM567.2 297.46l0 83c0 12.5 10.1 22.6 22.6 22.6l35.1 0-22.6 22.6-12.4 0c-25 0-45.2-20.2-45.2-45.2l0-101.7-203.5 0c-12.5 0-22.6 10.1-22.6 22.6l0 429.6c0 12.5 10.1 22.6 22.6 22.6l316.5 0c12.5 0 22.6-10.1 22.6-22.6l0-159.4 22.6-22.6 0 182c0 25-20.2 45.2-45.2 45.2l-316.5 0c-25 0-45.2-20.2-45.2-45.2L296 301.36c0-25 20.2-45.2 45.2-45.2 0 0 86.8 0 169.6 0 2 0 4 0 6 0 4 0 7.8 0 11.7 0l31.6 0 102 109.8-15.8 15.8L567.2 297.46z" p-id="22280"></path></svg>