<?xml version="1.0" standalone="no"?><!DOCTYPE svg PUBLIC "-//W3C//DTD SVG 1.1//EN" "http://www.w3.org/Graphics/SVG/1.1/DTD/svg11.dtd"><svg t="1624347671073" class="icon" viewBox="0 0 1024 1024" version="1.1" xmlns="http://www.w3.org/2000/svg" p-id="1211" xmlns:xlink="http://www.w3.org/1999/xlink" width="200" height="200"><defs><style type="text/css"></style></defs><path d="M283.904 869.717333l208.32-108.970666a42.666667 42.666667 0 0 1 39.552 0l208.32 108.970666c2.474667 1.28 4.714667 2.304 6.72 3.072a64.106667 64.106667 0 0 0-0.853333-6.954666l-39.765334-230.784a42.666667 42.666667 0 0 1 12.330667-37.866667l168.533333-163.434667c1.834667-1.792 3.392-3.456 4.650667-4.970666a65.792 65.792 0 0 0-6.890667-1.344l-232.917333-33.685334a42.666667 42.666667 0 0 1-32.128-23.253333L515.626667 160.512a63.36 63.36 0 0 0-3.626667-6.4 63.552 63.552 0 0 0-3.626667 6.4l-104.149333 209.984a42.666667 42.666667 0 0 1-32.128 23.253333L139.2 427.434667c-2.624 0.362667-4.906667 0.832-6.912 1.344 1.28 1.514667 2.816 3.2 4.650667 4.970666l168.533333 163.413334a42.666667 42.666667 0 0 1 12.352 37.888l-39.786667 230.784c-0.448 2.602667-0.725333 4.906667-0.853333 6.954666 2.005333-0.768 4.266667-1.792 6.72-3.072zM512 846.698667l-188.544 98.624c-77.44 40.490667-144.341333-7.978667-129.514667-93.973334l35.946667-208.597333-152.362667-147.754667c-62.848-60.949333-37.12-139.52 49.450667-152.021333l210.773333-30.464 94.186667-189.909333c38.784-78.165333 121.386667-78.08 160.128 0l94.208 189.909333 210.752 30.464c86.656 12.522667 112.234667 91.136 49.450667 152.021333l-152.362667 147.754667 35.946667 208.597333c14.848 86.08-52.16 134.421333-129.493334 93.973334L512 846.72z" p-id="1212" fill="#707070"></path></svg>