<?xml version="1.0" standalone="no"?><!DOCTYPE svg PUBLIC "-//W3C//DTD SVG 1.1//EN" "http://www.w3.org/Graphics/SVG/1.1/DTD/svg11.dtd"><svg t="1574512971388" class="icon" viewBox="0 0 1024 1024" version="1.1" xmlns="http://www.w3.org/2000/svg" p-id="65137" xmlns:xlink="http://www.w3.org/1999/xlink" width="200" height="200"><defs><style type="text/css"></style></defs><path d="M732.2624 2.594133h-17.032533l204.1856 204.1856v-17.032533z" fill="#FF6668" p-id="65138"></path><path d="M732.2624 19.592533l-17.032533-16.9984H170.8032A84.241067 84.241067 0 0 0 85.674667 87.6544v850.7392a84.241067 84.241067 0 0 0 85.060266 85.060267h663.552a84.241067 84.241067 0 0 0 85.0944-85.060267V206.779733l-17.032533-17.032533L732.2624 19.592533z" fill="#FF6668" p-id="65139"></path><path d="M352.836267 286.72c51.029333 0 93.559467 42.564267 93.559466 93.5936 0 51.063467-42.530133 93.5936-93.559466 93.5936-51.063467 0-93.5936-42.530133-93.5936-93.5936C257.536 329.284267 300.066133 286.72 352.836267 286.72zM749.2608 746.154667c-1.706667 3.3792-5.12 5.085867-8.4992 5.085866H277.947733c-3.413333 0-8.4992-1.706667-10.205866-5.12a14.5408 14.5408 0 0 1 0-11.912533l100.386133-146.3296c1.706667-3.413333 5.12-5.12 10.24-5.12 3.413333 0 6.792533 1.706667 8.4992 5.12l47.616 76.5952 158.242133-258.628267c1.706667-3.413333 6.826667-5.12 10.24-5.12 3.3792 0 8.4992 3.413333 10.171734 6.826667l136.123733 328.362667c1.706667 3.413333 1.706667 6.826667 0 10.24z" fill="#FFFFFF" p-id="65140"></path><path d="M733.969067 0.887467h-3.413334v136.123733c0 16.9984 8.533333 54.442667 59.562667 54.442667h131.003733L733.969067 0.887467z" fill="#FFB3B4" p-id="65141"></path></svg>