<?xml version="1.0" standalone="no"?><!DOCTYPE svg PUBLIC "-//W3C//DTD SVG 1.1//EN" "http://www.w3.org/Graphics/SVG/1.1/DTD/svg11.dtd"><svg t="1581002152930" class="icon" viewBox="0 0 1024 1024" version="1.1" xmlns="http://www.w3.org/2000/svg" p-id="1171" xmlns:xlink="http://www.w3.org/1999/xlink" width="200" height="200"><defs><style type="text/css"></style></defs><path d="M112.152381 2.438095C92.647619 2.438095 73.142857 21.942857 73.142857 41.447619v941.104762c0 19.504762 19.504762 39.009524 39.009524 39.009524h802.133333c19.504762 0 39.009524-19.504762 39.009524-39.009524V224.304762L728.990476 2.438095H112.152381z" fill="#D63621" p-id="1172"></path><path d="M728.990476 2.438095v182.857143c0 19.504762 19.504762 39.009524 39.009524 39.009524H950.857143L728.990476 2.438095z" fill="#FC4949" p-id="1173"></path><path d="M582.704762 499.809524h90.209524v92.647619h-129.219048c-80.457143 195.047619-212.114286 197.485714-248.685714 195.047619h-9.752381v-92.647619c53.638095 0 109.714286-7.314286 170.666667-165.790476 87.771429-256 265.752381-226.742857 265.75238-226.742857v92.647619c-102.4-2.438095-138.971429 104.838095-138.971428 104.838095z" fill="#FFFFFF" p-id="1174"></path></svg>