<?xml version="1.0" standalone="no"?><!DOCTYPE svg PUBLIC "-//W3C//DTD SVG 1.1//EN" "http://www.w3.org/Graphics/SVG/1.1/DTD/svg11.dtd"><svg t="1574515831626" class="icon" viewBox="0 0 1024 1024" version="1.1" xmlns="http://www.w3.org/2000/svg" p-id="7718" xmlns:xlink="http://www.w3.org/1999/xlink" width="200" height="200"><defs><style type="text/css"></style></defs><path d="M128 64c-35.2 0-64 28.8-64 64v800c0 35.2 28.8 64 64 64h736c35.2 0 64-28.8 64-64V256l-192-192H128z" fill="#E9F7FA" p-id="7719"></path><path d="M736 192c0 35.2 28.8 64 64 64h128l-192-192v128z" fill="#B7D5EE" p-id="7720"></path><path d="M668.8 352c-96 3.2-195.2 19.2-294.4 51.2-6.4 3.2-6.4 6.4-6.4 6.4v281.6c-16-3.2-38.4-3.2-60.8 6.4-38.4 16-60.8 54.4-48 80 12.8 25.6 54.4 32 92.8 16 35.2-16 51.2-38.4 51.2-70.4v-240c76.8-22.4 153.6-35.2 230.4-38.4v224c-19.2-3.2-38.4-3.2-60.8 6.4-38.4 16-60.8 54.4-48 80 12.8 25.6 54.4 32 92.8 16 54.4-22.4 51.2-70.4 51.2-70.4v-259.2-80c3.2-6.4 0-9.6 0-9.6z" fill="#4990E2" p-id="7721"></path></svg>