<?xml version="1.0" standalone="no"?><!DOCTYPE svg PUBLIC "-//W3C//DTD SVG 1.1//EN" "http://www.w3.org/Graphics/SVG/1.1/DTD/svg11.dtd"><svg t="1574517031922" class="icon" viewBox="0 0 1024 1024" version="1.1" xmlns="http://www.w3.org/2000/svg" p-id="80114" xmlns:xlink="http://www.w3.org/1999/xlink" width="200" height="200"><defs><style type="text/css"></style></defs><path d="M872.144 330.148L687.061 131.544H220.132v296.22h40.563V172.536h385.809v197.76h185.077v455.096H220.138v40.145h652.431V330.151h-0.426v-0.003z" p-id="80115"></path><path d="M139 472.131v308.042h556.514V472.131H139z m203.595 227.91H225.684v-18.157l75.755-94.718c5.371-6.719 10.49-12.573 15.326-17.544h-82.506v-17.454H340.17v17.454l-83.015 102.584-8.982 10.387h94.421v17.448h0.001z m68.759 0h-19.563V552.168h19.563v147.873z m160.163-73.176c-8.009 8.711-22.464 13.069-43.374 13.069H490.21v60.112h-19.563V552.174h55.773c9.813 0 17.318 0.471 22.489 1.412 7.267 1.212 13.354 3.515 18.261 6.912 4.906 3.398 8.858 8.156 11.851 14.275 2.992 6.112 4.487 12.844 4.487 20.169 0.014 12.574-3.996 23.212-11.991 31.923z" p-id="80116"></path><path d="M546.293 570.931c-3.289-0.877-9.375-1.315-18.254-1.315h-37.822v52.859h38.229c12.638 0 21.619-2.354 26.926-7.061 5.313-4.707 7.97-11.329 7.97-19.872 0-6.184-1.554-11.483-4.682-15.894-3.135-4.397-7.255-7.305-12.367-8.717z" p-id="80117"></path></svg>