<?xml version="1.0" standalone="no"?><!DOCTYPE svg PUBLIC "-//W3C//DTD SVG 1.1//EN" "http://www.w3.org/Graphics/SVG/1.1/DTD/svg11.dtd"><svg t="1574515747384" class="icon" viewBox="0 0 1024 1024" version="1.1" xmlns="http://www.w3.org/2000/svg" p-id="6880" xmlns:xlink="http://www.w3.org/1999/xlink" width="200" height="200"><defs><style type="text/css"></style></defs><path d="M748 183.5V0H96v1024h836V183.5z" fill="#E657FF" p-id="6881"></path><path d="M932 184H748V0" fill="#F797FF" p-id="6882"></path><path d="M635.3 459.6l52.3-30.3c9.2-5.5 17.4-0.9 17.4 8.3v151.3c0 11-7.3 14.7-17.4 8.3l-52.3-30.3c-9.2-5.5-17.4-11.9-17.4-21.1v-66.9c0-8.3 8.3-13.8 17.4-19.3z m-82.5-56.8H356.7c-20.2 0-36.7 16.5-36.7 36.7v157.7c0 20.2 16.5 36.7 36.7 36.7h196.2c20.2 0 36.7-16.5 36.7-36.7V439.5c-0.1-20.2-16.6-36.7-36.8-36.7z m-118.2 88.9c-2.8 13.8-13.8 23.8-25.7 26.6-23.8 4.6-44-16.5-39.4-39.4 2.8-13.8 13.8-23.8 25.7-25.7 23.8-6.4 44 13.8 39.4 38.5z" fill="#FFFFFF" p-id="6883"></path></svg>