<?xml version="1.0" standalone="no"?><!DOCTYPE svg PUBLIC "-//W3C//DTD SVG 1.1//EN" "http://www.w3.org/Graphics/SVG/1.1/DTD/svg11.dtd"><svg t="1574516019140" class="icon" viewBox="0 0 1024 1024" version="1.1" xmlns="http://www.w3.org/2000/svg" p-id="13978" xmlns:xlink="http://www.w3.org/1999/xlink" width="200" height="200"><defs><style type="text/css"></style></defs><path d="M128.256 81.493333v849.024c0 31.829333 21.226667 53.056 53.056 53.056h689.813333c31.850667 0 53.077333-21.226667 53.077334-53.056V293.76L658.88 28.437333H181.333333c-31.829333 0-53.056 21.226667-53.056 53.077334z" fill="#B9C9D6" p-id="13979"></path><path d="M924.202667 293.76H658.88V28.437333z" fill="#EBECED" p-id="13980"></path><path d="M441.322667 426.410667c15.914667-21.226667 47.765333-31.829333 84.906666-31.829334a130.346667 130.346667 0 0 1 79.573334 26.538667c15.936 15.914667 26.538667 42.453333 26.538666 68.970667 0 21.226667-5.290667 37.141333-15.914666 53.056a123.968 123.968 0 0 1-37.141334 37.162666c-15.914667 10.602667-26.538667 21.226667-31.829333 26.517334-5.333333 10.624-10.624 21.226667-10.624 31.850666v15.914667h-42.453333v-21.226667c0-15.914667 5.312-31.829333 10.624-42.453333 5.290667-10.602667 21.226667-26.538667 37.12-37.141333 15.936-10.624 26.56-15.914667 31.850666-26.538667 5.312-10.602667 10.624-21.226667 10.624-37.12 0-15.936-5.312-31.850667-15.914666-42.453333-10.624-5.333333-26.538667-10.624-47.765334-10.624-21.226667 0-31.829333 5.312-47.765333 15.914666-15.914667 10.602667-15.914667 21.226667-15.914667 42.453334h-47.744c0-26.538667 10.602667-53.056 31.829334-68.992z m53.056 339.626666c-5.290667-5.333333-10.602667-15.936-10.602667-26.538666 0-10.624 5.312-21.226667 10.602667-26.538667 5.312-5.312 15.936-10.624 26.538666-10.624s21.226667 5.333333 26.538667 10.624c5.290667 5.312 10.602667 15.914667 10.602667 26.538667 0 10.602667-5.312 21.226667-10.602667 26.517333-10.624 5.312-21.226667 10.624-31.850667 10.624-10.602667 0-15.914667-5.312-21.226666-10.624z" fill="#FFFFFF" p-id="13981"></path></svg>