<?xml version="1.0" standalone="no"?><!DOCTYPE svg PUBLIC "-//W3C//DTD SVG 1.1//EN" "http://www.w3.org/Graphics/SVG/1.1/DTD/svg11.dtd"><svg t="1647497666816" class="icon" viewBox="0 0 1024 1024" version="1.1" xmlns="http://www.w3.org/2000/svg" p-id="11104" xmlns:xlink="http://www.w3.org/1999/xlink" width="200" height="200"><defs><style type="text/css"></style></defs><path d="M903.542857 256.685714L657.6 10.742857c-6.857143-6.857143-16.114286-10.742857-25.828571-10.742857H146.285714c-20.228571 0-36.571429 16.342857-36.571428 36.571429v950.857142c0 20.228571 16.342857 36.571429 36.571428 36.571429h731.428572c20.228571 0 36.571429-16.342857 36.571428-36.571429V282.628571c0-9.714286-3.885714-19.085714-10.742857-25.942857zM829.942857 299.428571H614.857143V84.342857L829.942857 299.428571z m2.057143 642.285715H192V82.285714h345.142857v246.857143a48 48 0 0 0 48 48h246.857143v564.571429zM417.142857 476.8c-2.171429-5.028571-7.085714-8.228571-12.571428-8.228571h-40c-7.542857 0-13.714286 6.171429-13.714286 13.714285v310.857143c0 7.542857 6.171429 13.714286 13.714286 13.714286h30.971428c7.542857 0 13.714286-6.171429 13.714286-13.714286V592.114286l76.342857 171.657143a13.714286 13.714286 0 0 0 12.571429 8.114285H525.714286c5.371429 0 10.285714-3.2 12.571428-8.114285l76.342857-172.114286V793.142857c0 7.542857 6.171429 13.714286 13.714286 13.714286H659.428571c7.542857 0 13.714286-6.171429 13.714286-13.714286V482.285714c0-7.542857-6.171429-13.714286-13.714286-13.714285h-39.657142c-5.485714 0-10.4 3.2-12.571429 8.228571l-94.971429 218.285714-95.085714-218.285714z" p-id="11105" fill="#1296db"></path></svg>