<?xml version="1.0" standalone="no"?><!DOCTYPE svg PUBLIC "-//W3C//DTD SVG 1.1//EN" "http://www.w3.org/Graphics/SVG/1.1/DTD/svg11.dtd"><svg t="1574512513589" class="icon" viewBox="0 0 1024 1024" version="1.1" xmlns="http://www.w3.org/2000/svg" p-id="63657" xmlns:xlink="http://www.w3.org/1999/xlink" width="200" height="200"><defs><style type="text/css"></style></defs><path d="M 745 186 V 3 H 93 v 1021 h 836 V 186 Z" fill="#ff8278" p-id="63658"></path><path d="M 929 186 H 745 V 2.7" fill="#ffb7b3" p-id="63659"></path><path d="M 390.5 341.2 h 64.2 V 682 h -64.2 V 341.2 Z m 29.3 146.7 h 109 c 7.7 0 14.4 -1.8 20.3 -5.3 s 10.4 -8.5 13.7 -14.9 s 4.9 -13.7 4.9 -22 c 0 -8.4 -1.6 -15.9 -4.8 -22.4 s -7.7 -11.5 -13.6 -15 s -12.7 -5.3 -20.5 -5.3 h -109 v -61.9 h 107.3 c 21.2 0 40 4.3 56.1 13 s 28.7 20.9 37.6 36.7 c 8.9 15.8 13.4 34.1 13.4 54.8 c 0 20.8 -4.5 39 -13.4 54.7 s -21.4 27.9 -37.6 36.4 c -16.2 8.6 -34.9 12.9 -56.1 12.9 H 419.8 v -61.7 Z" fill="#ffffff" p-id="63660"></path></svg>