<?xml version="1.0" standalone="no"?><!DOCTYPE svg PUBLIC "-//W3C//DTD SVG 1.1//EN" "http://www.w3.org/Graphics/SVG/1.1/DTD/svg11.dtd"><svg t="1574516730196" class="icon" viewBox="0 0 1024 1024" version="1.1" xmlns="http://www.w3.org/2000/svg" p-id="73869" xmlns:xlink="http://www.w3.org/1999/xlink" width="200" height="200"><defs><style type="text/css"></style></defs><path d="M748 183.5V0H96v1024h836V183.5z" fill="#4D9BF7" p-id="73870"></path><path d="M932 184H748V0" fill="#8DD1FF" p-id="73871"></path><path d="M299.5 344.9H359v315.7h-59.5V344.9z m27.2 135.9h100.9c7.1 0 13.4-1.6 18.8-4.9 5.4-3.3 9.7-7.8 12.7-13.8 3-5.9 4.6-12.7 4.6-20.4 0-7.8-1.5-14.7-4.5-20.7s-7.2-10.6-12.6-13.9c-5.4-3.3-11.8-4.9-19-4.9H326.7v-57.3h99.4c19.7 0 37 4 52 12s26.6 19.4 34.8 34c8.3 14.6 12.4 31.6 12.4 50.8 0 19.3-4.1 36.1-12.4 50.7-8.3 14.5-19.9 25.8-34.8 33.8-15 8-32.3 11.9-52 11.9h-99.4v-57.3zM627.1 663.8s-6.4-1.2-19.1-3.6c-12.7-2.4-24.7-5.9-35.8-10.5-11.1-4.6-21-10.2-29.5-16.7l36.7-45.8c10.9 6.9 22.2 12.3 34.1 16.1 11.9 3.8 23.2 5.6 33.9 5.6 13.9 0 24.7-1.6 32.3-4.7 7.7-3.1 11.5-7.4 11.5-12.9 0-5.1-1.7-8.9-5-11.5-3.3-2.6-7.6-4.5-12.8-5.5-5.2-1.1-12.5-2.1-21.9-2.9-2.6-0.3-5.2-0.6-7.9-0.9l-8.1-0.9c-0.6-0.1-1.2-0.3-1.8-0.3-0.7-0.1-1.3-0.1-1.8-0.1-16.8-2.2-30.3-4.8-40.4-8-10.1-3.2-18.7-9.3-25.7-18.3s-10.5-22.2-10.5-39.4c0-15.1 3.6-27.9 10.9-38.6 7.2-10.7 17.7-18.8 31.5-24.4 13.7-5.6 30.4-8.4 49.9-8.4 11.4 0 22.8 1.2 34.2 3.5 11.4 2.3 22.3 5.6 32.7 10 10.4 4.3 20 9.6 28.9 15.6L708 504.4c-9.8-5.5-20.1-9.8-30.8-12.8s-21-4.6-30.8-4.6c-12 0-21.3 1.4-28 4.1-6.7 2.8-10 6.6-10 11.5 0 3.8 1.8 6.7 5.3 8.8 3.5 2.1 8 3.6 13.2 4.6 5.3 0.9 13 2 23.1 3.1 1.3 0.1 2.6 0.3 3.9 0.4 1.3 0.1 2.6 0.3 3.9 0.4 0.6 0.1 1.2 0.2 2 0.2 0.7 0 1.4 0.1 2 0.2 17.5 2 31.8 4.6 42.8 7.8 11 3.2 20.4 9.6 28.1 19.1 7.7 9.6 11.6 23.6 11.6 42.1 0 15.6-3.8 29-11.3 40.2-7.5 11.1-18.5 19.6-33 25.5-14.5 5.9-31.9 8.8-52.3 8.8h-20.6z" fill="#FFFFFF" p-id="73872"></path></svg>