<?xml version="1.0" standalone="no"?><!DOCTYPE svg PUBLIC "-//W3C//DTD SVG 1.1//EN" "http://www.w3.org/Graphics/SVG/1.1/DTD/svg11.dtd"><svg t="1574516673987" class="icon" viewBox="0 0 1024 1024" version="1.1" xmlns="http://www.w3.org/2000/svg" p-id="72952" xmlns:xlink="http://www.w3.org/1999/xlink" width="200" height="200"><defs><style type="text/css"></style></defs><path d="M912.822857 263.314286H754.834286c-20.48 0-40.96-8.777143-55.588572-23.405715s-23.405714-36.571429-23.405714-57.051428V17.554286L912.822857 263.314286z" fill="#9AA9B6" p-id="72953"></path><path d="M509.074286 672.914286L672.914286 702.171429V541.257143H509.074286v131.657143z m0-292.571429v131.657143H672.914286V351.085714l-163.84 29.257143zM336.457143 512h137.508571v-127.268571L336.457143 409.6v102.4z m0 133.12l137.508571 23.405714V541.257143H336.457143v103.862857z" fill="#FFFFFF" p-id="72954"></path><path d="M754.834286 263.314286c-20.48 0-40.96-8.777143-55.588572-23.405715s-23.405714-36.571429-23.405714-57.051428V17.554286H203.337143c-21.942857 0-42.422857 8.777143-57.051429 23.405714-14.628571 16.091429-23.405714 36.571429-23.405714 58.514286v819.2c0 45.348571 35.108571 80.457143 78.994286 80.457143H833.828571c20.48 0 40.96-8.777143 55.588572-23.405715s23.405714-35.108571 23.405714-57.051428V263.314286H754.834286zM473.965714 668.525714L336.457143 645.12V541.257143h137.508571v127.268571z m0-156.525714H336.457143v-102.4l137.508571-24.868571V512zM672.914286 702.171429l-163.84-29.257143v-131.657143H672.914286v160.914286z m0-190.171429H509.074286v-131.657143L672.914286 351.085714v160.914286z" fill="#C2CDD3" p-id="72955"></path></svg>