<?xml version="1.0" standalone="no"?><!DOCTYPE svg PUBLIC "-//W3C//DTD SVG 1.1//EN" "http://www.w3.org/Graphics/SVG/1.1/DTD/svg11.dtd"><svg t="1574512193849" class="icon" viewBox="0 0 1024 1024" version="1.1" xmlns="http://www.w3.org/2000/svg" p-id="62178" xmlns:xlink="http://www.w3.org/1999/xlink" width="200" height="200"><defs><style type="text/css"></style></defs><path d="M841.6 238.4C832 228.8 820 224 808 224H432L326.4 118.4c-4-4-9.6-8-15.2-10.4-6.4-2.4-12-4-18.4-4H80c-12 0-24.8 4.8-33.6 14.4S32 140 32 152v712c0 12 4.8 24.8 14.4 33.6S68 912 80 912h728c12 0 24.8-4.8 33.6-14.4C851.2 888 856 876 856 864V272c0-12-4.8-24.8-14.4-33.6z" fill="#FFD766" p-id="62179"></path><path d="M858.4 877.6c-3.2 9.6-8.8 18.4-17.6 24.8-8.8 6.4-18.4 9.6-28.8 9.6H88.8c-14.4 0-28.8-6.4-38.4-19.2s-12-28.8-7.2-42.4l139.2-464c3.2-9.6 8.8-18.4 17.6-24.8 8.8-6.4 18.4-9.6 28.8-9.6h724c14.4 0 28.8 6.4 38.4 19.2 9.6 12.8 12 28.8 7.2 42.4l-140 464z" fill="#FFAC33" p-id="62180"></path></svg>