<?xml version="1.0" standalone="no"?><!DOCTYPE svg PUBLIC "-//W3C//DTD SVG 1.1//EN" "http://www.w3.org/Graphics/SVG/1.1/DTD/svg11.dtd"><svg t="1583830962374" class="icon" viewBox="0 0 1152 1024" version="1.1" xmlns="http://www.w3.org/2000/svg" p-id="6668" xmlns:xlink="http://www.w3.org/1999/xlink" width="225" height="200"><defs><style type="text/css"></style></defs><path d="M1055.886 448H960v-96c0-53.02-42.98-96-96-96H544l-128-128H96C42.98 128 0 170.98 0 224v576c0 53.02 42.98 96 96 96h800a96.002 96.002 0 0 0 81.408-45.12l159.884-256c39.896-63.834-6.076-146.88-81.406-146.88zM108 224h268.236l128 128H852a12 12 0 0 1 12 12v84H304a96 96 0 0 0-82.196 46.404L96 702.898V235.986A11.986 11.986 0 0 1 108 224z m788 576H144l154.468-256H1056l-160 256z" fill="#707070" p-id="6669"></path></svg>