<?xml version="1.0" standalone="no"?><!DOCTYPE svg PUBLIC "-//W3C//DTD SVG 1.1//EN" "http://www.w3.org/Graphics/SVG/1.1/DTD/svg11.dtd"><svg t="1624949594944" class="icon" viewBox="0 0 1024 1024" version="1.1" xmlns="http://www.w3.org/2000/svg" p-id="1460" xmlns:xlink="http://www.w3.org/1999/xlink" width="200" height="200"><defs><style type="text/css"></style></defs><path d="M170.65984 128l682.65984 0q53.00224 0 90.50112 37.49888t37.49888 90.50112l0 512q0 53.00224-37.49888 90.50112t-90.50112 37.49888l-682.65984 0q-53.00224 0-90.50112-37.49888t-37.49888-90.50112l0-512q0-53.00224 37.49888-90.50112t90.50112-37.49888zM896 768l0-466.00192-357.33504 286.0032q-11.32544 9.33888-26.66496 9.33888t-26.66496-9.33888l-357.33504-286.0032 0 466.00192q0 17.67424 12.4928 30.16704t30.16704 12.4928l682.65984 0q17.67424 0 30.16704-12.4928t12.4928-30.16704zM853.34016 213.34016l-682.65984 0q-6.32832 0-14.00832 2.33472l355.328 284.32384 355.328-284.32384q-7.65952-2.33472-14.00832-2.33472z" p-id="1461"></path></svg>