<?xml version="1.0" standalone="no"?><!DOCTYPE svg PUBLIC "-//W3C//DTD SVG 1.1//EN" "http://www.w3.org/Graphics/SVG/1.1/DTD/svg11.dtd"><svg t="1583038370538" class="icon" viewBox="0 0 1024 1024" version="1.1" xmlns="http://www.w3.org/2000/svg" p-id="7658" xmlns:xlink="http://www.w3.org/1999/xlink" width="200" height="200"><defs><style type="text/css"></style></defs><path d="M853.333333 85.333333H170.666667C123.52 85.333333 85.76 123.52 85.76 170.666667L85.333333 938.666667l170.666667-170.666667h597.333333c47.146667 0 85.333333-38.186667 85.333334-85.333333V170.666667c0-47.146667-38.186667-85.333333-85.333334-85.333334zM341.333333 597.333333h-85.333333v-85.333333h85.333333v85.333333z m0-128h-85.333333v-85.333333h85.333333v85.333333z m0-128h-85.333333v-85.333333h85.333333v85.333333z m298.666667 256H426.666667v-85.333333h213.333333v85.333333z m128-128H426.666667v-85.333333h341.333333v85.333333z m0-128H426.666667v-85.333333h341.333333v85.333333z" p-id="7659"></path></svg>