<?xml version="1.0" standalone="no"?><!DOCTYPE svg PUBLIC "-//W3C//DTD SVG 1.1//EN" "http://www.w3.org/Graphics/SVG/1.1/DTD/svg11.dtd"><svg t="1581668678348" class="icon" viewBox="0 0 1024 1024" version="1.1" xmlns="http://www.w3.org/2000/svg" p-id="2065" xmlns:xlink="http://www.w3.org/1999/xlink" width="200" height="200"><defs><style type="text/css"></style></defs><path d="M938.666667 512a42.666667 42.666667 0 0 0-42.666667 42.666667v298.666666c0 23.573333-19.093333 42.666667-42.666667 42.666667H170.666667c-23.573333 0-42.666667-19.093333-42.666667-42.666667V170.666667c0-23.573333 19.093333-42.666667 42.666667-42.666667h298.666666a42.666667 42.666667 0 0 0 0-85.333333H170.666667C99.978667 42.666667 42.666667 99.978667 42.666667 170.666667v682.666666c0 70.688 57.312 128 128 128h682.666666c70.688 0 128-57.312 128-128V554.666667a42.666667 42.666667 0 0 0-42.666666-42.666667z m42.666666-426.666667v256a42.666667 42.666667 0 0 1-85.333333 0V188.330667l-349.557333 349.546666a42.666667 42.666667 0 0 1-60.32-60.330666L835.658667 128H682.666667a42.666667 42.666667 0 0 1 0-85.333333h256a42.666667 42.666667 0 0 1 42.666666 42.666666z" p-id="2066"></path></svg>