<?xml version="1.0" standalone="no"?><!DOCTYPE svg PUBLIC "-//W3C//DTD SVG 1.1//EN" "http://www.w3.org/Graphics/SVG/1.1/DTD/svg11.dtd"><svg t="1623893249316" class="icon" viewBox="0 0 1024 1024" version="1.1" xmlns="http://www.w3.org/2000/svg" p-id="27526" xmlns:xlink="http://www.w3.org/1999/xlink" width="200" height="200"><defs><style type="text/css"></style></defs><path d="M945.782154 354.461538H669.538462V78.493538A35.761231 35.761231 0 0 0 630.705231 39.384615h-236.307693A36.588308 36.588308 0 0 0 354.461538 78.493538V354.461538H79.320615A36.588308 36.588308 0 0 0 39.384615 393.570462v236.307692A37.021538 37.021538 0 0 0 79.320615 669.538462H354.461538v275.416615A37.021538 37.021538 0 0 0 394.397538 984.615385h236.307693A36.155077 36.155077 0 0 0 669.538462 944.955077V669.538462h276.243692A36.155077 36.155077 0 0 0 984.615385 629.878154v-236.307692A35.761231 35.761231 0 0 0 945.782154 354.461538zM905.846154 590.769231h-315.076923v315.076923h-157.538462v-315.076923H118.153846v-157.538462h315.076923V118.153846h157.538462v315.076923h315.076923v157.538462z" fill="#333333" p-id="27527"></path></svg>