<?xml version="1.0" standalone="no"?><!DOCTYPE svg PUBLIC "-//W3C//DTD SVG 1.1//EN" "http://www.w3.org/Graphics/SVG/1.1/DTD/svg11.dtd"><svg t="1583034929269" class="icon" viewBox="0 0 1024 1024" version="1.1" xmlns="http://www.w3.org/2000/svg" p-id="16203" xmlns:xlink="http://www.w3.org/1999/xlink" width="200" height="200"><defs><style type="text/css"></style></defs><path d="M512 768c-178.6 0-312.9-80.6-397.9-238.7-5.9-11-5.8-24.3 0.3-35.2C202.9 336.4 336.9 256 512 256s309.1 80.4 397.6 238.1c6.1 10.9 6.2 24.2 0.3 35.2C824.9 687.4 690.6 768 512 768z m0-73.1c144.8 0 251.3-60 323.5-182.5C760.3 389.3 653.8 329.1 512 329.1s-248.3 60.2-323.5 183.2C260.7 634.9 367.2 694.9 512 694.9z" fill="#797979" p-id="16204"></path><path d="M512 694.9c-101 0-182.9-81.9-182.9-182.9S411 329.1 512 329.1 694.9 411 694.9 512 613 694.9 512 694.9z m0-73.2c60.6 0 109.7-49.1 109.7-109.7S572.6 402.3 512 402.3 402.3 451.4 402.3 512 451.4 621.7 512 621.7z" fill="#797979" p-id="16205"></path></svg>