<?xml version="1.0" standalone="no"?><!DOCTYPE svg PUBLIC "-//W3C//DTD SVG 1.1//EN" "http://www.w3.org/Graphics/SVG/1.1/DTD/svg11.dtd"><svg t="1581668814036" class="icon" viewBox="0 0 1024 1024" version="1.1" xmlns="http://www.w3.org/2000/svg" p-id="3647" xmlns:xlink="http://www.w3.org/1999/xlink" width="200" height="200"><defs><style type="text/css"></style></defs><path d="M480 544v352H128V544h352z m288 0v160h64v-160h64v224h-192v-160h-96v288h-64V544h224z m0 288v64h-64v-64h64z m128 0v64h-64v-64h64z m-480-224H192v224h224v-224z m-64 64v96H256v-96h96z m128-544v352H128V128h352z m416 0v352H544V128h352zM416 192H192v224h224V192z m416 0h-224v224h224V192zM352 256v96H256V256h96z m416 0v96h-96V256h96z" fill="#000000" p-id="3648"></path></svg>