<?xml version="1.0" standalone="no"?><!DOCTYPE svg PUBLIC "-//W3C//DTD SVG 1.1//EN" "http://www.w3.org/Graphics/SVG/1.1/DTD/svg11.dtd"><svg t="1623892325491" class="icon" viewBox="0 0 1024 1024" version="1.1" xmlns="http://www.w3.org/2000/svg" p-id="4879" xmlns:xlink="http://www.w3.org/1999/xlink" width="200" height="200"><defs><style type="text/css"></style></defs><path d="M512 265.76c-135.776 0-246.24 110.464-246.24 246.24s110.464 246.24 246.24 246.24 246.24-110.464 246.24-246.24S647.776 265.76 512 265.76z m0 428.48c-100.48 0-182.24-81.76-182.24-182.24S411.52 329.76 512 329.76 694.24 411.52 694.24 512 612.48 694.24 512 694.24z" fill="#707070" p-id="4880"></path><path d="M976.288 406.08l-111.936-13.216a368.352 368.352 0 0 0-19.04-45.728L915.2 258.56c15.52-19.712 14.848-46.912-1.568-63.296l-84.928-84.928a44.224 44.224 0 0 0-31.584-12.704c-11.328 0-22.592 3.968-31.744 11.168l-88.832 70.08c-14.72-7.264-29.888-13.536-45.408-18.784l-13.248-112.416C614.944 22.784 595.232 4 572.032 4h-120.096c-23.2 0-42.912 18.784-45.856 43.68l-13.248 112.416c-15.552 5.248-30.72 11.52-45.44 18.784L258.56 108.8a51.648 51.648 0 0 0-31.744-11.168c-12.16 0-23.392 4.512-31.584 12.736L110.304 195.296c-16.416 16.416-17.056 43.616-1.536 63.328l69.888 88.576c-7.36 14.816-13.728 30.08-19.04 45.76l-111.936 13.216c-24.928 2.944-43.712 22.656-43.712 45.856v120.096c0 23.2 18.784 42.912 43.68 45.856l111.488 13.152c5.312 15.84 11.68 31.328 19.104 46.304L108.8 765.472c-15.552 19.712-14.912 46.944 1.504 63.328L195.2 913.728c8.192 8.192 19.424 12.736 31.584 12.736 11.328 0 22.624-3.968 31.776-11.2l87.808-69.248c15.072 7.488 30.656 13.952 46.624 19.36l13.088 111.008c2.944 24.928 22.656 43.712 45.856 43.712h120.096c23.2 0 42.912-18.784 45.856-43.712l13.088-111.008c15.968-5.376 31.552-11.84 46.624-19.36l87.776 69.248c9.152 7.232 20.448 11.2 31.776 11.2 12.16 0 23.36-4.512 31.552-12.736l84.896-84.896c16.416-16.384 17.088-43.616 1.568-63.36l-69.472-88.064c7.424-15.008 13.792-30.464 19.104-46.304l111.488-13.152c24.928-2.944 43.712-22.656 43.712-45.856v-120.096c0-23.2-18.784-42.912-43.712-45.856z m-20.288 149.76l-119.488 14.112a32 32 0 0 0-27.136 23.424 306.4 306.4 0 0 1-29.504 71.584c-6.432 11.328-5.376 25.408 2.688 35.648l74.4 94.304-62.016 62.048-94.112-74.24a32 32 0 0 0-35.744-2.624 307.744 307.744 0 0 1-71.872 29.824 32 32 0 0 0-23.36 27.136l-14.048 118.976h-87.712l-14.048-118.944a32 32 0 0 0-23.36-27.136 307.744 307.744 0 0 1-71.872-29.824 32 32 0 0 0-35.744 2.624l-94.112 74.24-62.016-62.016 74.4-94.304c8.064-10.24 9.12-24.352 2.688-35.648a305.28 305.28 0 0 1-29.504-71.584 32 32 0 0 0-27.136-23.424l-119.456-14.112v-87.712l119.84-14.144a32 32 0 0 0 27.104-23.296 305.152 305.152 0 0 1 29.6-71.04c6.496-11.328 5.44-25.472-2.624-35.744L167.008 229.088l62.016-62.016 95.072 75.008a32 32 0 0 0 35.648 2.688 307.04 307.04 0 0 1 70.816-29.28 32 32 0 0 0 23.36-27.136l14.208-120.32h87.712l14.176 120.32a32 32 0 0 0 23.36 27.136 307.616 307.616 0 0 1 70.816 29.28c11.328 6.432 25.408 5.376 35.648-2.688l95.104-75.04 62.048 62.048-74.848 94.88a32 32 0 0 0-2.624 35.744c12.8 22.304 22.752 46.208 29.568 71.04 3.456 12.544 14.176 21.76 27.104 23.296l119.84 14.144v87.712z" fill="#707070" p-id="4881"></path></svg>