<?xml version="1.0" standalone="no"?><!DOCTYPE svg PUBLIC "-//W3C//DTD SVG 1.1//EN" "http://www.w3.org/Graphics/SVG/1.1/DTD/svg11.dtd"><svg t="1645271226531" class="icon" viewBox="0 0 1024 1024" version="1.1" xmlns="http://www.w3.org/2000/svg" p-id="20489" xmlns:xlink="http://www.w3.org/1999/xlink" width="200" height="200"><defs><style type="text/css"></style></defs><path d="M898.398191 601.423691c-25.952617 0-47.391736 21.439118-47.391736 47.391736l0 242.600551c0 20.874931-16.92562 37.800551-37.800551 37.800551L132.795987 929.216529c-20.874931 0-37.800551-16.92562-37.800551-37.800551L94.995436 209.313499c0-20.874931 16.92562-37.800551 37.800551-37.800551l212.698623 0c25.952617 0 47.391736-21.439118 47.391736-47.391736 0-25.952617-20.874931-47.391736-47.391736-47.391736L132.795987 76.729477C59.451635 76.729477 0.211965 135.969146 0.211965 209.313499l0 682.102479c0 73.344353 59.239669 132.584022 132.584022 132.584022l680.409917 0c72.780165 0 132.584022-59.239669 132.584022-132.584022l0-242.600551C945.789927 622.298623 924.350808 601.423691 898.398191 601.423691zM1020.826841 179.41157c-5.077686-13.540496-15.233058-24.824242-28.209366-31.59449L694.726566 5.641873c-27.080992-12.976309-60.368044-1.692562-73.344353 25.952617-12.976309 27.645179-1.692562 60.368044 25.952617 73.344353l156.27989 75.036915C562.142544 229.060055 464.538136 410.728375 422.224086 490.842975c-48.52011 90.83416-61.496419 231.316804-62.060606 236.958678-2.820937 30.466116 19.746556 56.98292 49.648485 59.803857 1.692562 0 3.385124 0 5.077686 0 28.209366 0 51.905234-21.439118 54.726171-50.212672 2.820937-33.85124 18.053994-135.969146 49.648485-195.208815 43.442424-81.242975 124.121212-232.445179 340.204959-260.654545 3.949311-0.564187 6.770248-2.256749 10.155372-3.385124l-92.526722 194.080441c-12.976309 27.645179-1.692562 60.368044 25.952617 73.344353 7.898623 3.385124 15.797245 5.641873 23.695868 5.641873 20.310744 0 40.0573-11.283747 49.648485-31.59449l142.175207-298.455096C1024.776153 208.185124 1025.34034 192.952066 1020.826841 179.41157z" p-id="20490" fill="#707070"></path></svg>