<?xml version="1.0" standalone="no"?><!DOCTYPE svg PUBLIC "-//W3C//DTD SVG 1.1//EN" "http://www.w3.org/Graphics/SVG/1.1/DTD/svg11.dtd"><svg t="1583201968249" class="icon" viewBox="0 0 1024 1024" version="1.1" xmlns="http://www.w3.org/2000/svg" p-id="17352" xmlns:xlink="http://www.w3.org/1999/xlink" width="200" height="200"><defs><style type="text/css"></style></defs><path d="M268.373333 609.706667l-12.373333 12.8V298.666667a42.666667 42.666667 0 0 0-85.333333 0v323.84l-12.373334-12.8a42.666667 42.666667 0 0 0-60.586666 60.586666l85.333333 85.333334a42.666667 42.666667 0 0 0 14.08 8.96 40.106667 40.106667 0 0 0 32.426667 0 42.666667 42.666667 0 0 0 14.08-8.96l85.333333-85.333334a42.666667 42.666667 0 0 0-60.586667-60.586666zM469.333333 341.333333h426.666667a42.666667 42.666667 0 0 0 0-85.333333H469.333333a42.666667 42.666667 0 0 0 0 85.333333z m426.666667 128H469.333333a42.666667 42.666667 0 0 0 0 85.333334h426.666667a42.666667 42.666667 0 0 0 0-85.333334z m0 213.333334H469.333333a42.666667 42.666667 0 0 0 0 85.333333h426.666667a42.666667 42.666667 0 0 0 0-85.333333z" p-id="17353" fill="#515151"></path></svg>