<?xml version="1.0" standalone="no"?><!DOCTYPE svg PUBLIC "-//W3C//DTD SVG 1.1//EN" "http://www.w3.org/Graphics/SVG/1.1/DTD/svg11.dtd"><svg t="1624354485328" class="icon" viewBox="0 0 1024 1024" version="1.1" xmlns="http://www.w3.org/2000/svg" p-id="13404" xmlns:xlink="http://www.w3.org/1999/xlink" width="200" height="200"><defs><style type="text/css"></style></defs><path d="M147.2 0C102.4 0 65.6 36.8 65.6 81.6v860.8c0 44.8 35.2 81.6 81.6 81.6h731.2c44.8 0 81.6-36.8 81.6-81.6V324.8L657.6 0H147.2z" fill="#0C8FE8" p-id="13405"></path><path d="M960 326.4v16H755.2s-100.8-20.8-99.2-108.8c0 0 4.8 92.8 97.6 92.8H960z" fill="#0973E2" p-id="13406"></path><path d="M657.6 0v233.6c0 25.6 17.6 92.8 97.6 92.8H960L657.6 0z" fill="#FFFFFF" opacity=".5" p-id="13407"></path><path d="M516.8 569.6c-33.6-33.6-88-33.6-121.6 0l-49.6 49.6c-32 32-32 86.4 0 120 8 8 20.8 8 28.8 0s8-19.2 0-27.2c-17.6-19.2-17.6-48 0-65.6l49.6-49.6c17.6-17.6 46.4-17.6 64 0 17.6 19.2 17.6 48 0 65.6l-22.4 24c4.8 16 8 32 6.4 48l43.2-43.2c33.6-33.6 33.6-88 1.6-121.6z m-124.8 96c-6.4 6.4-6.4 19.2 0 27.2 19.2 17.6 19.2 48 0 65.6l-48 48c-17.6 17.6-46.4 17.6-65.6 0-17.6-17.6-17.6-46.4 0-64l24-24c-6.4-16-8-32-6.4-49.6l-44.8 44.8c-33.6 33.6-33.6 88 0 121.6 33.6 33.6 88 33.6 120 0l49.6-49.6c33.6-33.6 33.6-86.4 0-120-8-8-20.8-8-28.8 0z" fill="#FFFFFF" p-id="13408"></path></svg>