<?xml version="1.0" standalone="no"?><!DOCTYPE svg PUBLIC "-//W3C//DTD SVG 1.1//EN" "http://www.w3.org/Graphics/SVG/1.1/DTD/svg11.dtd"><svg t="1624695965970" class="icon" viewBox="0 0 1024 1024" version="1.1" xmlns="http://www.w3.org/2000/svg" p-id="5312" xmlns:xlink="http://www.w3.org/1999/xlink" width="200" height="200"><defs><style type="text/css"></style></defs><path d="M944 944H80c-26.4 0-48-18.4-48-40.8V656h960v247.2c0 22.4-21.6 40.8-48 40.8z" fill="#5ACC9B" p-id="5313"></path><path d="M80 80h864c26.4 0 48 18.4 48 40.8V368H32V120.8c0-22.4 21.6-40.8 48-40.8z" fill="#6CCBFF" p-id="5314"></path><path d="M32 368h960v288H32z" fill="#FFD766" p-id="5315"></path><path d="M352 80h320v864H352z" fill="#FF5562" p-id="5316"></path><path d="M444 128h64v48h-64zM508 80h64v48h-64zM508 176h64v48h-64zM444 224h64v48h-64zM508 272h64v48h-64zM444 320h64v48h-64zM508 368h64v48h-64zM444 416h64v48h-64zM508 464h64v48h-64zM444 512h64v48h-64zM508 560h64v48h-64zM444 608h64v48h-64zM508 656h64v48h-64zM444 704h64v48h-64zM508 752h64v48h-64zM444 800h64v48h-64zM444 896h64v48h-64zM508 848h64v48h-64z" fill="#FFFFFF" p-id="5317"></path></svg>