<svg xmlns="http://www.w3.org/2000/svg" viewBox="0 0 100 127" version="1.1" width="100" height="127">
  <symbol id="svg-format-blank">
    <path d="M95 23V119C95 119.796 94.6839 120.559 94.1213 121.121C93.5587 121.684 92.7956 122 92 122H8C7.20435 122 6.44129 121.684 5.87868 121.121C5.31607 120.559 5 119.796 5 119V8C5 7.20435 5.31607 6.44129 5.87868 5.87868C6.44129 5.31607 7.20435 5 8 5H77L95 23Z" fill="white"/>
<path opacity="0.2" d="M77 5H8C7.20435 5 6.44129 5.31607 5.87868 5.87868C5.31607 6.44129 5 7.20435 5 8V119C5 119.796 5.31607 120.559 5.87868 121.121C6.44129 121.684 7.20435 122 8 122H92C92.7956 122 93.5587 121.684 94.1213 121.121C94.6839 120.559 95 119.796 95 119V23L77 5ZM94 119C94 119.53 93.7893 120.039 93.4142 120.414C93.0391 120.789 92.5304 121 92 121H8C7.46957 121 6.96086 120.789 6.58579 120.414C6.21071 120.039 6 119.53 6 119V8C6 7.46957 6.21071 6.96086 6.58579 6.58579C6.96086 6.21071 7.46957 6 8 6H76.59L77 6.41V20C77 20.7956 77.3161 21.5587 77.8787 22.1213C78.4413 22.6839 79.2044 23 80 23H93.59L94 23.41V119Z" fill="black"/>
<g opacity="0.2">
<path opacity="0.2" d="M75 86H50V88H75V86Z" fill="black"/>
<path opacity="0.2" d="M75 80H25V82H75V80Z" fill="black"/>
<path opacity="0.2" d="M75 74H25V76H75V74Z" fill="black"/>
<path opacity="0.2" d="M75 68H25V70H75V68Z" fill="black"/>
<path opacity="0.2" d="M75 62H25V64H75V62Z" fill="black"/>
<path opacity="0.2" d="M49 43H25V45H49V43Z" fill="black"/>
<path opacity="0.2" d="M44 37H25V39H44V37Z" fill="black"/>
</g>
  </symbol>
</svg>
