<svg xmlns="http://www.w3.org/2000/svg" viewBox="0 0 100 127" version="1.1" width="100" height="127">
  <symbol id="svg-format-csv">
<path d="M95 23V119C95 119.796 94.6839 120.559 94.1213 121.121C93.5587 121.684 92.7956 122 92 122H8C7.20435 122 6.44129 121.684 5.87868 121.121C5.31607 120.559 5 119.796 5 119V8C5 7.20435 5.31607 6.44129 5.87868 5.87868C6.44129 5.31607 7.20435 5 8 5H77L95 23Z" fill="#646464"/>
<path opacity="0.2" d="M95 23H80C79.2044 23 78.4413 22.6839 77.8787 22.1213C77.3161 21.5587 77 20.7956 77 20V5L95 23Z" fill="black"/>
<path d="M43.6868 106.822C43.0032 106.822 42.4739 107.08 42.0989 107.596C41.7239 108.107 41.5364 108.822 41.5364 109.74C41.5364 111.65 42.2532 112.605 43.6868 112.605C44.2883 112.605 45.0168 112.455 45.8723 112.154V113.678C45.1692 113.971 44.384 114.117 43.5168 114.117C42.2708 114.117 41.3176 113.74 40.6575 112.986C39.9973 112.229 39.6672 111.143 39.6672 109.729C39.6672 108.838 39.8293 108.059 40.1536 107.391C40.4778 106.719 40.9426 106.205 41.5481 105.85C42.1575 105.49 42.8704 105.311 43.6868 105.311C44.5188 105.311 45.3547 105.512 46.1946 105.914L45.6086 107.391C45.2883 107.238 44.9661 107.105 44.6418 106.992C44.3176 106.879 43.9993 106.822 43.6868 106.822ZM52.7571 111.621C52.7571 112.395 52.4778 113.004 51.9192 113.449C51.3645 113.895 50.5911 114.117 49.5989 114.117C48.6848 114.117 47.8762 113.945 47.1731 113.602V111.914C47.7512 112.172 48.2395 112.354 48.6379 112.459C49.0403 112.564 49.4075 112.617 49.7395 112.617C50.1379 112.617 50.4426 112.541 50.6536 112.389C50.8684 112.236 50.9758 112.01 50.9758 111.709C50.9758 111.541 50.929 111.393 50.8352 111.264C50.7415 111.131 50.6028 111.004 50.4192 110.883C50.2395 110.762 49.8704 110.568 49.3118 110.303C48.7883 110.057 48.3958 109.82 48.134 109.594C47.8723 109.367 47.6633 109.104 47.5071 108.803C47.3508 108.502 47.2727 108.15 47.2727 107.748C47.2727 106.99 47.5286 106.395 48.0403 105.961C48.5559 105.527 49.2668 105.311 50.1731 105.311C50.6184 105.311 51.0422 105.363 51.4446 105.469C51.8508 105.574 52.2747 105.723 52.7161 105.914L52.1301 107.326C51.6731 107.139 51.2942 107.008 50.9934 106.934C50.6965 106.859 50.4036 106.822 50.1145 106.822C49.7708 106.822 49.5071 106.902 49.3235 107.062C49.1399 107.223 49.0481 107.432 49.0481 107.689C49.0481 107.85 49.0852 107.99 49.1594 108.111C49.2336 108.229 49.3508 108.344 49.511 108.457C49.675 108.566 50.0598 108.766 50.6653 109.055C51.4661 109.438 52.0149 109.822 52.3118 110.209C52.6086 110.592 52.7571 111.062 52.7571 111.621ZM59.1965 105.434H61.0305L58.1184 114H56.1379L53.2317 105.434H55.0657L56.677 110.531C56.7668 110.832 56.8586 111.184 56.9524 111.586C57.05 111.984 57.1106 112.262 57.134 112.418C57.177 112.059 57.3235 111.43 57.5735 110.531L59.1965 105.434Z" fill="white"/>
<path d="M38 90H21V92H38V90Z" fill="white"/>
<path d="M38 83H21V85H38V83Z" fill="white"/>
<path d="M38 76H21V78H38V76Z" fill="white"/>
<path d="M38 69H21V71H38V69Z" fill="white"/>
<path d="M38 62H21V64H38V62Z" fill="white"/>
<path d="M38 55H21V57H38V55Z" fill="white"/>
<path d="M38 48H21V50H38V48Z" fill="white"/>
<path d="M38 41H21V43H38V41Z" fill="white"/>
<path d="M38 34H21V36H38V34Z" fill="white"/>
<path d="M59 90H42V92H59V90Z" fill="white"/>
<path d="M59 83H42V85H59V83Z" fill="white"/>
<path d="M59 76H42V78H59V76Z" fill="white"/>
<path d="M59 69H42V71H59V69Z" fill="white"/>
<path d="M59 62H42V64H59V62Z" fill="white"/>
<path d="M59 55H42V57H59V55Z" fill="white"/>
<path d="M59 48H42V50H59V48Z" fill="white"/>
<path d="M59 41H42V43H59V41Z" fill="white"/>
<path d="M59 34H42V36H59V34Z" fill="white"/>
<path d="M80 90H63V92H80V90Z" fill="white"/>
<path d="M80 83H63V85H80V83Z" fill="white"/>
<path d="M80 76H63V78H80V76Z" fill="white"/>
<path d="M80 69H63V71H80V69Z" fill="white"/>
<path d="M80 62H63V64H80V62Z" fill="white"/>
<path d="M80 55H63V57H80V55Z" fill="white"/>
<path d="M80 48H63V50H80V48Z" fill="white"/>
<path d="M80 41H63V43H80V41Z" fill="white"/>
<path d="M80 34H63V36H80V34Z" fill="white"/>
  </symbol>
</svg>
