<svg xmlns="http://www.w3.org/2000/svg" viewBox="0 0 100 127" version="1.1" width="100" height="127">
  <symbol id="svg-format-docx">
    <path d="M95 23V119C95 119.796 94.6839 120.559 94.1213 121.121C93.5587 121.684 92.7956 122 92 122H8C7.20435 122 6.44129 121.684 5.87868 121.121C5.31607 120.559 5 119.796 5 119V8C5 7.20435 5.31607 6.44129 5.87868 5.87868C6.44129 5.31607 7.20435 5 8 5H77L95 23Z" fill="#214479"/>
<path opacity="0.2" d="M95 23H80C79.2044 23 78.4413 22.6839 77.8787 22.1213C77.3161 21.5587 77 20.7956 77 20V5L95 23Z" fill="black"/>
<path d="M41.6406 109.635C41.6406 111.045 41.2383 112.125 40.4336 112.875C39.6328 113.625 38.4746 114 36.959 114H34.5332V105.434H37.2227C38.6211 105.434 39.707 105.803 40.4805 106.541C41.2539 107.279 41.6406 108.311 41.6406 109.635ZM39.7539 109.682C39.7539 107.842 38.9414 106.922 37.3164 106.922H36.3496V112.5H37.1289C38.8789 112.5 39.7539 111.561 39.7539 109.682ZM51.1914 109.705C51.1914 111.123 50.8398 112.213 50.1367 112.975C49.4336 113.736 48.4258 114.117 47.1133 114.117C45.8008 114.117 44.793 113.736 44.0898 112.975C43.3867 112.213 43.0352 111.119 43.0352 109.693C43.0352 108.268 43.3867 107.18 44.0898 106.43C44.7969 105.676 45.8086 105.299 47.125 105.299C48.4414 105.299 49.4473 105.678 50.1426 106.436C50.8418 107.193 51.1914 108.283 51.1914 109.705ZM44.9395 109.705C44.9395 110.662 45.1211 111.383 45.4844 111.867C45.8477 112.352 46.3906 112.594 47.1133 112.594C48.5625 112.594 49.2871 111.631 49.2871 109.705C49.2871 107.775 48.5664 106.811 47.125 106.811C46.4023 106.811 45.8574 107.055 45.4902 107.543C45.123 108.027 44.9395 108.748 44.9395 109.705ZM56.6055 106.822C55.9219 106.822 55.3926 107.08 55.0176 107.596C54.6426 108.107 54.4551 108.822 54.4551 109.74C54.4551 111.65 55.1719 112.605 56.6055 112.605C57.207 112.605 57.9355 112.455 58.791 112.154V113.678C58.0879 113.971 57.3027 114.117 56.4355 114.117C55.1895 114.117 54.2363 113.74 53.5762 112.986C52.916 112.229 52.5859 111.143 52.5859 109.729C52.5859 108.838 52.748 108.059 53.0723 107.391C53.3965 106.719 53.8613 106.205 54.4668 105.85C55.0762 105.49 55.7891 105.311 56.6055 105.311C57.4375 105.311 58.2734 105.512 59.1133 105.914L58.5273 107.391C58.207 107.238 57.8848 107.105 57.5605 106.992C57.2363 106.879 56.918 106.822 56.6055 106.822ZM67.5449 114H65.4707L63.4785 110.76L61.4863 114H59.541L62.3828 109.582L59.7227 105.434H61.7266L63.5723 108.516L65.3828 105.434H67.3398L64.6504 109.682L67.5449 114Z" fill="white"/>
<path d="M67.8 48L61.5 75L54.5 48H51.5H48.5L41.5 75L35.2 48H29.4L37.9 82H44.3L51.5 54.1L58.7 82H65.1L73.6 48H67.8Z" fill="white"/>
  </symbol>
</svg>
