<svg xmlns="http://www.w3.org/2000/svg" viewBox="0 0 100 127" version="1.1" width="100" height="127">
  <symbol id="svg-format-dotx">
<path d="M95 23V119C95 119.796 94.6839 120.559 94.1213 121.121C93.5587 121.684 92.7956 122 92 122H8C7.20435 122 6.44129 121.684 5.87868 121.121C5.31607 120.559 5 119.796 5 119V8C5 7.20435 5.31607 6.44129 5.87868 5.87868C6.44129 5.31607 7.20435 5 8 5H77L95 23Z" fill="#214479"/>
<path opacity="0.2" d="M95 23H80C79.2044 23 78.4413 22.6839 77.8787 22.1213C77.3161 21.5587 77 20.7956 77 20V5L95 23Z" fill="black"/>
<path d="M41.1855 109.635C41.1855 111.045 40.7832 112.125 39.9785 112.875C39.1777 113.625 38.0195 114 36.5039 114H34.0781V105.434H36.7676C38.166 105.434 39.252 105.803 40.0254 106.541C40.7988 107.279 41.1855 108.311 41.1855 109.635ZM39.2988 109.682C39.2988 107.842 38.4863 106.922 36.8613 106.922H35.8945V112.5H36.6738C38.4238 112.5 39.2988 111.561 39.2988 109.682ZM50.7363 109.705C50.7363 111.123 50.3848 112.213 49.6816 112.975C48.9785 113.736 47.9707 114.117 46.6582 114.117C45.3457 114.117 44.3379 113.736 43.6348 112.975C42.9316 112.213 42.5801 111.119 42.5801 109.693C42.5801 108.268 42.9316 107.18 43.6348 106.43C44.3418 105.676 45.3535 105.299 46.6699 105.299C47.9863 105.299 48.9922 105.678 49.6875 106.436C50.3867 107.193 50.7363 108.283 50.7363 109.705ZM44.4844 109.705C44.4844 110.662 44.666 111.383 45.0293 111.867C45.3926 112.352 45.9355 112.594 46.6582 112.594C48.1074 112.594 48.832 111.631 48.832 109.705C48.832 107.775 48.1113 106.811 46.6699 106.811C45.9473 106.811 45.4023 107.055 45.0352 107.543C44.668 108.027 44.4844 108.748 44.4844 109.705ZM55.8164 114H54V106.945H51.6738V105.434H58.1426V106.945H55.8164V114ZM66.3867 114H64.3125L62.3203 110.76L60.3281 114H58.3828L61.2246 109.582L58.5645 105.434H60.5684L62.4141 108.516L64.2246 105.434H66.1816L63.4922 109.682L66.3867 114Z" fill="white"/>
<path d="M67.8 48L61.5 75L54.5 48H51.5H48.5L41.5 75L35.2 48H29.4L37.9 82H44.3L51.5 54.1L58.7 82H65.1L73.6 48H67.8Z" fill="white"/>
<rect x="15" y="15" width="16" height="14" rx="2" fill="white"/>
<path d="M23.0898 26H21.6895V18.6348H19.1699V17.4336H25.6094V18.6348H23.0898V26Z" fill="#214479"/>
  </symbol>
</svg>
