<svg xmlns="http://www.w3.org/2000/svg" viewBox="0 0 100 127" version="1.1" width="100" height="127">
  <symbol id="svg-format-epub">
<path d="M95 23V119C95 119.796 94.6839 120.559 94.1213 121.121C93.5587 121.684 92.7956 122 92 122H8C7.20435 122 6.44129 121.684 5.87868 121.121C5.31607 120.559 5 119.796 5 119V8C5 7.20435 5.31607 6.44129 5.87868 5.87868C6.44129 5.31607 7.20435 5 8 5H77L95 23Z" fill="#5892B6"/>
<path opacity="0.2" d="M95 23H80C79.2044 23 78.4413 22.6839 77.8787 22.1213C77.3161 21.5587 77 20.7956 77 20V5L95 23Z" fill="black"/>
<path d="M40.3218 114H35.3882V105.434H40.3218V106.922H37.2046V108.803H40.105V110.291H37.2046V112.5H40.3218V114ZM43.9312 109.465H44.5288C45.0874 109.465 45.5054 109.355 45.7827 109.137C46.0601 108.914 46.1987 108.592 46.1987 108.17C46.1987 107.744 46.0815 107.43 45.8472 107.227C45.6167 107.023 45.2534 106.922 44.7573 106.922H43.9312V109.465ZM48.0327 108.105C48.0327 109.027 47.7437 109.732 47.1655 110.221C46.5913 110.709 45.7729 110.953 44.7104 110.953H43.9312V114H42.1147V105.434H44.8511C45.8901 105.434 46.6792 105.658 47.2183 106.107C47.7612 106.553 48.0327 107.219 48.0327 108.105ZM56.6226 105.434V110.977C56.6226 111.609 56.48 112.164 56.1948 112.641C55.9136 113.117 55.5054 113.482 54.9702 113.736C54.4351 113.99 53.8022 114.117 53.0718 114.117C51.9702 114.117 51.1147 113.836 50.5054 113.273C49.896 112.707 49.5913 111.934 49.5913 110.953V105.434H51.4019V110.678C51.4019 111.338 51.5347 111.822 51.8003 112.131C52.0659 112.439 52.5054 112.594 53.1187 112.594C53.7124 112.594 54.1421 112.439 54.4077 112.131C54.6772 111.818 54.812 111.33 54.812 110.666V105.434H56.6226ZM58.7202 105.434H61.3862C62.6011 105.434 63.4819 105.607 64.0288 105.955C64.5796 106.299 64.855 106.848 64.855 107.602C64.855 108.113 64.7339 108.533 64.4917 108.861C64.2534 109.189 63.9351 109.387 63.5366 109.453V109.512C64.0796 109.633 64.4702 109.859 64.7085 110.191C64.9507 110.523 65.0718 110.965 65.0718 111.516C65.0718 112.297 64.7886 112.906 64.2222 113.344C63.6597 113.781 62.894 114 61.9253 114H58.7202V105.434ZM60.5366 108.826H61.5913C62.0835 108.826 62.439 108.75 62.6577 108.598C62.8804 108.445 62.9917 108.193 62.9917 107.842C62.9917 107.514 62.8706 107.279 62.6284 107.139C62.3901 106.994 62.0112 106.922 61.4917 106.922H60.5366V108.826ZM60.5366 110.268V112.5H61.7202C62.2202 112.5 62.5894 112.404 62.8276 112.213C63.0659 112.021 63.1851 111.729 63.1851 111.334C63.1851 110.623 62.6772 110.268 61.6616 110.268H60.5366Z" fill="white"/>
<path d="M49 84V49C49 49 40 43 25 42V75C25 75 42 76 49 84Z" fill="white"/>
<path d="M75 75V42C60 43 51 49 51 49V84C58 76 75 75 75 75Z" fill="white"/>
<path d="M77 47V79C77 79 62 79 50 87.3C38 79 23 79 23 79V47H20V82C20 82 33 80 50 88C67 80 80 82 80 82V47H77Z" fill="white"/>
  </symbol>
</svg>
