<svg xmlns="http://www.w3.org/2000/svg" viewBox="0 0 100 127" version="1.1" width="100" height="127">
  <symbol id="svg-format-html">
<path d="M95 23V119C95 119.796 94.6839 120.559 94.1213 121.121C93.5587 121.684 92.7956 122 92 122H8C7.20435 122 6.44129 121.684 5.87868 121.121C5.31607 120.559 5 119.796 5 119V8C5 7.20435 5.31607 6.44129 5.87868 5.87868C6.44129 5.31607 7.20435 5 8 5H77L95 23Z" fill="#7C9A34"/>
<path opacity="0.2" d="M95 23H80C79.2044 23 78.4413 22.6839 77.8787 22.1213C77.3161 21.5587 77 20.7956 77 20V5L95 23Z" fill="black"/>
<path d="M40.9877 114H39.1771V110.303H35.7845V114H33.9681V105.434H35.7845V108.791H39.1771V105.434H40.9877V114ZM46.4603 114H44.6439V106.945H42.3177V105.434H48.7865V106.945H46.4603V114ZM53.7318 114L51.6693 107.279H51.6166C51.6908 108.646 51.7279 109.559 51.7279 110.016V114H50.1049V105.434H52.5775L54.6049 111.984H54.64L56.7904 105.434H59.2631V114H57.5697V109.945C57.5697 109.754 57.5717 109.533 57.5756 109.283C57.5834 109.033 57.6107 108.369 57.6576 107.291H57.6049L55.3959 114H53.7318ZM61.4252 114V105.434H63.2416V112.5H66.7162V114H61.4252Z" fill="white"/>
<path d="M62 53V57.8L75.5 62.5L62 67.2V72L80 64.2V60.8L62 53Z" fill="white"/>
<path d="M40 75H45.5L59.5 50H54L40 75Z" fill="white"/>
<path d="M19 64.2L37 72V67.2L23.5 62.5L37 57.8V53L19 60.8V64.2Z" fill="white"/>
  </symbol>
</svg>
