<svg xmlns="http://www.w3.org/2000/svg" viewBox="0 0 100 127" version="1.1" width="100" height="127">
  <symbol id="svg-format-odp">
<path d="M95 23V119C95 119.796 94.6839 120.559 94.1213 121.121C93.5587 121.684 92.7956 122 92 122H8C7.20435 122 6.44129 121.684 5.87868 121.121C5.31607 120.559 5 119.796 5 119V8C5 7.20435 5.31607 6.44129 5.87868 5.87868C6.44129 5.31607 7.20435 5 8 5H77L95 23Z" fill="#DD9426"/>
<path opacity="0.2" d="M95 23H80C79.2044 23 78.4413 22.6839 77.8787 22.1213C77.3161 21.5587 77 20.7956 77 20V5L95 23Z" fill="black"/>
<path d="M45.8735 109.705C45.8735 111.123 45.522 112.213 44.8188 112.975C44.1157 113.736 43.1079 114.117 41.7954 114.117C40.4829 114.117 39.4751 113.736 38.772 112.975C38.0688 112.213 37.7173 111.119 37.7173 109.693C37.7173 108.268 38.0688 107.18 38.772 106.43C39.479 105.676 40.4907 105.299 41.8071 105.299C43.1235 105.299 44.1294 105.678 44.8247 106.436C45.5239 107.193 45.8735 108.283 45.8735 109.705ZM39.6216 109.705C39.6216 110.662 39.8032 111.383 40.1665 111.867C40.5298 112.352 41.0728 112.594 41.7954 112.594C43.2446 112.594 43.9692 111.631 43.9692 109.705C43.9692 107.775 43.2485 106.811 41.8071 106.811C41.0845 106.811 40.5396 107.055 40.1724 107.543C39.8052 108.027 39.6216 108.748 39.6216 109.705ZM54.7563 109.635C54.7563 111.045 54.354 112.125 53.5493 112.875C52.7485 113.625 51.5903 114 50.0747 114H47.6489V105.434H50.3384C51.7368 105.434 52.8228 105.803 53.5962 106.541C54.3696 107.279 54.7563 108.311 54.7563 109.635ZM52.8696 109.682C52.8696 107.842 52.0571 106.922 50.4321 106.922H49.4653V112.5H50.2446C51.9946 112.5 52.8696 111.561 52.8696 109.682ZM58.3481 109.465H58.9458C59.5044 109.465 59.9224 109.355 60.1997 109.137C60.4771 108.914 60.6157 108.592 60.6157 108.17C60.6157 107.744 60.4985 107.43 60.2642 107.227C60.0337 107.023 59.6704 106.922 59.1743 106.922H58.3481V109.465ZM62.4497 108.105C62.4497 109.027 62.1606 109.732 61.5825 110.221C61.0083 110.709 60.1899 110.953 59.1274 110.953H58.3481V114H56.5317V105.434H59.2681C60.3071 105.434 61.0962 105.658 61.6353 106.107C62.1782 106.553 62.4497 107.219 62.4497 108.105Z" fill="white"/>
<path d="M78 52.74L77.71 52.59C75.5095 51.5323 73.0841 51.0277 70.6443 51.1201C68.2046 51.2125 65.8242 51.899 63.71 53.12C61.5369 51.8865 59.089 51.2182 56.5906 51.1763C54.0922 51.1344 51.6232 51.7202 49.41 52.88H49.33C49.2989 52.9033 49.2737 52.9335 49.2564 52.9682C49.239 53.0029 49.23 53.0412 49.23 53.08C49.23 53.149 49.2574 53.2151 49.3061 53.2639C49.3549 53.3126 49.421 53.34 49.49 53.34H49.55C50.9144 53.0837 52.3084 53.0231 53.69 53.16C57.69 53.53 61.12 54.76 63.55 57.52C63.68 57.65 63.79 57.64 63.92 57.52C67 54 71.68 52.6 76.72 53.07C77 53.07 77.28 53.13 77.55 53.18H77.88C77.9144 53.1847 77.9494 53.1815 77.9823 53.1708C78.0153 53.16 78.0455 53.142 78.0705 53.1179C78.0955 53.0939 78.1147 53.0645 78.1268 53.0319C78.1388 52.9994 78.1433 52.9645 78.14 52.93C78.1341 52.8893 78.1182 52.8506 78.0938 52.8174C78.0694 52.7843 78.0372 52.7577 78 52.74Z" fill="white"/>
<path d="M72.16 65.21C68.1013 63.5273 63.6822 62.9007 59.3156 63.3886C54.9491 63.8765 50.7773 65.463 47.19 68C43.1649 66.2095 38.7509 65.4712 34.3622 65.8543C29.9735 66.2373 25.7541 67.7293 22.1 70.19H22.05C22.0071 70.2275 21.9725 70.2736 21.9484 70.3252C21.9243 70.3769 21.9112 70.433 21.91 70.49C21.91 70.5917 21.9497 70.6894 22.0207 70.7623C22.0917 70.8352 22.1883 70.8774 22.29 70.88H22.37C24.7999 70.1511 27.3232 69.7806 29.86 69.78C36.79 69.78 42.96 71.42 47.6 75.78C47.6698 75.8391 47.7586 75.8711 47.85 75.87C47.9075 75.8716 47.9645 75.8597 48.0166 75.8354C48.0686 75.8111 48.1143 75.775 48.15 75.73L48.37 75.42C53.09 68.97 60.87 65.79 69.53 65.79C70.15 65.79 70.76 65.79 71.37 65.85H71.92C72.0227 65.8475 72.1204 65.8056 72.193 65.733C72.2656 65.6604 72.3075 65.5626 72.31 65.46C72.3027 65.4105 72.2857 65.3629 72.26 65.32C72.2342 65.2771 72.2003 65.2397 72.16 65.21Z" fill="white"/>
  </symbol>
</svg>
