<svg xmlns="http://www.w3.org/2000/svg" viewBox="0 0 100 127" version="1.1" width="100" height="127">
  <symbol id="svg-format-ots">
<path d="M95 23V119C95 119.796 94.6839 120.559 94.1213 121.121C93.5587 121.684 92.7956 122 92 122H8C7.20435 122 6.44129 121.684 5.87868 121.121C5.31607 120.559 5 119.796 5 119V8C5 7.20435 5.31607 6.44129 5.87868 5.87868C6.44129 5.31607 7.20435 5 8 5H77L95 23Z" fill="#237453"/>
<path opacity="0.2" d="M95 23H80C79.2044 23 78.4413 22.6839 77.8787 22.1213C77.3161 21.5587 77 20.7956 77 20V5L95 23Z" fill="black"/>
<path d="M46.3335 109.705C46.3335 111.123 45.9819 112.213 45.2788 112.975C44.5757 113.736 43.5679 114.117 42.2554 114.117C40.9429 114.117 39.9351 113.736 39.2319 112.975C38.5288 112.213 38.1772 111.119 38.1772 109.693C38.1772 108.268 38.5288 107.18 39.2319 106.43C39.939 105.676 40.9507 105.299 42.2671 105.299C43.5835 105.299 44.5894 105.678 45.2847 106.436C45.9839 107.193 46.3335 108.283 46.3335 109.705ZM40.0815 109.705C40.0815 110.662 40.2632 111.383 40.6265 111.867C40.9897 112.352 41.5327 112.594 42.2554 112.594C43.7046 112.594 44.4292 111.631 44.4292 109.705C44.4292 107.775 43.7085 106.811 42.2671 106.811C41.5444 106.811 40.9995 107.055 40.6323 107.543C40.2651 108.027 40.0815 108.748 40.0815 109.705ZM51.4136 114H49.5972V106.945H47.271V105.434H53.7397V106.945H51.4136V114ZM60.1147 111.621C60.1147 112.395 59.8354 113.004 59.2769 113.449C58.7222 113.895 57.9487 114.117 56.9565 114.117C56.0425 114.117 55.2339 113.945 54.5308 113.602V111.914C55.1089 112.172 55.5972 112.354 55.9956 112.459C56.3979 112.564 56.7651 112.617 57.0972 112.617C57.4956 112.617 57.8003 112.541 58.0112 112.389C58.2261 112.236 58.3335 112.01 58.3335 111.709C58.3335 111.541 58.2866 111.393 58.1929 111.264C58.0991 111.131 57.9604 111.004 57.7769 110.883C57.5972 110.762 57.228 110.568 56.6694 110.303C56.146 110.057 55.7534 109.82 55.4917 109.594C55.23 109.367 55.021 109.104 54.8647 108.803C54.7085 108.502 54.6304 108.15 54.6304 107.748C54.6304 106.99 54.8862 106.395 55.3979 105.961C55.9136 105.527 56.6245 105.311 57.5308 105.311C57.9761 105.311 58.3999 105.363 58.8022 105.469C59.2085 105.574 59.6323 105.723 60.0737 105.914L59.4878 107.326C59.0308 107.139 58.6519 107.008 58.3511 106.934C58.0542 106.859 57.7612 106.822 57.4722 106.822C57.1284 106.822 56.8647 106.902 56.6812 107.062C56.4976 107.223 56.4058 107.432 56.4058 107.689C56.4058 107.85 56.4429 107.99 56.5171 108.111C56.5913 108.229 56.7085 108.344 56.8687 108.457C57.0327 108.566 57.4175 108.766 58.0229 109.055C58.8237 109.438 59.3726 109.822 59.6694 110.209C59.9663 110.592 60.1147 111.062 60.1147 111.621Z" fill="white"/>
<path d="M78 52.74L77.71 52.59C75.5095 51.5323 73.0841 51.0277 70.6443 51.1201C68.2046 51.2124 65.8242 51.8989 63.71 53.12C61.5369 51.8865 59.089 51.2182 56.5906 51.1763C54.0922 51.1343 51.6232 51.7201 49.41 52.88H49.33C49.2989 52.9033 49.2737 52.9335 49.2564 52.9682C49.239 53.0029 49.23 53.0412 49.23 53.08C49.23 53.1489 49.2574 53.2151 49.3061 53.2638C49.3549 53.3126 49.421 53.34 49.49 53.34H49.55C50.9144 53.0837 52.3084 53.0231 53.69 53.16C57.69 53.53 61.12 54.76 63.55 57.52C63.68 57.65 63.79 57.64 63.92 57.52C67 54 71.68 52.6 76.72 53.07C77 53.07 77.28 53.13 77.55 53.18H77.88C77.9144 53.1847 77.9494 53.1815 77.9823 53.1708C78.0153 53.16 78.0455 53.1419 78.0705 53.1179C78.0955 53.0938 78.1147 53.0644 78.1268 53.0319C78.1388 52.9994 78.1433 52.9645 78.14 52.93C78.1341 52.8892 78.1182 52.8506 78.0938 52.8174C78.0694 52.7843 78.0372 52.7577 78 52.74Z" fill="white"/>
<path d="M72.16 65.21C68.1013 63.5273 63.6822 62.9007 59.3156 63.3886C54.9491 63.8765 50.7773 65.463 47.19 68C43.1649 66.2095 38.7509 65.4712 34.3622 65.8543C29.9735 66.2373 25.7541 67.7293 22.1 70.19H22.05C22.0071 70.2275 21.9725 70.2736 21.9484 70.3252C21.9243 70.3769 21.9112 70.433 21.91 70.49C21.91 70.5917 21.9497 70.6894 22.0207 70.7623C22.0917 70.8352 22.1883 70.8774 22.29 70.88H22.37C24.7999 70.1511 27.3232 69.7806 29.86 69.78C36.79 69.78 42.96 71.42 47.6 75.78C47.6698 75.8391 47.7586 75.8711 47.85 75.87C47.9075 75.8716 47.9645 75.8597 48.0166 75.8354C48.0686 75.8111 48.1143 75.775 48.15 75.73L48.37 75.42C53.09 68.97 60.87 65.79 69.53 65.79C70.15 65.79 70.76 65.79 71.37 65.85H71.92C72.0227 65.8475 72.1204 65.8056 72.193 65.733C72.2656 65.6604 72.3075 65.5626 72.31 65.46C72.3027 65.4105 72.2857 65.3629 72.26 65.32C72.2342 65.2771 72.2003 65.2397 72.16 65.21Z" fill="white"/>
<rect x="15" y="15" width="16" height="14" rx="2" fill="white"/>
<path d="M23.0898 26H21.6895V18.6348H19.1699V17.4336H25.6094V18.6348H23.0898V26Z" fill="#237453"/>

  </symbol>
</svg>
