<svg xmlns="http://www.w3.org/2000/svg" viewBox="0 0 100 127" version="1.1" width="100" height="127">
  <symbol id="svg-format-ott">
<path d="M95 23V119C95 119.796 94.6839 120.559 94.1213 121.121C93.5587 121.684 92.7956 122 92 122H8C7.20435 122 6.44129 121.684 5.87868 121.121C5.31607 120.559 5 119.796 5 119V8C5 7.20435 5.31607 6.44129 5.87868 5.87868C6.44129 5.31607 7.20435 5 8 5H77L95 23Z" fill="#3C6D88"/>
<path opacity="0.2" d="M95 23H80C79.2044 23 78.4413 22.6839 77.8787 22.1213C77.3161 21.5587 77 20.7956 77 20V5L95 23Z" fill="black"/>
<path d="M46.1636 109.705C46.1636 111.123 45.812 112.213 45.1089 112.975C44.4058 113.736 43.3979 114.117 42.0854 114.117C40.7729 114.117 39.7651 113.736 39.062 112.975C38.3589 112.213 38.0073 111.119 38.0073 109.693C38.0073 108.268 38.3589 107.18 39.062 106.43C39.769 105.676 40.7808 105.299 42.0972 105.299C43.4136 105.299 44.4194 105.678 45.1147 106.436C45.814 107.193 46.1636 108.283 46.1636 109.705ZM39.9116 109.705C39.9116 110.662 40.0933 111.383 40.4565 111.867C40.8198 112.352 41.3628 112.594 42.0854 112.594C43.5347 112.594 44.2593 111.631 44.2593 109.705C44.2593 107.775 43.5386 106.811 42.0972 106.811C41.3745 106.811 40.8296 107.055 40.4624 107.543C40.0952 108.027 39.9116 108.748 39.9116 109.705ZM51.2437 114H49.4272V106.945H47.1011V105.434H53.5698V106.945H51.2437V114ZM58.1929 114H56.3765V106.945H54.0503V105.434H60.519V106.945H58.1929V114Z" fill="white"/>
<path d="M78 52.74L77.71 52.59C75.5095 51.5323 73.0841 51.0277 70.6443 51.1201C68.2046 51.2124 65.8242 51.8989 63.71 53.12C61.5369 51.8865 59.089 51.2182 56.5906 51.1763C54.0922 51.1343 51.6232 51.7201 49.41 52.88H49.33C49.2989 52.9033 49.2737 52.9335 49.2564 52.9682C49.239 53.0029 49.23 53.0412 49.23 53.08C49.23 53.1489 49.2574 53.2151 49.3061 53.2638C49.3549 53.3126 49.421 53.34 49.49 53.34H49.55C50.9144 53.0837 52.3084 53.0231 53.69 53.16C57.69 53.53 61.12 54.76 63.55 57.52C63.68 57.65 63.79 57.64 63.92 57.52C67 54 71.68 52.6 76.72 53.07C77 53.07 77.28 53.13 77.55 53.18H77.88C77.9144 53.1847 77.9494 53.1815 77.9823 53.1708C78.0153 53.16 78.0455 53.1419 78.0705 53.1179C78.0955 53.0938 78.1147 53.0644 78.1268 53.0319C78.1388 52.9994 78.1433 52.9645 78.14 52.93C78.1341 52.8892 78.1182 52.8506 78.0938 52.8174C78.0694 52.7843 78.0372 52.7577 78 52.74Z" fill="white"/>
<path d="M72.1602 65.21C68.1014 63.5273 63.6824 62.9007 59.3158 63.3886C54.9492 63.8765 50.7775 65.463 47.1902 68C43.165 66.2095 38.751 65.4712 34.3623 65.8543C29.9736 66.2373 25.7542 67.7293 22.1002 70.19H22.0502C22.0072 70.2275 21.9726 70.2736 21.9485 70.3252C21.9244 70.3769 21.9114 70.433 21.9102 70.49C21.9101 70.5917 21.9498 70.6894 22.0208 70.7623C22.0918 70.8352 22.1885 70.8774 22.2902 70.88H22.3702C24.8001 70.1511 27.3233 69.7806 29.8602 69.78C36.7902 69.78 42.9602 71.42 47.6002 75.78C47.6699 75.8391 47.7587 75.8711 47.8502 75.87C47.9076 75.8716 47.9646 75.8597 48.0167 75.8354C48.0688 75.8111 48.1145 75.775 48.1502 75.73L48.3702 75.42C53.0902 68.97 60.8702 65.79 69.5302 65.79C70.1502 65.79 70.7602 65.79 71.3702 65.85H71.9202C72.0228 65.8475 72.1205 65.8056 72.1931 65.733C72.2657 65.6604 72.3076 65.5626 72.3102 65.46C72.3028 65.4105 72.2858 65.3629 72.2601 65.32C72.2343 65.2771 72.2004 65.2397 72.1602 65.21Z" fill="white"/>
<rect x="15" y="15" width="16" height="14" rx="2" fill="white"/>
<path d="M23.0898 26H21.6895V18.6348H19.1699V17.4336H25.6094V18.6348H23.0898V26Z" fill="#3C6D88"/>
  </symbol>
</svg>
