<svg xmlns="http://www.w3.org/2000/svg" viewBox="0 0 100 127" version="1.1" width="100" height="127">
  <symbol id="svg-format-pdf">
<path d="M95 23V119C95 119.796 94.6839 120.559 94.1213 121.121C93.5587 121.684 92.7956 122 92 122H8C7.20435 122 6.44129 121.684 5.87868 121.121C5.31607 120.559 5 119.796 5 119V8C5 7.20435 5.31607 6.44129 5.87868 5.87868C6.44129 5.31607 7.20435 5 8 5H77L95 23Z" fill="#BA4C3F"/>
<path opacity="0.2" d="M95 23H80C79.2044 23 78.4413 22.6839 77.8787 22.1213C77.3161 21.5587 77 20.7956 77 20V5L95 23Z" fill="black"/>
<path d="M41.3945 109.465H41.9922C42.5508 109.465 42.9688 109.355 43.2461 109.137C43.5234 108.914 43.6621 108.592 43.6621 108.17C43.6621 107.744 43.5449 107.43 43.3105 107.227C43.0801 107.023 42.7168 106.922 42.2207 106.922H41.3945V109.465ZM45.4961 108.105C45.4961 109.027 45.207 109.732 44.6289 110.221C44.0547 110.709 43.2363 110.953 42.1738 110.953H41.3945V114H39.5781V105.434H42.3145C43.3535 105.434 44.1426 105.658 44.6816 106.107C45.2246 106.553 45.4961 107.219 45.4961 108.105ZM54.2207 109.635C54.2207 111.045 53.8184 112.125 53.0137 112.875C52.2129 113.625 51.0547 114 49.5391 114H47.1133V105.434H49.8027C51.2012 105.434 52.2871 105.803 53.0605 106.541C53.834 107.279 54.2207 108.311 54.2207 109.635ZM52.334 109.682C52.334 107.842 51.5215 106.922 49.8965 106.922H48.9297V112.5H49.709C51.459 112.5 52.334 111.561 52.334 109.682ZM57.7832 114H55.9961V105.434H60.9062V106.922H57.7832V109.131H60.6895V110.613H57.7832V114Z" fill="white"/>
<path d="M40.42 66.69C42 63.55 43.84 60 45.3 56.46L45.88 55.06C43.98 47.81 42.83 41.99 43.88 38.23C44.0939 37.7244 44.463 37.2999 44.9339 37.0177C45.4048 36.7355 45.9532 36.6102 46.5 36.66H47.38C49.04 36.66 49.82 38.75 49.91 39.57C49.9251 40.8132 49.7635 42.0523 49.43 43.25C49.5084 41.9746 49.3176 40.6969 48.87 39.5C48.16 38 47.5 37.1 46.91 37C46.7002 37.1686 46.5304 37.3816 46.4128 37.6236C46.2952 37.8657 46.2328 38.1309 46.23 38.4C46.0668 39.4553 45.9899 40.5222 46 41.59C46.0646 44.777 46.5522 47.9414 47.45 51C47.63 50.46 47.79 50 47.93 49.46C48.13 48.7 49.42 43.65 49.42 43.65C49.42 43.65 49.09 50.37 48.64 52.41C48.54 52.84 48.43 53.27 48.32 53.7C49.8434 58.0628 52.3675 62.0082 55.69 65.22C57.0163 66.3414 58.4616 67.3138 60 68.12C62.8629 67.6867 65.7544 67.4694 68.65 67.47C71.93 67.47 74.34 68 75.31 68.96C75.7339 69.4112 75.9791 70.0013 76 70.62C75.9819 70.9567 75.935 71.2913 75.86 71.62C75.86 71.44 75.86 70.62 73.26 69.74C71.19 69.08 67.26 69.1 62.65 69.59C68.04 72.23 73.29 73.59 74.95 72.75C75.3001 72.5168 75.605 72.222 75.85 71.88C75.7313 72.4478 75.5606 73.0035 75.34 73.54C75.013 73.9615 74.5617 74.2694 74.05 74.42C71.42 75.13 64.59 73.5 58.63 70.1C51.9034 71.1211 45.2713 72.6896 38.8 74.79C33 84.88 28.71 89.51 25.19 87.75L23.9 87.1C23.6628 86.9099 23.4889 86.6523 23.4014 86.3612C23.3139 86.0701 23.3169 85.7593 23.41 85.47C23.82 83.47 26.34 80.47 31.41 77.41C31.96 77.08 34.41 75.8 34.41 75.8C34.41 75.8 32.62 77.54 32.2 77.88C28.2 81.19 25.2 85.35 25.25 86.97V87.11C28.68 86.62 33.82 79.63 40.44 66.69H40.42ZM42.54 67.76C41.43 69.84 40.35 71.76 39.35 73.55C44.8642 71.3408 50.5959 69.7185 56.45 68.71C55.69 68.18 54.96 67.63 54.26 67.04C51.2254 64.4414 48.7547 61.2492 47 57.66C45.7253 61.1258 44.2151 64.5003 42.48 67.76" fill="white"/>
  </symbol>
</svg>
