<svg xmlns="http://www.w3.org/2000/svg" viewBox="0 0 100 127" version="1.1" width="100" height="127">
  <symbol id="svg-format-pdfa">
<path d="M95 23V119C95 119.796 94.6839 120.559 94.1213 121.121C93.5587 121.684 92.7956 122 92 122H8C7.20435 122 6.44129 121.684 5.87868 121.121C5.31607 120.559 5 119.796 5 119V8C5 7.20435 5.31607 6.44129 5.87868 5.87868C6.44129 5.31607 7.20435 5 8 5H77L95 23Z" fill="#BA4C3F"/>
<path opacity="0.2" d="M95 23H80C79.2044 23 78.4413 22.6839 77.8787 22.1213C77.3161 21.5587 77 20.7956 77 20V5L95 23Z" fill="black"/>
<path d="M34.8945 109.465H35.4922C36.0508 109.465 36.4688 109.355 36.7461 109.137C37.0234 108.914 37.1621 108.592 37.1621 108.17C37.1621 107.744 37.0449 107.43 36.8105 107.227C36.5801 107.023 36.2168 106.922 35.7207 106.922H34.8945V109.465ZM38.9961 108.105C38.9961 109.027 38.707 109.732 38.1289 110.221C37.5547 110.709 36.7363 110.953 35.6738 110.953H34.8945V114H33.0781V105.434H35.8145C36.8535 105.434 37.6426 105.658 38.1816 106.107C38.7246 106.553 38.9961 107.219 38.9961 108.105ZM47.7207 109.635C47.7207 111.045 47.3184 112.125 46.5137 112.875C45.7129 113.625 44.5547 114 43.0391 114H40.6133V105.434H43.3027C44.7012 105.434 45.7871 105.803 46.5605 106.541C47.334 107.279 47.7207 108.311 47.7207 109.635ZM45.834 109.682C45.834 107.842 45.0215 106.922 43.3965 106.922H42.4297V112.5H43.209C44.959 112.5 45.834 111.561 45.834 109.682ZM51.2832 114H49.4961V105.434H54.4062V106.922H51.2832V109.131H54.1895V110.613H51.2832V114ZM59.9023 105.434L56.709 114H55.0859L58.2793 105.434H59.9023ZM66.2832 114L65.6621 111.961H62.5391L61.918 114H59.9609L62.9844 105.398H65.2051L68.2402 114H66.2832ZM65.2285 110.438C64.6543 108.59 64.3301 107.545 64.2559 107.303C64.1855 107.061 64.1348 106.869 64.1035 106.729C63.9746 107.229 63.6055 108.465 62.9961 110.438H65.2285Z" fill="white"/>
<path d="M40.42 66.69C42 63.55 43.84 60 45.3 56.46L45.88 55.06C43.98 47.81 42.83 41.99 43.88 38.23C44.0939 37.7244 44.463 37.2999 44.9339 37.0177C45.4048 36.7355 45.9532 36.6102 46.5 36.66H47.38C49.04 36.66 49.82 38.75 49.91 39.57C49.9251 40.8132 49.7635 42.0523 49.43 43.25C49.5084 41.9745 49.3176 40.6969 48.87 39.5C48.16 38 47.5 37.1 46.91 37C46.7002 37.1685 46.5304 37.3815 46.4128 37.6236C46.2952 37.8657 46.2328 38.1309 46.23 38.4C46.0668 39.4553 45.9899 40.5222 46 41.59C46.0646 44.777 46.5522 47.9413 47.45 51C47.63 50.46 47.79 50 47.93 49.46C48.13 48.7 49.42 43.65 49.42 43.65C49.42 43.65 49.09 50.37 48.64 52.41C48.54 52.84 48.43 53.27 48.32 53.7C49.8434 58.0628 52.3675 62.0082 55.69 65.22C57.0163 66.3413 58.4616 67.3138 60 68.12C62.8629 67.6867 65.7544 67.4694 68.65 67.47C71.93 67.47 74.34 68 75.31 68.96C75.7339 69.4112 75.9791 70.0012 76 70.62C75.9819 70.9567 75.935 71.2913 75.86 71.62C75.86 71.44 75.86 70.62 73.26 69.74C71.19 69.08 67.26 69.1 62.65 69.59C68.04 72.23 73.29 73.59 74.95 72.75C75.3001 72.5168 75.605 72.222 75.85 71.88C75.7313 72.4478 75.5606 73.0035 75.34 73.54C75.013 73.9615 74.5617 74.2694 74.05 74.42C71.42 75.13 64.59 73.5 58.63 70.1C51.9034 71.121 45.2713 72.6896 38.8 74.79C33 84.88 28.71 89.51 25.19 87.75L23.9 87.1C23.6628 86.9099 23.4889 86.6523 23.4014 86.3612C23.3139 86.0701 23.3169 85.7593 23.41 85.47C23.82 83.47 26.34 80.47 31.41 77.41C31.96 77.08 34.41 75.8 34.41 75.8C34.41 75.8 32.62 77.54 32.2 77.88C28.2 81.19 25.2 85.35 25.25 86.97V87.11C28.68 86.62 33.82 79.63 40.44 66.69H40.42ZM42.54 67.76C41.43 69.84 40.35 71.76 39.35 73.55C44.8642 71.3408 50.5959 69.7185 56.45 68.71C55.69 68.18 54.96 67.63 54.26 67.04C51.2254 64.4414 48.7547 61.2492 47 57.66C45.7253 61.1257 44.2151 64.5003 42.48 67.76" fill="white"/>
<rect x="15" y="15" width="16" height="14" rx="2" fill="white"/>
<path d="M25.4453 26L24.5898 23.6211H21.3145L20.4766 26H19L22.2051 17.3984H23.7285L26.9336 26H25.4453ZM24.2207 22.4141L23.418 20.082C23.3594 19.9258 23.2773 19.6797 23.1719 19.3438C23.0703 19.0078 23 18.7617 22.9609 18.6055C22.8555 19.0859 22.7012 19.6113 22.498 20.1816L21.7246 22.4141H24.2207Z" fill="#BA4C3F"/>
  </symbol>
</svg>
