<svg xmlns="http://www.w3.org/2000/svg" viewBox="0 0 100 127" version="1.1" width="100" height="127">
  <symbol id="svg-format-potx">
<path d="M95 23V119C95 119.796 94.6839 120.559 94.1213 121.121C93.5587 121.684 92.7956 122 92 122H8C7.20435 122 6.44129 121.684 5.87868 121.121C5.31607 120.559 5 119.796 5 119V8C5 7.20435 5.31607 6.44129 5.87868 5.87868C6.44129 5.31607 7.20435 5 8 5H77L95 23Z" fill="#DD682B"/>
<path opacity="0.2" d="M95 23H80C79.2044 23 78.4413 22.6839 77.8787 22.1213C77.3161 21.5587 77 20.7956 77 20V5L95 23Z" fill="black"/>
<path d="M37.8845 109.465H38.4822C39.0408 109.465 39.4587 109.355 39.7361 109.137C40.0134 108.914 40.1521 108.592 40.1521 108.17C40.1521 107.744 40.0349 107.43 39.8005 107.227C39.5701 107.023 39.2068 106.922 38.7107 106.922H37.8845V109.465ZM41.9861 108.105C41.9861 109.027 41.697 109.732 41.1189 110.221C40.5447 110.709 39.7263 110.953 38.6638 110.953H37.8845V114H36.0681V105.434H38.8044C39.8435 105.434 40.6326 105.658 41.1716 106.107C41.7146 106.553 41.9861 107.219 41.9861 108.105ZM51.3787 109.705C51.3787 111.123 51.0271 112.213 50.324 112.975C49.6208 113.736 48.613 114.117 47.3005 114.117C45.988 114.117 44.9802 113.736 44.2771 112.975C43.574 112.213 43.2224 111.119 43.2224 109.693C43.2224 108.268 43.574 107.18 44.2771 106.43C44.9841 105.676 45.9958 105.299 47.3123 105.299C48.6287 105.299 49.6345 105.678 50.3298 106.436C51.0291 107.193 51.3787 108.283 51.3787 109.705ZM45.1267 109.705C45.1267 110.662 45.3083 111.383 45.6716 111.867C46.0349 112.352 46.5779 112.594 47.3005 112.594C48.7498 112.594 49.4744 111.631 49.4744 109.705C49.4744 107.775 48.7537 106.811 47.3123 106.811C46.5896 106.811 46.0447 107.055 45.6775 107.543C45.3103 108.027 45.1267 108.748 45.1267 109.705ZM56.4587 114H54.6423V106.945H52.3162V105.434H58.7849V106.945H56.4587V114ZM67.0291 114H64.9548L62.9626 110.76L60.9705 114H59.0251L61.8669 109.582L59.2068 105.434H61.2107L63.0564 108.516L64.8669 105.434H66.824L64.1345 109.682L67.0291 114Z" fill="white"/>
<path d="M50 69C54.2435 69 58.3131 67.3143 61.3137 64.3137C64.3143 61.3131 66 57.2435 66 53H50V37C45.7565 37 41.6869 38.6857 38.6863 41.6863C35.6857 44.6869 34 48.7565 34 53C34 57.2435 35.6857 61.3131 38.6863 64.3137C41.6869 67.3143 45.7565 69 50 69Z" fill="white"/>
<path d="M53 34V50H69C69 45.7565 67.3143 41.6869 64.3137 38.6863C61.3131 35.6857 57.2435 34 53 34Z" fill="white"/>
<path d="M75 89H25V91H75V89Z" fill="white"/>
<path d="M75 83H25V85H75V83Z" fill="white"/>
<path d="M75 77H25V79H75V77Z" fill="white"/>
<rect x="15" y="15" width="16" height="14" rx="2" fill="white"/>
<path d="M23.0898 26H21.6895V18.6348H19.1699V17.4336H25.6094V18.6348H23.0898V26Z" fill="#DD682B"/>
  </symbol>
</svg>
