<svg xmlns="http://www.w3.org/2000/svg" viewBox="0 0 100 127" version="1.1" width="100" height="127">
  <symbol id="svg-format-pptx">
<path d="M95 23V119C95 119.796 94.6839 120.559 94.1213 121.121C93.5587 121.684 92.7956 122 92 122H8C7.20435 122 6.44129 121.684 5.87868 121.121C5.31607 120.559 5 119.796 5 119V8C5 7.20435 5.31607 6.44129 5.87868 5.87868C6.44129 5.31607 7.20435 5 8 5H77L95 23Z" fill="#DD682B"/>
<path opacity="0.2" d="M95 23H80C79.2044 23 78.4413 22.6839 77.8787 22.1213C77.3161 21.5587 77 20.7956 77 20V5L95 23Z" fill="black"/>
<path d="M37.8845 109.465H38.4822C39.0408 109.465 39.4587 109.355 39.7361 109.137C40.0134 108.914 40.1521 108.592 40.1521 108.17C40.1521 107.744 40.0349 107.43 39.8005 107.227C39.5701 107.023 39.2068 106.922 38.7107 106.922H37.8845V109.465ZM41.9861 108.105C41.9861 109.027 41.697 109.732 41.1189 110.221C40.5447 110.709 39.7263 110.953 38.6638 110.953H37.8845V114H36.0681V105.434H38.8044C39.8435 105.434 40.6326 105.658 41.1716 106.107C41.7146 106.553 41.9861 107.219 41.9861 108.105ZM45.4197 109.465H46.0173C46.5759 109.465 46.9939 109.355 47.2712 109.137C47.5486 108.914 47.6873 108.592 47.6873 108.17C47.6873 107.744 47.5701 107.43 47.3357 107.227C47.1052 107.023 46.7419 106.922 46.2458 106.922H45.4197V109.465ZM49.5212 108.105C49.5212 109.027 49.2322 109.732 48.6541 110.221C48.0798 110.709 47.2615 110.953 46.199 110.953H45.4197V114H43.6033V105.434H46.3396C47.3787 105.434 48.1677 105.658 48.7068 106.107C49.2498 106.553 49.5212 107.219 49.5212 108.105ZM54.4431 114H52.6267V106.945H50.3005V105.434H56.7693V106.945H54.4431V114ZM65.0134 114H62.9392L60.947 110.76L58.9548 114H57.0095L59.8513 109.582L57.1912 105.434H59.1951L61.0408 108.516L62.8513 105.434H64.8083L62.1189 109.682L65.0134 114Z" fill="white"/>
<path d="M50 69C54.2435 69 58.3131 67.3143 61.3137 64.3137C64.3143 61.3131 66 57.2435 66 53H50V37C45.7565 37 41.6869 38.6857 38.6863 41.6863C35.6857 44.6869 34 48.7565 34 53C34 57.2435 35.6857 61.3131 38.6863 64.3137C41.6869 67.3143 45.7565 69 50 69Z" fill="white"/>
<path d="M53 34V50H69C69 45.7565 67.3143 41.6869 64.3137 38.6863C61.3131 35.6857 57.2435 34 53 34Z" fill="white"/>
<path d="M75 89H25V91H75V89Z" fill="white"/>
<path d="M75 83H25V85H75V83Z" fill="white"/>
<path d="M75 77H25V79H75V77Z" fill="white"/>
  </symbol>
</svg>
