<svg xmlns="http://www.w3.org/2000/svg" viewBox="0 0 100 127" version="1.1" width="100" height="127">
  <symbol id="svg-format-txt">
<path d="M95 23V119C95 119.796 94.6839 120.559 94.1213 121.121C93.5587 121.684 92.7956 122 92 122H8C7.20435 122 6.44129 121.684 5.87868 121.121C5.31607 120.559 5 119.796 5 119V8C5 7.20435 5.31607 6.44129 5.87868 5.87868C6.44129 5.31607 7.20435 5 8 5H77L95 23Z" fill="#7C7C7D"/>
<path opacity="0.2" d="M95 23H80C79.2044 23 78.4413 22.6839 77.8787 22.1213C77.3161 21.5587 77 20.7956 77 20V5L95 23Z" fill="black"/>
<path d="M43.4329 114H41.6165V106.945H39.2903V105.434H45.759V106.945H43.4329V114ZM54.0032 114H51.929L49.9368 110.76L47.9446 114H45.9993L48.8411 109.582L46.1809 105.434H48.1848L50.0305 108.516L51.8411 105.434H53.7981L51.1086 109.682L54.0032 114ZM58.386 114H56.5696V106.945H54.2434V105.434H60.7122V106.945H58.386V114Z" fill="white"/>
<path d="M74 38H25V40H74V38Z" fill="white"/>
<path d="M74 44H25V46H74V44Z" fill="white"/>
<path d="M74 50H25V52H74V50Z" fill="white"/>
<path d="M74 56H25V58H74V56Z" fill="white"/>
<path d="M74 62H25V64H74V62Z" fill="white"/>
<path d="M74 68H25V70H74V68Z" fill="white"/>
<path d="M74 74H25V76H74V74Z" fill="white"/>
<path d="M74 80H25V82H74V80Z" fill="white"/>
<path d="M74 86H25V88H74V86Z" fill="white"/>
  </symbol>
</svg>
