<svg xmlns="http://www.w3.org/2000/svg" viewBox="0 0 100 127" version="1.1" width="100" height="127">
  <symbol id="svg-format-xlsx">
<path d="M95 23V119C95 119.796 94.6839 120.559 94.1213 121.121C93.5587 121.684 92.7956 122 92 122H8C7.20435 122 6.44129 121.684 5.87868 121.121C5.31607 120.559 5 119.796 5 119V8C5 7.20435 5.31607 6.44129 5.87868 5.87868C6.44129 5.31607 7.20435 5 8 5H77L95 23Z" fill="#1F7244"/>
<path opacity="0.2" d="M95 23H80C79.2044 23 78.4413 22.6839 77.8787 22.1213C77.3161 21.5587 77 20.7956 77 20V5L95 23Z" fill="black"/>
<path d="M43.304 114H41.2297L39.2375 110.76L37.2454 114H35.3L38.1418 109.582L35.4817 105.434H37.4856L39.3313 108.516L41.1418 105.434H43.0989L40.4094 109.682L43.304 114ZM44.3821 114V105.434H46.1985V112.5H49.6731V114H44.3821ZM56.2239 111.621C56.2239 112.395 55.9446 113.004 55.386 113.449C54.8313 113.895 54.0579 114.117 53.0657 114.117C52.1516 114.117 51.343 113.945 50.6399 113.602V111.914C51.218 112.172 51.7063 112.354 52.1047 112.459C52.5071 112.564 52.8743 112.617 53.2063 112.617C53.6047 112.617 53.9094 112.541 54.1204 112.389C54.3352 112.236 54.4426 112.01 54.4426 111.709C54.4426 111.541 54.3958 111.393 54.302 111.264C54.2083 111.131 54.0696 111.004 53.886 110.883C53.7063 110.762 53.3372 110.568 52.7786 110.303C52.2551 110.057 51.8625 109.82 51.6008 109.594C51.3391 109.367 51.1301 109.104 50.9739 108.803C50.8176 108.502 50.7395 108.15 50.7395 107.748C50.7395 106.99 50.9954 106.395 51.5071 105.961C52.0227 105.527 52.7336 105.311 53.6399 105.311C54.0852 105.311 54.509 105.363 54.9114 105.469C55.3176 105.574 55.7415 105.723 56.1829 105.914L55.5969 107.326C55.1399 107.139 54.761 107.008 54.4602 106.934C54.1633 106.859 53.8704 106.822 53.5813 106.822C53.2375 106.822 52.9739 106.902 52.7903 107.062C52.6067 107.223 52.5149 107.432 52.5149 107.689C52.5149 107.85 52.552 107.99 52.6262 108.111C52.7004 108.229 52.8176 108.344 52.9778 108.457C53.1418 108.566 53.5266 108.766 54.1321 109.055C54.9329 109.438 55.4817 109.822 55.7786 110.209C56.0754 110.592 56.2239 111.062 56.2239 111.621ZM64.7024 114H62.6282L60.636 110.76L58.6438 114H56.6985L59.5403 109.582L56.8801 105.434H58.884L60.7297 108.516L62.5403 105.434H64.4973L61.8079 109.682L64.7024 114Z" fill="white"/>
<path d="M52.75 61.63L64 45H58.5L50 57.56L41.5 45H36L47.25 61.63L35.5 79H41L50 65.7L59 79H64.5L52.75 61.63Z" fill="white"/>
  </symbol>
</svg>
