<svg xmlns="http://www.w3.org/2000/svg" viewBox="0 0 100 127" version="1.1" width="100" height="127">
  <symbol id="svg-format-xltx">
<path d="M95 23V119C95 119.796 94.6839 120.559 94.1213 121.121C93.5587 121.684 92.7956 122 92 122H8C7.20435 122 6.44129 121.684 5.87868 121.121C5.31607 120.559 5 119.796 5 119V8C5 7.20435 5.31607 6.44129 5.87868 5.87868C6.44129 5.31607 7.20435 5 8 5H77L95 23Z" fill="#1F7244"/>
<path opacity="0.2" d="M95 23H80C79.2044 23 78.4413 22.6839 77.8787 22.1213C77.3161 21.5587 77 20.7956 77 20V5L95 23Z" fill="black"/>
<path d="M43.304 114H41.2297L39.2375 110.76L37.2454 114H35.3L38.1418 109.582L35.4817 105.434H37.4856L39.3313 108.516L41.1418 105.434H43.0989L40.4094 109.682L43.304 114ZM44.3821 114V105.434H46.1985V112.5H49.6731V114H44.3821ZM54.4719 114H52.6555V106.945H50.3293V105.434H56.7981V106.945H54.4719V114ZM65.0422 114H62.968L60.9758 110.76L58.9836 114H57.0383L59.8801 109.582L57.22 105.434H59.2239L61.0696 108.516L62.8801 105.434H64.8372L62.1477 109.682L65.0422 114Z" fill="white"/>
<path d="M52.75 61.63L64 45H58.5L50 57.56L41.5 45H36L47.25 61.63L35.5 79H41L50 65.7L59 79H64.5L52.75 61.63Z" fill="white"/>
<rect x="15" y="15" width="16" height="14" rx="2" fill="white"/>
<path d="M23.0898 26H21.6895V18.6348H19.1699V17.4336H25.6094V18.6348H23.0898V26Z" fill="#1F7244"/>
  </symbol>
</svg>
