<svg xmlns="http://www.w3.org/2000/svg" xmlns:xlink="http://www.w3.org/1999/xlink" viewBox="0 0 152 76"><defs><path id="a" d="M144.9 0h-23.8c-3.9 0-7.1 3.2-7.1 7.1v23.7c0 3.9 3.2 7.1 7.1 7.1h23.8c3.9 0 7.1-3.2 7.1-7.1V7.1c0-3.9-3.2-7.1-7.1-7.1zm1.8 28.3c0 1.3-1.1 2.4-2.4 2.4h-22.4c-1.3 0-2.4-1.1-2.4-2.4V9.7c0-1.3 1.1-2.4 2.4-2.4h22.4c1.3 0 2.4 1.1 2.4 2.4v18.6zM68.9 0H45.1C41.2 0 38 3.2 38 7.1v23.7c0 3.9 3.2 7.1 7.1 7.1h23.7c3.9 0 7.1-3.2 7.1-7.1V7.1c.1-3.9-3.1-7.1-7-7.1zm-1.8 14.6v.7c0 6.9-5.2 14.8-14.8 14.8-2.9 0-5.7-.9-8-2.3.4 0 .8.1 1.2.1 2.4 0 4.7-.8 6.5-2.2-2.3 0-4.2-1.6-4.8-3.6.3 0 .6.1 1 .1.5 0 .8-.1 1.3-.2-2.4-.5-4.3-2.6-4.3-5.1.8.4 1.6.6 2.5.6-1.4-.9-2.3-2.5-2.3-4.3 0-.9.3-1.9.7-2.6 2.6 3.2 6.4 5.2 10.7 5.4-.1-.4-.1-.8-.1-1.2 0-2.9 2.3-5.2 5.2-5.2 1.5 0 2.8.6 3.8 1.6 1.2-.2 2.3-.7 3.3-1.3-.4 1.2-1.2 2.3-2.3 2.9 1.1-.1 2.1-.4 3-.8-.7 1-1.6 1.9-2.6 2.6zM30.9 0H7.1C3.2 0 0 3.2 0 7.1v23.7c0 4 3.2 7.2 7.1 7.2h11.7V26.8h-5.3v-5.7h5.3V17c0-4.8 3.2-7.5 7.9-7.5 2.2 0 4.2.1 4.7.2v5.1h-3.2c-2.6 0-3.1 1.1-3.1 2.7v3.6h6.1l-.8 5.7h-5.3V38h5.7c3.9 0 7.1-3.2 7.1-7.1V7.1c.1-3.9-3.1-7.1-7-7.1zm105.9 20.6c-1.1.9-2.4 2-3.8 2-1.5 0-2.8-1.1-3.8-2l-6-4.8c-.4-.3-.7-.6-1-.9v12.6c0 .2.2.5.4.5h20.7c.2 0 .4-.2.4-.5V14.9c-.3.3-.6.6-1 .9-1.9 1.6-3.9 3.2-5.9 4.8zM106.9 0H83.1C79.2 0 76 3.2 76 7.1v23.7c0 3.9 3.2 7.1 7.1 7.1h23.8c3.9 0 7.1-3.2 7.1-7.1V7.1c0-3.9-3.2-7.1-7.1-7.1zM89.6 28.5c-5.3 0-9.5-4.3-9.5-9.5s4.2-9.5 9.5-9.5c2.5 0 4.7.9 6.4 2.5l-2.6 2.5c-.7-.7-2-1.5-3.8-1.5-3.3 0-5.9 2.7-5.9 6s2.6 6 5.9 6c3.8 0 5.2-2.7 5.4-4.1h-5.4v-3.3h9c.1.5.1 1 .1 1.6 0 5.4-3.7 9.3-9.1 9.3zm20.3-8.1h-2.7v2.7h-2.7v-2.7h-2.7v-2.7h2.7V15h2.7v2.7h2.7v2.7zM143.3 10h-20.7c-.2 0-.4.2-.4.5 0 1.6.8 3 2.1 4 1.9 1.5 3.8 3 5.6 4.5.7.6 2.1 1.9 3.1 1.9s2.3-1.3 3.1-1.9c1.9-1.5 3.7-3 5.6-4.5.9-.7 2.1-2.3 2.1-3.5 0-.4.1-1-.5-1z"/></defs><use xlink:href="#a" fill="#999"/><use xlink:href="#a" fill="#666" y="38"/></svg>