<svg xmlns="http://www.w3.org/2000/svg" xmlns:xlink="http://www.w3.org/1999/xlink" viewBox="88 -11 242 44"><style>.st0{fill:#fff;} .st2{fill-rule:evenodd;clip-rule:evenodd;}</style><g id="XMLID_7_"><path id="XMLID_9_" d="M128 6h-14c-.6 0-1 .4-1 1s.4 1 1 1h14c.6 0 1-.4 1-1s-.4-1-1-1z"/><path id="XMLID_8_" d="M120.1 3.6c.1.1.2.2.4.2.1.1.3.1.5.1s.3-.1.5-.1c.1 0 .3-.1.4-.2l3.5-3.5c.4-.4.4-1 0-1.4s-1-.4-1.4 0l-2 2V-7c0-.6-.4-1-1-1s-1 .4-1 1V.7l-2-2c-.4-.4-1-.4-1.4 0s-.4 1 0 1.4l3.5 3.5z"/></g><path id="XMLID_14_" d="M147.3 3c-.8 0-1.5.3-2.1.8l-4.7-2.7c.1-.3.2-.7.2-1.1s-.1-.8-.2-1.1l4.7-2.7c.6.5 1.3.8 2.1.8 1.7 0 3.1-1.4 3.1-3.1s-1.4-3.1-3.1-3.1-3.1 1.4-3.1 3.1c0 .3 0 .5.1.8l-4.9 2.8c-.5-.4-1.1-.6-1.8-.6-1.7 0-3.1 1.4-3.1 3.1s1.4 3.1 3.1 3.1c.7 0 1.3-.2 1.8-.6l4.8 2.8c-.1.3-.1.5-.1.8 0 1.7 1.4 3.1 3.1 3.1 1.7 0 3.1-1.4 3.1-3.1.1-1.7-1.3-3.1-3-3.1z"/><path d="M159.3 0l4-4c.5-.5.5-1.2 0-1.7s-1.2-.5-1.7 0l-4.4 4.4c-.2 0-.4.1-.6.3-.3.3-.4.7-.3 1 0 .3.1.7.3 1 .2.2.4.3.6.3l4.4 4.4c.5.5 1.2.5 1.7 0s.5-1.2 0-1.7l-4-4zm14.1-1c-.2-.2-.4-.3-.6-.3l-4.4-4.4c-.5-.5-1.2-.5-1.7 0s-.5 1.2 0 1.7l4 4-4 4c-.5.5-.5 1.2 0 1.7s1.2.5 1.7 0l4.4-4.4c.2 0 .4-.1.6-.3.3-.3.4-.7.3-1 .1-.3 0-.7-.3-1z"/><g id="XMLID_4_"><path id="XMLID_21_" d="M194.9-7.3c0-.1-.1-.2-.2-.3-.1-.1-.2-.2-.3-.2-.2-.2-.3-.2-.4-.2h-4.2c-.5 0-.8.4-.8.8 0 .5 1 1.2 1 1.2l.8.8-2.6 2.6c-.4.4-.4 1 0 1.4s1 .4 1.4 0l2.6-2.6 1.3 1.4c.1.2.4.4.7.4.5 0 .8-.4.8-.8V-7c0-.1 0-.2-.1-.3z"/><path id="XMLID_22_" d="M184.4 1.2l-2.6 2.6-1.3-1.4c-.1-.2-.4-.4-.7-.4-.5 0-.8.4-.8.8V7c0 .1 0 .3.1.4 0 .1.1.2.2.3.1.1.2.2.3.2.2.1.3.1.4.1h4.2c.5 0 .8-.4.8-.8S184 6 184 6l-.8-.8 2.6-2.6c.4-.4.4-1 0-1.4-.4-.4-1-.4-1.4 0z"/></g><path id="imgtools" d="M90-6v2h18v-2H90zm0 7h18v-2H90v2zm0 5h18V4H90v2z"/><path id="imgplus" d="M210-8h-2v7h-7v2h7v7h2V1h7v-2h-7v-7z"/><path id="imgminus" d="M223-1h16v2h-16z"/><path id="play" d="M305 0l-16-7V6.9L305 0z"/><path id="rmove" class="st2" d="M279.9-.2L272.1-8 270-5.9l5.8 5.8-5.8 5.9 2.1 2.1 7.8-7.8.1-.2z"/><path id="lmove" class="st2" d="M258-5.8l-2.1-2.1-7.8 7.8-.1.2.1.1 7.8 7.8 2.1-2.1-5.8-5.8z"/><path d="M313-7h4V7h-4zm8 0h4V7h-4z" id="pause"/><use xlink:href="#imgtools" class="st0" y="22"/><use xlink:href="#imgplus" class="st0" y="22"/><use xlink:href="#imgminus" class="st0" y="22"/><use xlink:href="#play" class="st0" y="22" x="2"/><use xlink:href="#pause" class="st0" y="22"/><use xlink:href="#rmove" class="st0" x="1" y="22"/><use xlink:href="#lmove" class="st0" x="-1" y="22"/></svg>