<svg id="Layer_2" xmlns="http://www.w3.org/2000/svg" viewBox="-4 23 100 24"><style>.st0{fill:#5B5B5B;} .st1{fill:#3A3A3A;} .st2{opacity:0.42;fill:#8C8C8C;enable-background:new ;} .st3{opacity:0.72;fill:#9B9B9B;enable-background:new ;} .st4{fill:#9B9B9B;}</style><path class="st0" d="M21.3 35.5c0-1.5.4-2.7 1.3-3.5.9-.8 1.9-1.2 3.1-1.2 1.2 0 2.2.4 3.1 1.2.9.8 1.3 1.9 1.3 3.5 0 1.5-.4 2.7-1.3 3.5-.9.8-1.9 1.2-3.1 1.2-1.2 0-2.2-.4-3.1-1.2-.8-.8-1.3-2-1.3-3.5zm1.9 0c0 1.1.2 1.8.6 2.3.4.5.8.8 1.3.9.1 0 .2 0 .3.1h.6c.1 0 .2 0 .3-.1.5-.1.9-.4 1.3-.9s.6-1.3.6-2.3c0-1-.2-1.8-.6-2.3-.4-.5-.8-.8-1.3-.9-.1 0-.2-.1-.3-.1h-.6c-.1 0-.2 0-.3.1-.5.1-.9.4-1.3.9s-.6 1.2-.6 2.3zm7.8-4.4h2.4l3.1 5.6.5 1.2v-6.8h1.8V40h-2.3l-3.2-5.9-.4-1h-.1l.1 1.6V40H31zm9.3 0h1.9v7.4h3.6V40h-5.5zm4.4 0h2.1l1.8 3 .2.7h.1l.3-.7 1.8-3h2l-3.3 5.2V40H48v-3.7z"/><path class="st1" d="M53.1 35.5c0-1.5.4-2.7 1.3-3.5.9-.8 1.9-1.2 3.1-1.2s2.2.4 3.1 1.2c.9.8 1.3 1.9 1.3 3.5 0 1.5-.4 2.7-1.3 3.5-.9.8-1.9 1.2-3.1 1.2-1.2 0-2.2-.4-3.1-1.2-.9-.8-1.3-2-1.3-3.5zm1.9 0c0 1.1.2 1.8.6 2.3.4.5.8.8 1.3.9.1 0 .2 0 .3.1h.6c.1 0 .2 0 .3-.1.5-.1.9-.4 1.3-.9s.6-1.3.6-2.3c0-1-.2-1.8-.6-2.3s-.8-.8-1.3-.9c-.1 0-.2-.1-.3-.1h-.6s-.2 0-.3.1c-.5.1-.9.4-1.3.9s-.6 1.2-.6 2.3zm7.8-4.4h5v1.5h-3.2v2.1h3.1v1.5h-3.1V40h-1.8zm6.1 0h5v1.5h-3.2v2.1h3v1.5h-3V40h-1.8zm6 8.9v-8.9h1.9V40zM85 31.3v1.6c-.3-.1-.6-.2-1-.3s-.7-.1-1.1-.1c-1 0-1.7.3-2.2.9-.5.6-.8 1.3-.8 2.2s.2 1.6.7 2.2c.5.6 1.2.9 2.1.9.3 0 .7 0 1-.1.4 0 .8-.2 1.2-.3l.1 1.5c-.1 0-.1.1-.2.1s-.2.1-.4.1h-.8c-.3 0-.7.1-1.1.1h-.4c-1-.1-2-.5-2.9-1.2-.9-.7-1.3-1.8-1.3-3.4 0-1.5.4-2.6 1.3-3.5.9-.8 2-1.2 3.4-1.2h1c.3 0 .6.1.9.2.1 0 .1 0 .2.1s.2.1.3.2zm1.1-.2h5.5v1.4H88v2.1h3.2V36H88v2.6h3.6V40h-5.5z"/><path class="st2" d="M7.4 43.1l-7.7-3.7c-.7-.3-.7-.8 0-1.1L2.3 37l5.1 2.4c.7.3 1.7.3 2.4 0l5.1-2.4 2.7 1.3c.7.3.7.8 0 1.1l-7.7 3.7c-.7.3-1.8.3-2.5 0z"/><path class="st3" d="M7.4 38.7L-.3 35c-.7-.3-.7-.8 0-1.1l2.7-1.3L7.5 35c.7.3 1.7.3 2.4 0l5.2-2.4 2.7 1.2c.7.3.7.8 0 1.1L10 38.6c-.8.4-1.9.4-2.6.1z"/><path class="st4" d="M7.4 34.3l-7.7-3.7c-.7-.3-.7-.8 0-1.1l7.7-3.7c.7-.3 1.7-.3 2.4 0l7.7 3.7c.7.3.7.8 0 1.1l-7.7 3.7c-.6.3-1.7.3-2.4 0z"/></svg>