<svg aria-hidden="true" style="position: absolute; width: 0; height: 0; overflow: hidden;" version="1.1" xmlns="http://www.w3.org/2000/svg" xmlns:xlink="http://www.w3.org/1999/xlink">
        <symbol id="svg-icon-accentBorderCallout1" viewBox="0 0 20 20">
            <path d="M17 6h-6v7h6v-7zM18 5v9h-8v-9h8z"></path>
            <path d="M8 5h1v9h-1v-3.715l-4.631 5.052-0.737-0.676 5.369-5.857v-3.805z"></path>
        </symbol>
        <symbol id="svg-icon-accentBorderCallout2" viewBox="0 0 20 20">
            <path d="M18 6h-6v7h6v-7zM19 5v9h-8v-9h8z"></path>
            <path d="M9 5h1v9h-1v-4h-3.703l-2.858 5.239-0.878-0.479 3.142-5.761h4.297v-4z"></path>
        </symbol>
        <symbol id="svg-icon-accentBorderCallout3" viewBox="0 0 20 20">
            <path d="M17 6h-6v7h6v-7zM18 5v9h-8v-9h8z"></path>
            <path d="M8 5h1v9h-1v-4h-4v3.27l3.325 2.85-0.651 0.759-3.675-3.15v-4.73h5v-4z"></path>
        </symbol>
        <symbol id="svg-icon-accentCallout1" viewBox="0 0 20 20">
            <path d="M12 5h-2v1h2v-1zM11 7h-1v2h1v-2zM17 7h1v2h-1v-2zM11 10h-1v2h1v-2zM17 10h1v2h-1v-2zM12 14v-1h-2v1h2zM13 13h2v1h-2v-1zM18 14v-1h-2v1h2zM13 5h2v1h-2v-1zM18 5h-2v1h2v-1z"></path>
            <path d="M8 5h1v9h-1v-3.715l-4.631 5.052-0.737-0.676 5.369-5.857v-3.805z"></path>
        </symbol>
        <symbol id="svg-icon-accentCallout2" viewBox="0 0 20 20">
            <path d="M9 5h1v9h-1v-4h-3.703l-2.858 5.239-0.878-0.479 3.142-5.761h4.297v-4z"></path>
            <path d="M13 5h-2v1h2v-1zM12 7h-1v2h1v-2zM18 7h1v2h-1v-2zM12 10h-1v2h1v-2zM18 10h1v2h-1v-2zM13 14v-1h-2v1h2zM14 13h2v1h-2v-1zM19 14v-1h-2v1h2zM14 5h2v1h-2v-1zM19 5h-2v1h2v-1z"></path>
        </symbol>
        <symbol id="svg-icon-accentCallout3" viewBox="0 0 20 20">
            <path d="M8 4h1v9h-1v-4h-4v3.293l3.354 3.353-0.707 0.707-3.646-3.646v-4.707h5v-4z"></path>
            <path d="M12 4h-2v1h2v-1zM11 6h-1v2h1v-2zM17 6h1v2h-1v-2zM11 9h-1v2h1v-2zM17 9h1v2h-1v-2zM12 13v-1h-2v1h2zM13 12h2v1h-2v-1zM18 13v-1h-2v1h2zM13 4h2v1h-2v-1zM18 4h-2v1h2v-1z"></path>
        </symbol>
        <symbol id="svg-icon-actionButtonBackPrevious" viewBox="0 0 20 20">
            <path d="M17 17h-14v-14h14v14zM18 18v-16h-16v16h16z"></path>
            <path d="M14 15v-10l-9 5 9 5zM13 13.301l-5.941-3.301 5.941-3.3v6.601z"></path>
        </symbol>
        <symbol id="svg-icon-actionButtonBeginning" viewBox="0 0 20 20">
            <path d="M17 3h-14v14h14v-14zM18 2v16h-16v-16h16z"></path>
            <path d="M15 5v10l-8-5 8-5zM14 6.804l-5.113 3.196 5.113 3.196v-6.392z"></path>
            <path d="M5 5h1v10h-1v-10z"></path>
        </symbol>
        <symbol id="svg-icon-actionButtonBlank" viewBox="0 0 20 20">
            <path d="M17 3h-14v14h14v-14zM18 2v16h-16v-16h16z"></path>
        </symbol>
        <symbol id="svg-icon-actionButtonDocument" viewBox="0 0 20 20">
            <path d="M17 3h-14v14h14v-14zM18 2v16h-16v-16h16z"></path>
            <path d="M11 5h-5v10h8v-7l-3-3zM11 6.5l1.5 1.5h-1.5v-1.5zM13 14h-6v-8h3v3h3v5z"></path>
        </symbol>
        <symbol id="svg-icon-actionButtonEnd" viewBox="0 0 20 20">
            <path d="M3 17h14v-14h-14v14zM2 18v-16h16v16h-16z"></path>
            <path d="M5 15v-10l8 5-8 5zM6 13.196l5.113-3.196-5.113-3.196v6.392z"></path>
            <path d="M15 15h-1v-10h1v10z"></path>
        </symbol>
        <symbol id="svg-icon-actionButtonForwardNext" viewBox="0 0 20 20">
            <path fill="none" stroke="#444" style="stroke: var(--color1, #444)" stroke-linejoin="miter" stroke-linecap="butt" stroke-miterlimit="10" stroke-width="1" d="M17.5 17.5v-15h-15v15h15z"></path>
            <path fill="none" stroke="#444" style="stroke: var(--color1, #444)" stroke-linejoin="miter" stroke-linecap="butt" stroke-miterlimit="10" stroke-width="1" d="M13.97 10l-7.47-4.15v8.3l7.47-4.15z"></path>
            <path d="M3 3h14v14h-14v-14zM2 2v16h16v-16h-16z"></path>
            <path d="M6 5v10l9-5-9-5zM7 6.7l5.941 3.3-5.941 3.301v-6.601z"></path>
        </symbol>
        <symbol id="svg-icon-actionButtonHelp" viewBox="0 0 20 20">
            <path fill="none" stroke="#444" style="stroke: var(--color1, #444)" stroke-linejoin="miter" stroke-linecap="butt" stroke-miterlimit="10" stroke-width="1" d="M2.5 17.5v-15h15v15h-15z"></path>
            <path d="M8.809 11.261v-0.533c-0.006-0.447 0.092-0.889 0.286-1.28 0.095-0.32 0.476-0.64 0.952-1.067 0.346-0.198 0.641-0.492 0.857-0.854 0.172-0.203 0.273-0.468 0.286-0.747 0.013-0.153-0.017-0.307-0.085-0.441s-0.172-0.241-0.296-0.306c-0.116-0.116-0.252-0.204-0.399-0.259s-0.303-0.076-0.458-0.061c-0.768 0.078-1.513 0.332-2.19 0.747l-0.762-1.6c0.956-0.607 2.044-0.902 3.142-0.854 0.742-0.047 1.477 0.178 2.094 0.64 0.251 0.232 0.451 0.526 0.583 0.859s0.193 0.697 0.178 1.061c0.019 0.483-0.080 0.962-0.286 1.387-0.336 0.541-0.755 1.011-1.238 1.387-0.292 0.196-0.549 0.449-0.762 0.747-0.082 0.099-0.142 0.218-0.175 0.348s-0.038 0.267-0.015 0.399v0.427h-1.714zM8.618 13.715c-0.012-0.157 0.008-0.315 0.057-0.463s0.127-0.281 0.228-0.391c0.116-0.116 0.252-0.204 0.399-0.259s0.303-0.076 0.458-0.061c0.14-0.006 0.279 0.019 0.41 0.074s0.251 0.139 0.352 0.246c0.118 0.099 0.214 0.228 0.28 0.376s0.101 0.312 0.101 0.477c-0.010 0.364-0.146 0.708-0.381 0.96-0.102 0.108-0.221 0.191-0.352 0.246s-0.27 0.080-0.41 0.074c-0.155 0.015-0.311-0.006-0.458-0.061s-0.283-0.143-0.399-0.259c-0.103-0.13-0.182-0.282-0.231-0.447s-0.068-0.34-0.055-0.513z"></path>
        </symbol>
        <symbol id="svg-icon-actionButtonHome" viewBox="0 0 20 20">
            <path d="M17 3h-14v14h14v-14zM18 2v16h-16v-16h16z"></path>
            <path d="M12 14v-3h-4v3h1v-2h2v2h1z"></path>
            <path d="M5 9v6h10v-10h-2v2l-3-2.5-5 4.5zM14 10v4h-8v-4h8zM13.838 9h-7.343l3.53-3.177 3.813 3.177z"></path>
        </symbol>
        <symbol id="svg-icon-actionButtonInformation" viewBox="0 0 20 20">
            <path d="M17 3v14h-14v-14h14zM2 2v16h16v-16h-16z"></path>
            <path d="M10 15c2.761 0 5-2.239 5-5s-2.239-5-5-5c-2.761 0-5 2.239-5 5s2.239 5 5 5zM16 10c0 3.314-2.686 6-6 6s-6-2.686-6-6c0-3.314 2.686-6 6-6s6 2.686 6 6z"></path>
            <path d="M11.007 7.017l-1.999-0.009-0.009 0.995 1.999 0.009 0.009-0.995z"></path>
            <path d="M8 9h3v2h1v1h-4v-1h1v-1h-1v-1z"></path>
        </symbol>
        <symbol id="svg-icon-actionButtonMovie" viewBox="0 0 20 20">
            <path d="M17 3h-14v14h14v-14zM18 2v16h-16v-16h16z"></path>
            <path d="M14 7v1h-1v-1h-8v4h1v-1h1v3h6v-2h1v1h1v-5h-1zM6 9v-1h4v1h-4zM12 12h-4v-2h3v-2h1v4zM14 10h-1v-1h1v1z"></path>
        </symbol>
        <symbol id="svg-icon-actionButtonReturn" viewBox="0 0 20 20">
            <path d="M17 3h-14v14h14v-14zM18 2v16h-16v-16h16z"></path>
            <path d="M12.5 5l3.5 4h-2v1.5c0 2.485-2.015 4.5-4.5 4.5s-4.5-2.015-4.5-4.5v-1.5h3v1.5c0 0.828 0.672 1.5 1.5 1.5s1.5-0.672 1.5-1.5v-1.5h-2l3.5-4zM13 9v-1h1l-1.5-1.5-1.5 1.5h1v2.5c0 1.381-1.119 2.5-2.5 2.5s-2.5-1.119-2.5-2.5v-0.5h-1v0.5c0 1.933 1.567 3.5 3.5 3.5s3.5-1.567 3.5-3.5v-1.5z"></path>
        </symbol>
        <symbol id="svg-icon-actionButtonSound" viewBox="0 0 20 20">
            <path d="M17 3h-14v14h14v-14zM18 2v16h-16v-16h16z"></path>
            <path d="M8 8h-3v4h3l3 3v-10l-3 3zM10 12.5l-1.5-1.5h-2.5v-2h2.5l1.5-1.5v5z"></path>
            <path d="M15 9h-3v1h3v-1z"></path>
            <path d="M13.556 4l-1.556 1.556 0.707 0.707 1.556-1.556-0.707-0.707z"></path>
            <path d="M14.263 14.556l-1.556-1.556-0.707 0.707 1.556 1.556 0.707-0.707z"></path>
        </symbol>
        <symbol id="svg-icon-arc" viewBox="0 0 20 20">
            <path d="M3.491 4.163c-0.581-0.068-1.088-0.105-1.491-0.124v-1.040c0.432 0.020 0.98 0.058 1.611 0.132 1.582 0.185 3.701 0.594 5.827 1.491s4.279 2.291 5.9 4.455c1.477 1.972 2.49 4.555 2.662 7.923h-1.035c-0.171-3.152-1.119-5.517-2.453-7.299-1.482-1.979-3.465-3.274-5.474-4.121s-4.026-1.238-5.546-1.417z"></path>
        </symbol>
        <symbol id="svg-icon-bentArrow" viewBox="0 0 20 20">
            <path d="M13 8v2l3.333-2.5-3.333-2.5v2h-7c-1.105 0-2 0.895-2 2v7h1v-6c0-1.105 0.895-2 2-2h6zM12 3l6 4.5-6 4.5v-3h-5c-0.552 0-1 0.448-1 1v7h-3v-8c0-1.657 1.343-3 3-3h6v-3z"></path>
        </symbol>
        <symbol id="svg-icon-bentConnector5" viewBox="0 0 20 20">
            <path d="M9 5h-7v-1h8v11h8v1h-9v-11z"></path>
        </symbol>
        <symbol id="svg-icon-bentConnector5WithArrow" viewBox="0 0 20 20">
            <path d="M2 4h6v11h7.793l-1.147 1.146 0.707 0.707 2.353-2.354-2.353-2.354-0.707 0.707 1.147 1.146h-6.793v-11h-7v1z"></path>
        </symbol>
        <symbol id="svg-icon-bentConnector5WithTwoArrows" viewBox="0 0 20 20">
            <path d="M4.646 1.646l0.707 0.707-1.646 1.646h6.293v11h6.293l-1.146-1.146 0.707-0.707 2.353 2.353-2.353 2.354-0.707-0.707 1.146-1.147h-7.293v-11h-5.293l1.646 1.646-0.707 0.707-2.854-2.854 2.854-2.854z"></path>
        </symbol>
        <symbol id="svg-icon-bentUpArrow" viewBox="0 0 20 20">
            <path d="M14 8v9h-11v-3h8v-6h-3l4.5-5 4.5 5h-3zM13 16v-9h1.755l-2.255-2.505-2.255 2.505h1.755v8h-8v1h9z"></path>
        </symbol>
        <symbol id="svg-icon-bevel" viewBox="0 0 20 20">
            <path d="M14.293 15h-8.586l-2 2h12.586l-2-2zM5 14.293v-8.586l-2-2v12.586l2-2zM14.293 5l2-2h-12.586l2 2h8.586zM15 5.707v8.586l2 2v-12.586l-2 2zM2 2h16v16h-16v-16zM14 14v-8h-8v8h8z"></path>
        </symbol>
        <symbol id="svg-icon-blockArc" viewBox="0 0 20 20">
            <path d="M17.938 13c0.041 0.328 0.062 0.661 0.062 1h-4c0-2.209-1.791-4-4-4s-4 1.791-4 4h-4c0-0.339 0.021-0.672 0.062-1 0.492-3.946 3.858-7 7.938-7s7.446 3.054 7.938 7zM3.071 13h2.029c0.463-2.282 2.481-4 4.9-4s4.437 1.718 4.9 4h2.029c-0.485-3.392-3.403-6-6.929-6s-6.444 2.608-6.929 6z"></path>
        </symbol>
        <symbol id="svg-icon-borderCallout1" viewBox="0 0 20 20">
            <path d="M9 5h9v9h-10v-3.715l-4.631 5.052-0.737-0.676 5.369-5.857v-3.805h1zM9 13h8v-7h-8v7z"></path>
        </symbol>
        <symbol id="svg-icon-borderCallout2" viewBox="0 0 20 20">
            <path d="M10 5h9v9h-10v-4h-3.703l-2.858 5.239-0.878-0.479 3.142-5.761h4.297v-4h1zM10 13h8v-7h-8v7z"></path>
        </symbol>
        <symbol id="svg-icon-borderCallout3" viewBox="0 0 20 20">
            <path d="M9 5h9v9h-10v-4h-4v3.27l3.325 2.85-0.651 0.759-3.675-3.15v-4.73h5v-4h1zM9 13h8v-7h-8v7z"></path>
        </symbol>
        <symbol id="svg-icon-bracePair" viewBox="0 0 20 20">
            <path d="M13 16.125c0.438-0.171 0.81-0.493 1.057-0.916s0.355-0.922 0.307-1.418v-1.556c-0.042-0.457 0.049-0.918 0.261-1.318s0.533-0.721 0.921-0.918c-0.388-0.198-0.71-0.518-0.921-0.918s-0.303-0.86-0.261-1.318v-1.458c0-1.361-0.454-2.139-1.364-2.431l0.182-0.875c0.695 0.202 1.324 0.606 1.818 1.167 0.382 0.636 0.573 1.383 0.546 2.139v1.458c0 1.167 0.545 1.75 1.454 1.75v0.972c-0.909 0-1.454 0.583-1.454 1.75v1.458c0.027 0.756-0.163 1.502-0.546 2.139-0.507 0.543-1.132 0.944-1.818 1.167l-0.182-0.875z"></path>
            <path d="M7.4 3.9c-0.482 0.176-0.891 0.507-1.163 0.942s-0.39 0.948-0.337 1.458v1.6c0.046 0.471-0.054 0.944-0.287 1.355s-0.586 0.741-1.013 0.945c0.427 0.203 0.781 0.533 1.013 0.945s0.333 0.885 0.287 1.355v1.5c0 1.4 0.5 2.2 1.5 2.5l-0.2 0.9c-0.764-0.208-1.457-0.623-2-1.2-0.421-0.655-0.63-1.423-0.6-2.2v-1.5c0-1.2-0.6-1.8-1.6-1.8v-1c1 0 1.6-0.6 1.6-1.8v-1.5c-0.030-0.777 0.179-1.545 0.6-2.2 0.558-0.558 1.245-0.971 2-1.2l0.2 0.9z"></path>
        </symbol>
        <symbol id="svg-icon-callout1" viewBox="0 0 20 20">
            <path d="M8 5h1v1h-1v-1zM8 7h1v2h-1v1h1v2h-1v-1.715l-4.631 5.052-0.737-0.676 5.369-5.857v-1.805zM8 13v1h1v-1h-1zM10 5h2v1h-2v-1zM18 7h-1v2h1v-2zM18 10h-1v2h1v-2zM12 13v1h-2v-1h2zM15 13h-2v1h2v-1zM18 13v1h-2v-1h2zM15 5h-2v1h2v-1zM16 5h2v1h-2v-1z"></path>
        </symbol>
        <symbol id="svg-icon-callout2" viewBox="0 0 20 20">
            <path d="M9 5h1v1h-1v-1zM9 7h1v2h-1v-2zM9 10h-3.703l-2.858 5.239-0.878-0.479 3.142-5.761h4.297v1zM9 10h1v2h-1v-2zM9 13h1v1h-1v-1zM11 5h2v1h-2v-1zM19 7h-1v2h1v-2zM19 10h-1v2h1v-2zM13 13v1h-2v-1h2zM16 13h-2v1h2v-1zM19 13v1h-2v-1h2zM16 5h-2v1h2v-1zM17 5h2v1h-2v-1z"></path>
        </symbol>
        <symbol id="svg-icon-callout3" viewBox="0 0 20 20">
            <path d="M8 4h1v1h-1v-1zM8 6h1v2h-1v1h-4v3.293l3.354 3.353-0.707 0.707-3.646-3.646v-4.707h5v-2zM8 9v2h1v-2h-1zM8 13v-1h1v1h-1zM10 4h2v1h-2v-1zM18 6h-1v2h1v-2zM18 9h-1v2h1v-2zM12 12v1h-2v-1h2zM15 12h-2v1h2v-1zM18 12v1h-2v-1h2zM15 4h-2v1h2v-1zM16 4h2v1h-2v-1z"></path>
        </symbol>
        <symbol id="svg-icon-can" viewBox="0 0 20 20">
            <path d="M10 17c1.228 0 2.321-0.253 3.070-0.622 0.813-0.401 0.93-0.769 0.93-0.878v-10.5c-0.912 0.607-2.364 1-4 1s-3.088-0.393-4-1v10.5c0 0.109 0.117 0.477 0.93 0.878 0.749 0.369 1.842 0.622 3.070 0.622zM6 3.5c0 0.108 0.113 0.474 0.912 0.873 0.739 0.369 1.829 0.627 3.088 0.627s2.35-0.257 3.088-0.627c0.798-0.399 0.912-0.766 0.912-0.873 0-0.109-0.117-0.477-0.93-0.878-0.749-0.369-1.842-0.622-3.070-0.622s-2.321 0.252-3.070 0.622c-0.813 0.401-0.93 0.769-0.93 0.878zM5 3.5c0-1.381 2.239-2.5 5-2.5 2.694 0 4.89 1.065 4.996 2.399 0.003 0.034 0.004 0.067 0.004 0.101v12c0 1.4-2.3 2.5-5 2.5s-5-1.1-5-2.5v-12z"></path>
        </symbol>
        <symbol id="svg-icon-chevron" viewBox="0 0 20 20">
            <path d="M3 15l5.891-5.5-5.891-5.5h8l6 5.5-6 5.5h-8zM5.536 5l4.82 4.5-4.82 4.5h5.075l4.909-4.5-4.909-4.5h-5.075z"></path>
        </symbol>
        <symbol id="svg-icon-chord" viewBox="0 0 20 20">
            <path d="M7.333 3.231l9.436 9.435c-0.464 1.076-1.185 2.022-2.098 2.755s-1.993 1.232-3.144 1.452c-1.151 0.22-2.338 0.156-3.458-0.189s-2.139-0.957-2.968-1.786c-0.829-0.828-1.442-1.847-1.786-2.967s-0.409-2.307-0.189-3.458c0.22-1.151 0.719-2.23 1.452-3.144s1.68-1.634 2.756-2.098zM7.538 2c-1.614 0.57-3.012 1.625-4.003 3.020s-1.528 3.062-1.535 4.774c-0 1.951 0.695 3.839 1.96 5.324s3.020 2.47 4.946 2.779c1.927 0.309 3.901-0.079 5.567-1.094s2.917-2.591 3.526-4.445l-10.462-10.358z"></path>
        </symbol>
        <symbol id="svg-icon-circularArrow" viewBox="0 0 20 20">
            <path d="M13 11.4h-2.108l2.608 3.825 2.608-3.825h-2.108v-2.4c0-2.761-2.239-5-5-5s-5 2.239-5 5v6h1v-6c0-2.209 1.791-4 4-4s4 1.791 4 4v2.4zM18 10.4l-4.5 6.6-4.5-6.6h3v-1.4c0-1.657-1.343-3-3-3s-3 1.343-3 3v7h-3v-7c0-3.314 2.686-6 6-6s6 2.686 6 6v1.4h3z"></path>
        </symbol>
        <symbol id="svg-icon-cloud" viewBox="0 0 20 20">
            <path d="M12.001 7.224l0.749-0.192c0.079-0.020 0.163-0.031 0.251-0.031 0.552 0 1 0.448 1 1l-0 0.018-0.020 1.174 1.162-0.166c0.117-0.017 0.236-0.025 0.359-0.025 1.381 0 2.5 1.119 2.5 2.5s-1.119 2.5-2.5 2.5c-0.511 0-0.983-0.152-1.377-0.413l-0.963-0.637-0.493 1.044c-0.562 1.188-1.769 2.007-3.167 2.007-1.118 0-2.114-0.523-2.756-1.343l-0.646-0.824-0.793 0.683c-0.351 0.302-0.805 0.484-1.304 0.484-1.105 0-2-0.895-2-2 0-0.707 0.366-1.329 0.924-1.686l0.796-0.51-0.464-0.824c-0.163-0.289-0.256-0.622-0.256-0.98 0-1.105 0.895-2 2-2 0.117 0 0.231 0.010 0.342 0.029l0.695 0.119 0.346-0.615c0.515-0.917 1.495-1.533 2.618-1.533 1.128 0 2.113 0.623 2.626 1.548l0.375 0.676zM16 8.035c-0.163-0.023-0.33-0.035-0.5-0.035s-0.337 0.012-0.5 0.035c0-0.012 0-0.024 0-0.035 0-0.208-0.032-0.409-0.091-0.598-0.254-0.812-1.013-1.402-1.909-1.402-0.172 0-0.34 0.022-0.499 0.063-0.682-1.23-1.994-2.063-3.501-2.063-1.498 0-2.804 0.824-3.49 2.043-0.166-0.028-0.336-0.043-0.51-0.043-1.657 0-3 1.343-3 3 0 0.535 0.14 1.037 0.385 1.471-0.833 0.533-1.385 1.466-1.385 2.529 0 1.657 1.343 3 3 3 0.648 0 1.248-0.205 1.738-0.555 0.075-0.054 0.148-0.111 0.218-0.171 0.086 0.109 0.176 0.214 0.271 0.315 0.82 0.868 1.983 1.411 3.272 1.411 1.44 0 2.722-0.676 3.545-1.728 0.205-0.262 0.382-0.547 0.526-0.851 0.275 0.182 0.578 0.327 0.901 0.426 0.325 0.1 0.671 0.154 1.029 0.154 1.933 0 3.5-1.567 3.5-3.5 0-1.763-1.304-3.222-3-3.465z"></path>
        </symbol>
        <symbol id="svg-icon-cloudCallout" viewBox="0 0 20 20">
            <path d="M5 15v-1h-1v2h2v-1h-1z"></path>
            <path d="M3 17v-1h-1v2h2v-1h-1z"></path>
            <path d="M14.613 7.795l0.689 0.437c0.422 0.268 0.698 0.736 0.698 1.268 0 0.828-0.672 1.5-1.5 1.5-0.232 0-0.448-0.052-0.642-0.143l-0.75-0.356-0.488 0.672c-0.365 0.503-0.955 0.827-1.62 0.827-0.695 0-1.307-0.353-1.667-0.895l-0.833-1.252-0.833 1.252c-0.36 0.542-0.973 0.895-1.667 0.895-1.105 0-2-0.895-2-2 0-0.752 0.414-1.408 1.032-1.751l1.128-0.625-0.886-0.937c-0.17-0.18-0.273-0.421-0.273-0.687 0-0.552 0.448-1 1-1 0.056 0 0.111 0.005 0.163 0.013l0.748 0.122 0.32-0.687c0.398-0.857 1.266-1.448 2.269-1.448 1.030 0 1.917 0.623 2.3 1.518l0.361 0.843 0.871-0.286c0.146-0.048 0.303-0.074 0.469-0.074 0.828 0 1.5 0.672 1.5 1.5 0 0.189-0.035 0.368-0.097 0.533l-0.29 0.762zM3.764 8c-0.475 0.531-0.764 1.232-0.764 2 0 1.657 1.343 3 3 3 0.675 0 1.299-0.223 1.8-0.6 0.273-0.205 0.51-0.456 0.7-0.741 0.19 0.285 0.427 0.536 0.7 0.741 0.501 0.377 1.125 0.6 1.8 0.6 0.999 0 1.885-0.489 2.43-1.24 0.324 0.154 0.687 0.24 1.070 0.24 1.381 0 2.5-1.119 2.5-2.5 0-0.889-0.464-1.669-1.162-2.112 0.105-0.276 0.162-0.575 0.162-0.888 0-1.381-1.119-2.5-2.5-2.5-0.273 0-0.535 0.044-0.781 0.124-0.534-1.249-1.775-2.124-3.219-2.124-1.406 0-2.619 0.83-3.175 2.026-0.106-0.017-0.214-0.026-0.325-0.026-1.105 0-2 0.895-2 2 0 0.174 0.022 0.342 0.064 0.503 0.086 0.332 0.255 0.63 0.484 0.872-0.295 0.164-0.56 0.376-0.783 0.625z"></path>
        </symbol>
        <symbol id="svg-icon-corner" viewBox="0 0 20 20">
            <path d="M10 11h8v7h-16v-16h8v9zM17 12h-8v-9h-6v14h14v-5z"></path>
        </symbol>
        <symbol id="svg-icon-cube" viewBox="0 0 20 20">
            <path d="M6 3l-4 4v11h11l4-4v-11h-11zM6.5 4h9l-3 3h-9l3-3zM3 17v-9h9v9h-9zM13 16.5v-8.5l3-3v8.5l-3 3z"></path>
        </symbol>
        <symbol id="svg-icon-curvedConnector3" viewBox="0 0 20 20">
            <path d="M6 4h3.5c1.235 0 2.421 0.909 2.792 2.171 0.389 1.323-0.131 2.9-2.002 4.235-1.63 1.164-1.859 2.337-1.623 3.139 0.254 0.863 1.068 1.454 1.833 1.454h3.5v1h-3.5c-1.235 0-2.421-0.909-2.792-2.171-0.389-1.323 0.131-2.899 2.002-4.235 1.63-1.164 1.859-2.337 1.623-3.14-0.254-0.863-1.068-1.454-1.833-1.454h-3.5v-1z"></path>
        </symbol>
        <symbol id="svg-icon-curvedConnector3WithArrow" viewBox="0 0 20 20">
            <path d="M9.5 4h-3.5v1h3.5c0.765 0 1.579 0.591 1.833 1.454 0.236 0.802 0.006 1.975-1.623 3.14-1.87 1.336-2.391 2.913-2.002 4.235 0.371 1.262 1.557 2.171 2.792 2.171h2.793l-1.146 1.147 0.707 0.707 2.353-2.354-2.353-2.353-0.707 0.707 1.146 1.146h-2.793c-0.765 0-1.579-0.591-1.833-1.454-0.236-0.802-0.006-1.976 1.623-3.139 1.87-1.336 2.391-2.913 2.002-4.235-0.371-1.262-1.557-2.171-2.792-2.171z"></path>
        </symbol>
        <symbol id="svg-icon-curvedConnector3WithTwoArrows" viewBox="0 0 20 20">
            <path d="M7.646 1.646l0.707 0.707-1.646 1.646h2.793c1.235 0 2.421 0.909 2.792 2.171 0.389 1.323-0.131 2.9-2.002 4.235-1.63 1.164-1.859 2.337-1.623 3.139 0.254 0.863 1.068 1.454 1.833 1.454h2.793l-1.146-1.146 0.707-0.707 2.353 2.353-2.353 2.354-0.707-0.707 1.146-1.147h-2.793c-1.235 0-2.421-0.909-2.792-2.171-0.389-1.323 0.131-2.899 2.002-4.235 1.63-1.164 1.859-2.337 1.623-3.14-0.254-0.863-1.068-1.454-1.833-1.454h-2.793l1.646 1.646-0.707 0.707-2.854-2.854 2.854-2.854z"></path>
        </symbol>
        <symbol id="svg-icon-curvedDownArrow" viewBox="0 0 20 20">
            <path d="M2 14l0.022-0.521c0.104-2.449 0.913-4.923 1.965-6.295 1.034-1.349 2.364-2.183 3.534-2.183h4c0.464 0 0.937 0.2 1.369 0.492 0.439 0.296 0.878 0.715 1.284 1.22 0.776 0.967 1.461 2.289 1.795 3.788h2.031l-4 4.5-4-4.5h2.019c-0.031-0.984-0.291-2.103-0.783-2.98-0.524-0.934-1.26-1.52-2.214-1.52-0.417 0-0.804 0.199-1.172 0.611-0.374 0.419-0.701 1.029-0.971 1.762-0.539 1.462-0.808 3.782-0.857 5.145l-0.017 0.482h-4.004zM6.983 6.087c-0.666 0.201-1.473 0.754-2.202 1.705-0.85 1.109-1.546 3.203-1.725 5.208h1.991c0.091-1.368 0.371-3.557 0.893-4.973 0.268-0.726 0.609-1.408 1.042-1.94zM11.343 6c0.3 0.303 0.554 0.655 0.765 1.030 0.624 1.112 0.914 2.5 0.914 3.67v0.8h-0.793l1.771 2.086 1.815-2.086h-0.793v-0.65c-0.288-1.398-0.921-2.632-1.627-3.512-0.357-0.445-0.724-0.789-1.063-1.017-0.346-0.234-0.623-0.321-0.809-0.321h-0.179z"></path>
        </symbol>
        <symbol id="svg-icon-curvedLeftArrow" viewBox="0 0 20 20">
            <path d="M6 2l0.521 0.022c2.449 0.104 4.923 0.913 6.296 1.965 1.348 1.034 2.183 2.364 2.183 3.534v4c0 0.464-0.201 0.937-0.492 1.369-0.297 0.439-0.715 0.878-1.22 1.284-0.967 0.776-2.289 1.461-3.788 1.795l-0 2.031-4.5-4 4.5-4v2.019c0.984-0.031 2.103-0.291 2.98-0.783 0.934-0.524 1.52-1.26 1.52-2.214 0-0.417-0.199-0.804-0.611-1.172-0.419-0.374-1.029-0.701-1.762-0.971-1.462-0.539-3.782-0.808-5.145-0.857l-0.482-0.017v-4.004zM13.913 6.983c-0.201-0.666-0.754-1.473-1.705-2.202-1.109-0.85-3.203-1.546-5.208-1.725v1.991c1.368 0.091 3.557 0.371 4.973 0.893 0.726 0.268 1.408 0.609 1.94 1.042zM14 11.343c-0.303 0.3-0.655 0.554-1.030 0.765-1.112 0.624-2.5 0.914-3.67 0.914h-0.8v-0.793l-2.086 1.771 2.086 1.815v-0.793h0.65c1.398-0.288 2.632-0.921 3.512-1.627 0.445-0.357 0.789-0.724 1.017-1.063 0.234-0.346 0.321-0.623 0.321-0.809v-0.179z"></path>
        </symbol>
        <symbol id="svg-icon-curvedRightArrow" viewBox="0 0 20 20">
            <path d="M14 2l-0.521 0.022c-2.449 0.104-4.923 0.913-6.295 1.965-1.349 1.034-2.183 2.364-2.183 3.534v4c0 0.464 0.2 0.937 0.492 1.369 0.296 0.439 0.715 0.878 1.22 1.284 0.967 0.776 2.289 1.461 3.788 1.795v2.031l4.5-4-4.5-4v2.019c-0.984-0.031-2.103-0.291-2.98-0.783-0.934-0.524-1.52-1.26-1.52-2.214 0-0.417 0.199-0.804 0.611-1.172 0.419-0.374 1.029-0.701 1.762-0.971 1.462-0.539 3.782-0.808 5.145-0.857l0.482-0.017v-4.004zM6.087 6.983c0.201-0.666 0.754-1.473 1.705-2.202 1.109-0.85 3.203-1.546 5.208-1.725v1.991c-1.368 0.091-3.557 0.371-4.973 0.893-0.726 0.268-1.408 0.609-1.94 1.042zM6 11.343c0.303 0.3 0.655 0.554 1.030 0.765 1.112 0.624 2.5 0.914 3.67 0.914h0.8v-0.793l2.086 1.771-2.086 1.815v-0.793h-0.65c-1.398-0.288-2.632-0.921-3.512-1.627-0.445-0.357-0.789-0.724-1.017-1.063-0.234-0.346-0.321-0.623-0.321-0.809v-0.179z"></path>
        </symbol>
        <symbol id="svg-icon-curvedUpArrow" viewBox="0 0 20 20">
            <path d="M2 6l0.022 0.521c0.104 2.449 0.913 4.923 1.965 6.296 1.034 1.348 2.364 2.183 3.534 2.183h4c0.464 0 0.937-0.2 1.369-0.492 0.439-0.297 0.878-0.715 1.284-1.22 0.776-0.967 1.461-2.289 1.795-3.788l2.031-0-4-4.5-4 4.5h2.019c-0.031 0.984-0.291 2.103-0.783 2.98-0.524 0.934-1.26 1.52-2.214 1.52-0.417 0-0.804-0.199-1.172-0.611-0.374-0.419-0.701-1.029-0.971-1.762-0.539-1.462-0.808-3.782-0.857-5.145l-0.017-0.482h-4.004zM6.983 13.913c-0.666-0.201-1.473-0.754-2.202-1.705-0.85-1.108-1.546-3.203-1.725-5.208h1.991c0.091 1.368 0.371 3.557 0.893 4.973 0.268 0.726 0.609 1.408 1.042 1.94zM11.343 14c0.3-0.303 0.554-0.655 0.765-1.030 0.624-1.112 0.914-2.5 0.914-3.67v-0.8h-0.793l1.771-2.086 1.815 2.086h-0.793v0.65c-0.288 1.398-0.921 2.632-1.627 3.512-0.357 0.445-0.724 0.789-1.063 1.017-0.346 0.234-0.623 0.321-0.809 0.321h-0.179z"></path>
        </symbol>
        <symbol id="svg-icon-decagon" viewBox="0 0 20 20">
            <path d="M7.214 17h5.572l4.214-4.214v-5.572l-4.214-4.214h-5.572l-4.214 4.214v5.572l4.214 4.214zM13.2 18h-6.4l-4.8-4.8v-6.4l4.8-4.8h6.4l4.8 4.8v6.4l-4.8 4.8z"></path>
            <path d="M9 7v6h4v-6h-4zM12 12h-2v-4h2v4z"></path>
            <path d="M7 7v1h-1v1h1v4h1v-6h-1z"></path>
        </symbol>
        <symbol id="svg-icon-diagStripe" viewBox="0 0 20 20">
            <path d="M3 12.414l9.414-9.414h4.586v0.586l-13.414 13.414h-0.586v-4.586zM2 12v6h2l14-14v-2h-6l-10 10z"></path>
        </symbol>
        <symbol id="svg-icon-diamond" viewBox="0 0 20 20">
            <path d="M10 3.414l6.586 6.586-6.586 6.586-6.586-6.586 6.586-6.586zM2 10l8 8 8-8-8-8-8 8z"></path>
        </symbol>
        <symbol id="svg-icon-dodecagon" viewBox="0 0 20 20">
            <path d="M7.214 17h5.572l4.214-4.214v-5.572l-4.214-4.214h-5.572l-4.214 4.214v5.572l4.214 4.214zM13.2 18h-6.4l-4.8-4.8v-6.4l4.8-4.8h6.4l4.8 4.8v6.4l-4.8 4.8z"></path>
            <path d="M8 8v1h-1v1h1v3h1v-5h-1z"></path>
            <path d="M12.682 8.318c0.183 0.183 0.296 0.424 0.318 0.682v1h-1v-1h-2v-1h2c0.258 0.023 0.499 0.135 0.682 0.318zM11 11v-1h1v1h-1zM11 11v1h2v1h-3v-2h1z"></path>
        </symbol>
        <symbol id="svg-icon-donut" viewBox="0 0 20 20">
            <path d="M10 17c-3.866 0-7-3.134-7-7s3.134-7 7-7c3.866 0 7 3.134 7 7s-3.134 7-7 7zM10 18c4.418 0 8-3.582 8-8s-3.582-8-8-8c-4.418 0-8 3.582-8 8s3.582 8 8 8z"></path>
            <path d="M10 14c-2.209 0-4-1.791-4-4s1.791-4 4-4c2.209 0 4 1.791 4 4s-1.791 4-4 4zM10 15c2.761 0 5-2.239 5-5s-2.239-5-5-5c-2.761 0-5 2.239-5 5s2.239 5 5 5z"></path>
        </symbol>
        <symbol id="svg-icon-doubleWave" viewBox="0 0 20 20">
            <path d="M3 14.041c0.167-0.027 0.334-0.041 0.5-0.041 0.603 0 1.123 0.202 1.55 0.433 0.367 0.199 0.724 0.454 1.029 0.671 0.039 0.028 0.076 0.055 0.113 0.081 0.725 0.515 1.233 0.815 1.809 0.815 0.361 0 0.577-0.080 0.737-0.174 0.186-0.109 0.346-0.264 0.594-0.521 0.013-0.014 0.027-0.028 0.041-0.042 0.221-0.229 0.531-0.551 0.932-0.8 0.461-0.286 1.010-0.463 1.696-0.463 0.688 0 1.232 0.179 1.683 0.488 0.357 0.245 0.633 0.565 0.817 0.778 0.023 0.027 0.045 0.053 0.066 0.076 0.207 0.237 0.347 0.374 0.524 0.473 0.163 0.091 0.427 0.186 0.911 0.186 0.216 0 0.502-0.107 0.75-0.306 0.118-0.094 0.197-0.186 0.239-0.251 0.004-0.007 0.008-0.013 0.011-0.018v-8.465c-0.166 0.026-0.333 0.039-0.5 0.039-0.606 0-1.121-0.204-1.542-0.439-0.346-0.193-0.685-0.442-0.973-0.652-0.047-0.034-0.092-0.068-0.136-0.099-0.686-0.499-1.202-0.809-1.849-0.809-0.56 0-0.803 0.218-1.293 0.707-0.009 0.009-0.017 0.017-0.026 0.026-0.51 0.511-1.266 1.267-2.681 1.267-0.688 0-1.232-0.179-1.683-0.488-0.357-0.245-0.633-0.565-0.817-0.778-0.023-0.027-0.045-0.053-0.066-0.076-0.207-0.237-0.347-0.374-0.524-0.473-0.163-0.091-0.427-0.186-0.911-0.186-0.315 0-0.61 0.098-0.802 0.232-0.185 0.129-0.198 0.228-0.198 0.268v8.541zM3 15.059c-0.355 0.080-0.711 0.238-1 0.441v-10c0-0.9 1-1.5 2-1.5 1.32 0 1.803 0.557 2.26 1.083 0.409 0.471 0.796 0.917 1.74 0.917 1 0 1.5-0.5 2-1s1-1 2-1c1.072 0 1.856 0.574 2.585 1.108 0.631 0.462 1.219 0.892 1.915 0.892 0.164 0 0.332-0.019 0.5-0.056 0.345-0.075 0.69-0.226 1-0.444v10c0 0.6-1 1.5-2 1.5-1.32 0-1.803-0.557-2.26-1.083-0.408-0.471-0.796-0.917-1.74-0.917-0.984 0-1.452 0.484-1.927 0.976-0.491 0.508-0.99 1.024-2.073 1.024-0.984 0-1.765-0.556-2.502-1.082-0.661-0.471-1.288-0.918-1.998-0.918-0.161 0-0.331 0.021-0.5 0.059z"></path>
        </symbol>
        <symbol id="svg-icon-downArrow" viewBox="0 0 20 20">
            <path d="M8 9h-3l5.5 7.333 5.5-7.333h-3v-6h-5v6zM18 8l-7.5 10-7.5-10h4v-6h7v6h4z"></path>
        </symbol>
        <symbol id="svg-icon-downArrowCallout" viewBox="0 0 20 20">
            <path d="M12 10h4v-7h-11v7h4v4h-1.413l2.913 2.648 2.913-2.648h-1.413v-4zM16 13l-5.5 5-5.5-5h3v-2h-4v-9h13v9h-4v2h3z"></path>
        </symbol>
        <symbol id="svg-icon-ellipse" viewBox="0 0 20 20">
            <path d="M10 5c3.9 0 7 2.2 7 5s-3.1 5-7 5c-3.9 0-7-2.2-7-5s3.1-5 7-5zM10 4c-4.4 0-8 2.7-8 6s3.6 6 8 6c4.4 0 8-2.7 8-6s-3.6-6-8-6z"></path>
        </symbol>
        <symbol id="svg-icon-ellipseRibbon" viewBox="0 0 20 20">
            <path d="M4.566 9l-1.8-3h3.234v6h-3.234l1.8-3zM7 8.436c0.848 0.364 1.897 0.564 3 0.564s2.152-0.199 3-0.564v4.314c0 0.1-0.082 0.393-0.662 0.719-0.548 0.308-1.373 0.531-2.338 0.531s-1.79-0.222-2.338-0.531c-0.58-0.326-0.662-0.62-0.662-0.719v-4.314zM14 6h3.234l-1.8 3 1.8 3h-3.234v-6zM13.976 13h5.024l-2.4-4 2.4-4h-7c-0.552 0-1 0.448-1 1v1.937c-0.32 0.041-0.655 0.063-1 0.063s-0.68-0.022-1-0.063v-1.937c0-0.552-0.448-1-1-1h-7l2.4 4-2.4 4h5.024c0.221 1.125 1.917 2 3.976 2s3.754-0.875 3.976-2z"></path>
        </symbol>
        <symbol id="svg-icon-ellipseRibbon2" viewBox="0 0 20 20">
            <path d="M15.434 11l1.8 3h-3.234v-6h3.234l-1.8 3zM13 11.563c-0.848-0.364-1.897-0.563-3-0.563s-2.152 0.199-3 0.563v-4.313c0-0.1 0.082-0.393 0.662-0.719 0.548-0.308 1.373-0.531 2.338-0.531s1.79 0.222 2.338 0.531c0.579 0.326 0.662 0.62 0.662 0.719v4.313zM6 14h-3.234l1.8-3-1.8-3h3.234v6zM6.024 7h-5.024l2.4 4-2.4 4h7c0.552 0 1-0.448 1-1v-1.937c0.32-0.041 0.655-0.063 1-0.063s0.68 0.022 1 0.063v1.937c0 0.552 0.448 1 1 1h7l-2.4-4 2.4-4h-5.024c-0.221-1.125-1.917-2-3.976-2s-3.754 0.875-3.976 2z"></path>
        </symbol>
        <symbol id="svg-icon-flowChartAlternateProcess" viewBox="0 0 20 20">
            <path d="M14 5h-8c-1.657 0-3 1.343-3 3v4c0 1.657 1.343 3 3 3h8c1.657 0 3-1.343 3-3v-4c0-1.657-1.343-3-3-3zM6 4h8c2.209 0 4 1.791 4 4v4c0 2.209-1.791 4-4 4h-8c-2.209 0-4-1.791-4-4v-4c0-2.209 1.791-4 4-4z"></path>
        </symbol>
        <symbol id="svg-icon-flowChartCollate" viewBox="0 0 20 20">
            <path d="M5 17l4.5-7-4.5-7h9l-4.5 7 4.5 7h-9zM9.5 8.151l2.668-4.151h-5.337l2.668 4.151zM9.5 11.849l-2.668 4.151h5.337l-2.668-4.151z"></path>
        </symbol>
        <symbol id="svg-icon-flowChartConnector" viewBox="0 0 20 20">
            <path d="M10 15c2.761 0 5-2.239 5-5s-2.239-5-5-5c-2.761 0-5 2.239-5 5s2.239 5 5 5zM16 10c0 3.314-2.686 6-6 6s-6-2.686-6-6c0-3.314 2.686-6 6-6s6 2.686 6 6z"></path>
        </symbol>
        <symbol id="svg-icon-flowChartDecision" viewBox="0 0 20 20">
            <path d="M3 9.5l7.5-4.5 7.5 4.5-7.5 4.5-7.5-4.5zM4.944 9.5l5.556 3.334 5.556-3.334-5.556-3.334-5.556 3.334z"></path>
        </symbol>
        <symbol id="svg-icon-flowChartDelay" viewBox="0 0 20 20">
            <path d="M9.999 4c3.252 0.007 5.976 2.727 6.001 6.005 0.009 3.285-2.732 5.988-6.001 5.995h-5.999l-0-12h5.999zM10 3h-7l0 14h7c3.813-0.007 7.012-3.151 7-7-0.027-3.822-3.193-6.993-7-7z"></path>
        </symbol>
        <symbol id="svg-icon-flowChartDisplay" viewBox="0 0 20 20">
            <path d="M7.6 16l-3.467-6.5 3.467-6.5h5.87c0.769 0 1.629 0.524 2.352 1.727 0.71 1.183 1.179 2.874 1.179 4.773s-0.468 3.59-1.179 4.773c-0.722 1.203-1.583 1.727-2.352 1.727h-5.87zM3 9.5l4 7.5h6.47c2.517 0 4.53-3.4 4.53-7.5s-2.013-7.5-4.53-7.5h-6.47l-4 7.5z"></path>
        </symbol>
        <symbol id="svg-icon-flowChartDocument" viewBox="0 0 20 20">
            <path d="M17 5h-14v8.679c0.307 0.4 0.804 0.93 1.435 1.385 0.763 0.55 1.644 0.936 2.565 0.936 1.674 0 2.79-0.518 4.24-1.192 0.064-0.030 0.129-0.060 0.194-0.090l0.030-0.014c1.499-0.695 3.203-1.485 5.537-1.666v-8.038zM18 14c-2.639 0-4.443 0.836-6.146 1.625-0.077 0.036-0.153 0.071-0.229 0.106-1.43 0.665-2.726 1.268-4.626 1.268-2.4 0-4.333-2-5-3v-10h16v10z"></path>
        </symbol>
        <symbol id="svg-icon-flowChartExtract" viewBox="0 0 20 20">
            <path d="M3 16l6.5-13 6.5 13h-13zM4.618 15h9.764l-4.882-9.764-4.882 9.764z"></path>
        </symbol>
        <symbol id="svg-icon-flowChartInputOutput" viewBox="0 0 20 20">
            <path d="M2 16l4.966-12h11.034l-5.076 12h-10.924zM3.496 15h8.765l4.23-10h-8.857l-4.138 10z"></path>
        </symbol>
        <symbol id="svg-icon-flowChartInternalStorage" viewBox="0 0 20 20">
            <path d="M16 4h-12v12h12v-12zM17 3v14h-14v-14h14z"></path>
            <path d="M6 3h-1v14h1v-14z"></path>
            <path d="M17 5h-14v1h14v-1z"></path>
        </symbol>
        <symbol id="svg-icon-flowChartMagneticDisk" viewBox="0 0 20 20">
            <path d="M15.998 7.985c0.382-0.162 0.718-0.34 1-0.53v6.737c0 0 0 0 0 0-0.049 0.047-0.131 0.115-0.26 0.199-0.371 0.242-0.956 0.51-1.701 0.759-1.484 0.496-3.389 0.85-4.984 0.85s-3.501-0.354-5-0.851c-0.495-0.164-0.924-0.337-1.271-0.506-0.18-0.088-0.338-0.175-0.472-0.26-0.148-0.094-0.244-0.17-0.301-0.225-0.003-0.003-0.006-0.006-0.009-0.008v-6.697c0.282 0.191 0.618 0.369 1 0.531 1.466 0.623 3.611 1.016 6 1.016s4.532-0.392 5.998-1.015zM2.439 14.988c0.098 0.080 0.21 0.16 0.336 0.24 0.487 0.308 1.171 0.607 1.963 0.87 1.584 0.525 3.597 0.902 5.315 0.902s3.731-0.377 5.301-0.902c0.785-0.263 1.459-0.562 1.931-0.87 0.021-0.014 0.042-0.028 0.062-0.041 0.097-0.066 0.181-0.13 0.253-0.191 0.032-0.027 0.062-0.054 0.090-0.082 0.184-0.177 0.293-0.353 0.308-0.524 0.002-0.027 0.002-0.055 0-0.082v-8.243c0.001-0.022 0.002-0.043 0.002-0.065s-0.001-0.043-0.002-0.065v-0.027l-0.003-0.008c-0.008-0.096-0.029-0.19-0.061-0.284-0.467-1.371-3.403-2.453-7.084-2.599-0.261-0.011-0.527-0.017-0.798-0.017h-0.053c-4.070 0-7.431 1.14-7.935 2.615-0.041 0.121-0.064 0.245-0.065 0.37-0 0.005-0 0.010-0 0.015l0 0.015-0 8.292c0 0.103 0.035 0.209 0.101 0.316 0.009 0.014 0.018 0.028 0.028 0.043 0.006 0.009 0.013 0.018 0.020 0.027 0.043 0.058 0.094 0.116 0.154 0.173 0.042 0.040 0.087 0.081 0.136 0.121zM3.003 6.249l-0.003-0.247-0-0.002c0-0.026 0.010-0.17 0.292-0.419 0.281-0.249 0.744-0.519 1.402-0.766 1.309-0.491 3.185-0.815 5.306-0.815h0.053c0.257 0 0.509 0.005 0.756 0.016l0.003 0c1.885 0.075 3.519 0.405 4.664 0.865 0.575 0.231 0.982 0.477 1.236 0.703 0.256 0.228 0.285 0.369 0.288 0.403l0 0.002 0 0.002 0 0.008-0 0.008-0.002 0.028v0.212l-0.559 0.378c-1.124 0.759-3.51 1.374-6.439 1.374-2.93 0-5.317-0.616-6.44-1.375l-0.557-0.376zM2.948 14.092c-0 0-0 0 0 0s0 0.001 0.001 0.002c0 0.001 0.001 0.002 0.002 0.003z"></path>
        </symbol>
        <symbol id="svg-icon-flowChartMagneticDrum" viewBox="0 0 20 20">
            <path d="M12.015 15.998c0.162 0.382 0.34 0.718 0.531 1h-6.737c0 0 0 0 0 0-0.047-0.049-0.115-0.131-0.199-0.26-0.242-0.371-0.51-0.956-0.759-1.701-0.496-1.484-0.85-3.389-0.85-4.984s0.354-3.501 0.851-5c0.164-0.495 0.337-0.924 0.506-1.271 0.088-0.18 0.175-0.338 0.26-0.472 0.094-0.148 0.17-0.244 0.225-0.301 0.003-0.003 0.006-0.006 0.008-0.009h6.697c-0.191 0.282-0.369 0.618-0.531 1-0.623 1.466-1.016 3.611-1.016 6s0.393 4.532 1.015 5.998zM5.012 2.439c-0.080 0.098-0.16 0.21-0.24 0.336-0.308 0.487-0.607 1.171-0.87 1.963-0.525 1.584-0.902 3.597-0.902 5.315s0.377 3.731 0.902 5.301c0.262 0.785 0.562 1.459 0.87 1.931 0.014 0.021 0.028 0.042 0.041 0.062 0.066 0.097 0.13 0.181 0.191 0.253 0.027 0.032 0.054 0.062 0.082 0.090 0.177 0.184 0.353 0.293 0.524 0.308 0.028 0.002 0.055 0.002 0.082 0h8.243c0.022 0.001 0.043 0.002 0.065 0.002s0.043-0.001 0.065-0.002h0.027l0.008-0.003c0.096-0.008 0.19-0.029 0.284-0.061 1.371-0.467 2.453-3.403 2.599-7.084 0.011-0.261 0.017-0.527 0.017-0.798v-0.053c0-4.070-1.14-7.431-2.615-7.935-0.121-0.041-0.244-0.064-0.37-0.065-0.005-0-0.010-0-0.015-0l-0.015 0-8.292-0c-0.103 0-0.209 0.035-0.316 0.101-0.014 0.009-0.029 0.018-0.043 0.028-0.009 0.006-0.018 0.013-0.027 0.020-0.058 0.043-0.115 0.094-0.173 0.154-0.040 0.042-0.081 0.087-0.121 0.136zM13.751 3.003l0.249-0.003c0.026 0 0.17 0.010 0.419 0.292 0.249 0.281 0.519 0.744 0.766 1.402 0.491 1.309 0.815 3.185 0.815 5.306v0.053c0 0.257-0.005 0.509-0.016 0.756l-0 0.003c-0.075 1.885-0.405 3.519-0.865 4.664-0.231 0.575-0.477 0.982-0.703 1.236-0.228 0.256-0.369 0.285-0.403 0.288l-0.002 0-0.002 0-0.008 0-0.008-0-0.028-0.002h-0.212l-0.378-0.559c-0.759-1.124-1.374-3.51-1.374-6.439 0-2.93 0.616-5.317 1.375-6.44l0.376-0.557zM5.908 2.948c0-0 0-0 0 0s-0.001 0-0.002 0.001c-0.001 0-0.002 0.001-0.003 0.002z"></path>
        </symbol>
        <symbol id="svg-icon-flowChartMagneticTape" viewBox="0 0 20 20">
            <path d="M13.829 15h3.171v1h-7c-3.314 0-6-2.686-6-6s2.686-6 6-6c3.314 0 6 2.686 6 6 0 1.276-0.397 2.456-1.075 3.428l-1.097 1.572zM16.326 13c0.432-0.909 0.674-1.926 0.674-3 0-3.866-3.134-7-7-7s-7 3.134-7 7c0 3.866 3.134 7 7 7h8v-3h-2.255c0.22-0.315 0.415-0.65 0.581-1z"></path>
        </symbol>
        <symbol id="svg-icon-flowChartManualInput" viewBox="0 0 20 20">
            <path d="M3 9.735l14-4.375v9.64h-14v-5.265zM2 9v7h16v-12l-16 5z"></path>
        </symbol>
        <symbol id="svg-icon-flowChartManualOperation" viewBox="0 0 20 20">
            <path d="M6.721 15l-3.333-10h13.196l-3.556 10h-6.307zM6 16h7.733l4.267-12h-16l4 12z"></path>
        </symbol>
        <symbol id="svg-icon-flowChartMerge" viewBox="0 0 20 20">
            <path d="M16 3l-6.5 13-6.5-13h13zM14.382 4h-9.764l4.882 9.764 4.882-9.764z"></path>
        </symbol>
        <symbol id="svg-icon-flowChartMultidocument" viewBox="0 0 20 20">
            <path d="M13 9v5c-1.61 0.094-3.179 0.538-4.6 1.3-0.718 0.455-1.55 0.698-2.4 0.7-0.568 0.044-1.138-0.052-1.661-0.278s-0.982-0.577-1.339-1.022v-5.7h10zM14 8h-12v7c0.419 0.668 1.014 1.208 1.72 1.561s1.494 0.505 2.28 0.439c3 0 3-2 8-2v-7z"></path>
            <path d="M4 6v2h1v-1h10v6h-1v1h2v-8h-12z"></path>
            <path d="M6 4v2h1v-1h10v7h-1v1h2v-9h-12z"></path>
            <path d="M6 5.998h-2v1.998h-2v6.992c0.419 0.667 1.014 1.207 1.72 1.559s1.494 0.504 2.28 0.438c1.309 0 2.047-0.381 2.879-0.809 1.074-0.554 2.303-1.188 5.121-1.188v-0.999h2v-0.999h2v-8.99h-12v1.998zM7 5.998v-0.999h10v6.992h-1v-5.993h-9zM14 7.995h-9v-0.999h10v5.993h-1v-4.994zM13 8.994v4.994c-1.61 0.094-3.179 0.537-4.6 1.298-0.718 0.455-1.55 0.697-2.4 0.699-0.568 0.044-1.138-0.052-1.661-0.278s-0.982-0.577-1.339-1.021v-5.694h10z"></path>
        </symbol>
        <symbol id="svg-icon-flowChartOffpageConnector" viewBox="0 0 20 20">
            <path d="M6 9.948l4.5 3.75 4.5-3.75v-4.948h-9v4.948zM16 10.417l-5.5 4.583-5.5-4.583v-6.417h11v6.417z"></path>
        </symbol>
        <symbol id="svg-icon-flowChartOnlineStorage" viewBox="0 0 20 20">
            <path d="M5.318 12.682c-0.844-0.844-1.318-1.988-1.318-3.182s0.474-2.338 1.318-3.182 1.989-1.318 3.182-1.318h5.964c-0.208 0.278-0.397 0.57-0.566 0.876-0.613 1.11-0.934 2.357-0.934 3.624s0.321 2.515 0.934 3.624c0.169 0.306 0.358 0.598 0.566 0.876h-5.964c-1.193 0-2.338-0.474-3.182-1.318zM8.5 4c-1.459 0-2.858 0.579-3.889 1.611s-1.611 2.43-1.611 3.889c0 1.459 0.579 2.858 1.611 3.889s2.43 1.611 3.889 1.611h8.5c-0.45-0.283-0.861-0.619-1.226-1-0.389-0.406-0.726-0.862-1-1.359-0.531-0.962-0.809-2.043-0.809-3.141s0.278-2.179 0.809-3.141c0.274-0.496 0.611-0.953 1-1.359 0.365-0.381 0.777-0.717 1.226-1h-8.5z"></path>
        </symbol>
        <symbol id="svg-icon-flowChartOr" viewBox="0 0 20 20">
            <path d="M10 15.981c-3.191-0.243-5.738-2.79-5.981-5.981h5.981v5.981zM4.019 9c0.243-3.191 2.79-5.738 5.981-5.981v5.981h-5.981zM16.981 10c-0.243 3.191-2.79 5.738-5.981 5.981v-5.981h5.981zM16.981 9h-5.981v-5.981c3.191 0.243 5.738 2.79 5.981 5.981zM17.984 9c-0.257-3.909-3.509-7-7.484-7-4.142 0-7.5 3.358-7.5 7.5s3.358 7.5 7.5 7.5c3.974 0 7.226-3.091 7.484-7h0.016v-1h-0.016z"></path>
        </symbol>
        <symbol id="svg-icon-flowChartPredefinedProcess" viewBox="0 0 20 20">
            <path d="M17 5h-14v10h14v-10zM18 4v12h-16v-12h16z"></path>
            <path d="M5 4h-1v12h1v-12z"></path>
            <path d="M16 4h-1v12h1v-12z"></path>
        </symbol>
        <symbol id="svg-icon-flowChartPreparation" viewBox="0 0 20 20">
            <path d="M7.378 14l-4.035-4.5 4.035-4.5h5.244l4.035 4.5-4.035 4.5h-5.244zM2 9.5l4.932 5.5h6.137l4.932-5.5-4.932-5.5h-6.137l-4.932 5.5z"></path>
        </symbol>
        <symbol id="svg-icon-flowChartProcess" viewBox="0 0 20 20">
            <path d="M17 5h-14v10h14v-10zM18 4v12h-16v-12h16z"></path>
        </symbol>
        <symbol id="svg-icon-flowChartPunchedCard" viewBox="0 0 20 20">
            <path d="M3 8.448l3.417-3.448h10.583v10h-14v-6.552zM2 8.036v7.964h16v-12h-12l-4 4.036z"></path>
        </symbol>
        <symbol id="svg-icon-flowChartPunchedTape" viewBox="0 0 20 20">
            <path d="M3 12.594v-6.591c0.321 0.163 0.65 0.301 0.972 0.418 1.029 0.373 2.145 0.579 3.028 0.579 1.45 0 2.503-0.565 3.376-1.033 0.053-0.028 0.105-0.057 0.157-0.084 0.907-0.484 1.724-0.882 2.967-0.882 1.106 0 1.814 0.219 2.338 0.501 0.435 0.235 0.78 0.53 1.162 0.892v6.57c-0.953-0.558-2.121-0.963-3.5-0.963-1.737 0-2.915 0.589-3.916 1.090l-0.032 0.016c-0.992 0.496-1.808 0.894-3.053 0.894-1.391 0-2.068-0.232-2.486-0.482-0.339-0.203-0.542-0.42-0.845-0.743-0.053-0.057-0.109-0.117-0.17-0.18zM2 13c0.127 0.127 0.246 0.254 0.363 0.379 0.804 0.859 1.518 1.621 4.137 1.621 1.5 0 2.5-0.5 3.5-1s2-1 3.5-1c1.418 0 2.585 0.503 3.5 1.152 0.376 0.266 0.709 0.557 1 0.848v-9.033c-0.013-0.013-0.027-0.026-0.040-0.039-0.987-0.955-1.993-1.928-4.46-1.928-2 0-2.59 0.547-3.565 1.068-0.89 0.476-1.742 0.932-2.935 0.932-1.123 0-2.805-0.402-4-1.142-0.402-0.249-0.748-0.536-1-0.858v9z"></path>
        </symbol>
        <symbol id="svg-icon-flowChartSort" viewBox="0 0 20 20">
            <path d="M6.357 10h8.287l-4.143-4.52-4.143 4.52zM16 10v1l-5.5 6-5.5-6v-1l5.5-6 5.5 6zM6.357 11l4.143 4.52 4.143-4.52h-8.287z"></path>
        </symbol>
        <symbol id="svg-icon-flowChartSummingJunction" viewBox="0 0 20 20">
            <path d="M14.729 15.436l-4.229-4.229-4.229 4.229c1.137 0.975 2.614 1.564 4.229 1.564s3.092-0.589 4.229-1.564zM15.436 14.729c0.975-1.137 1.564-2.614 1.564-4.229s-0.589-3.092-1.564-4.229l-4.229 4.229 4.229 4.229zM14.729 5.564c-1.137-0.975-2.614-1.564-4.229-1.564s-3.092 0.589-4.229 1.564l4.229 4.229 4.229-4.229zM5.564 6.271c-0.975 1.137-1.564 2.614-1.564 4.229s0.589 3.092 1.564 4.229l4.229-4.229-4.229-4.229zM18 10.5c0 4.142-3.358 7.5-7.5 7.5s-7.5-3.358-7.5-7.5c0-4.142 3.358-7.5 7.5-7.5s7.5 3.358 7.5 7.5z"></path>
        </symbol>
        <symbol id="svg-icon-flowChartTerminator" viewBox="0 0 20 20">
            <path d="M3.934 12.099c-0.606-0.568-0.934-1.325-0.934-2.099s0.327-1.531 0.934-2.099c0.608-0.57 1.447-0.901 2.333-0.901h7.467c0.887 0 1.725 0.331 2.333 0.901 0.606 0.568 0.934 1.325 0.934 2.099s-0.327 1.531-0.934 2.099c-0.608 0.57-1.447 0.901-2.333 0.901h-7.467c-0.886 0-1.725-0.331-2.333-0.901zM3.25 12.828c0.8 0.75 1.885 1.172 3.017 1.172h7.467c1.132 0 2.217-0.421 3.017-1.172s1.25-1.767 1.25-2.828c0-1.061-0.449-2.078-1.25-2.828s-1.885-1.172-3.017-1.172h-7.467c-1.132 0-2.217 0.421-3.017 1.172s-1.25 1.768-1.25 2.828c0 1.061 0.45 2.078 1.25 2.828z"></path>
        </symbol>
        <symbol id="svg-icon-foldedCorner" viewBox="0 0 20 20">
            <path d="M16 12v-8h-12v12h8v-4h4zM17 12v2l-3 3h-11v-14h14v9zM16 13h-3v3h0.6l2.4-2.4v-0.6z"></path>
        </symbol>
        <symbol id="svg-icon-frame" viewBox="0 0 20 20">
            <path d="M17 3v14h-14v-14h14zM4 16h12v-12h-12v12zM18 2h-16v16h16v-16zM5 15v-10h10v10h-10z"></path>
        </symbol>
        <symbol id="svg-icon-halfFrame" viewBox="0 0 20 20">
            <path d="M5 5v10l-3 3v-16h16l-3 3h-10zM4 14.586v-10.586h10.586l1-1h-12.586v12.586l1-1z"></path>
        </symbol>
        <symbol id="svg-icon-heart" viewBox="0 0 20 20">
            <path d="M15.902 10.516l0.010-0.010c1.451-1.488 1.451-3.912 0-5.4-1.438-1.474-3.758-1.474-5.196-0l-0.716 0.734-0.716-0.734c-1.438-1.474-3.758-1.474-5.196 0-1.451 1.488-1.451 3.912 0 5.4l0.009 0.009 0.002 0.002 5.901 6.051 5.902-6.052zM10 18l-6.627-6.796c-1.83-1.877-1.83-4.92 0-6.796 1.773-1.818 4.614-1.875 6.454-0.17 0.059 0.055 0.117 0.111 0.174 0.17 0.057-0.058 0.115-0.115 0.174-0.17 1.84-1.705 4.68-1.649 6.454 0.17 1.83 1.877 1.83 4.92 0 6.796l-0.011 0.011-6.617 6.785z"></path>
        </symbol>
        <symbol id="svg-icon-heptagon" viewBox="0 0 20 20">
            <path d="M7.003 17l-3.924-5.108 1.399-6.2 5.544-2.575 5.197 2.786 1.685 6.021-3.807 5.076h-6.094zM2 12.129l4.51 5.871h7.087l4.403-5.871-1.933-6.906-6.013-3.223-6.443 2.993-1.611 7.137z"></path>
            <path d="M11 7h-3v1h3v1h1v-2h-1z"></path>
            <path d="M11 9h-1v2h1v-2z"></path>
            <path d="M10 11h-1v2h1v-2z"></path>
        </symbol>
        <symbol id="svg-icon-hexagon" viewBox="0 0 20 20">
            <path d="M6.531 16l-3.383-6 3.383-6h6.74l3.566 6-3.566 6h-6.74zM2 10l3.947 7h7.893l4.16-7-4.16-7h-7.893l-3.947 7z"></path>
        </symbol>
        <symbol id="svg-icon-homePlate" viewBox="0 0 20 20">
            <path d="M4 5v9h7.367l4.257-4.5-4.257-4.5h-7.367zM11.797 4l5.203 5.5-5.203 5.5h-8.797v-11h8.797z"></path>
        </symbol>
        <symbol id="svg-icon-horizontalScroll" viewBox="0 0 20 20">
            <path d="M4 7c0.552 0 1 0.448 1 1s-0.448 1-1 1c-0.552 0-1-0.448-1-1s0.448-1 1-1zM5 6h-1c-1.105 0-2 0.895-2 2v8c0 1.105 0.895 2 2 2s2-0.895 2-2h10c1.105 0 2-0.895 2-2v-9c0-1.105-0.895-2-2-2s-2 0.895-2 2v1h-9zM17 5c0 0.552-0.448 1-1 1s-1-0.448-1-1c0-0.552 0.448-1 1-1s1 0.448 1 1zM17 7v7c0 0.552-0.448 1-1 1h-10v-8h11zM4 10c0.364 0 0.706-0.097 1-0.268v6.268c0 0.552-0.448 1-1 1s-1-0.448-1-1v-6.268c0.294 0.17 0.636 0.268 1 0.268z"></path>
        </symbol>
        <symbol id="svg-icon-irregularSeal1" viewBox="0 0 20 20">
            <path d="M9.199 11.387l1.801 3.002v-2.237l3.802-0.634-2.321-1.161 2.048-2.731-2.529 0.613v-2.631l-1.908 3.179-2.092-2.79v2h-3l2.731 2.048-1.428 0.952h1.978l-0.435 1.74 1.353-1.353zM6 16l1-4h-4l3-2-4-3h5v-4l3 4 3-5v4.97l4-0.97-3 4 4 2-6 1v5l-3-5-3 3z"></path>
        </symbol>
        <symbol id="svg-icon-irregularSeal2" viewBox="0 0 20 20">
            <path d="M7.030 12.617v2.956l2.968-2.99 1.157 1.157-0.599-2.395 3.827 1.531-1.251-1.876h1.566l-1.5-1 1.5-1h-1.174l1.572-3.929-3.095 1.547v-1.315l-0.658 0.986-1.342-0.671v3l-3.261-1.63 0.691 2.012h-2.474l2.479 1.894-1.648 2.133 1.242-0.41zM2 8h4.030l-1.030-3 4 2v-3l2 1 2-3v3l4-2-2 5h3l-3 2 3 2h-3l2 3-5-2 1 4-3-3-3.97 4v-4l-3.030 1 3.030-3.922-4.030-3.078z"></path>
        </symbol>
        <symbol id="svg-icon-leftArrow" viewBox="0 0 20 20">
            <path d="M11 8v-3l-7.333 5.5 7.333 5.5v-3h6v-5h-6zM12 18l-10-7.5 10-7.5v4h6v7h-6v4z"></path>
        </symbol>
        <symbol id="svg-icon-leftArrowCallout" viewBox="0 0 20 20">
            <path d="M10 12v4h7v-11h-7v4h-4v-1.413l-2.649 2.913 2.649 2.913v-1.413h4zM7 16l-5-5.5 5-5.5v3h2v-4h9v13h-9v-4h-2v3z"></path>
        </symbol>
        <symbol id="svg-icon-leftBrace" viewBox="0 0 20 20">
            <path d="M11.4 3.9c-0.482 0.176-0.891 0.507-1.163 0.942s-0.39 0.948-0.337 1.458v1.6c0.046 0.471-0.054 0.944-0.287 1.355s-0.586 0.741-1.013 0.945c0.427 0.203 0.781 0.533 1.013 0.945s0.333 0.885 0.287 1.355v1.5c0 1.4 0.5 2.2 1.5 2.5l-0.2 0.9c-0.764-0.208-1.457-0.623-2-1.2-0.421-0.655-0.63-1.423-0.6-2.2v-1.5c0-1.2-0.6-1.8-1.6-1.8v-1c1 0 1.6-0.6 1.6-1.8v-1.5c-0.030-0.777 0.179-1.545 0.6-2.2 0.558-0.558 1.245-0.971 2-1.2l0.2 0.9z"></path>
        </symbol>
        <symbol id="svg-icon-leftBracket" viewBox="0 0 20 20">
            <path d="M10.001 16.998c-0.53 0-1.039-0.211-1.414-0.586s-0.586-0.884-0.586-1.414v-8.998c0-0.53 0.211-1.039 0.586-1.414s0.883-0.586 1.414-0.586h1.999v-1h-1.999c-0.398-0.014-0.794 0.054-1.164 0.2s-0.706 0.366-0.988 0.648c-0.281 0.281-0.502 0.618-0.647 0.988s-0.214 0.766-0.2 1.164v8.998c-0.014 0.398 0.054 0.794 0.2 1.164s0.366 0.707 0.647 0.988c0.281 0.281 0.618 0.502 0.988 0.648s0.766 0.214 1.164 0.2h1.999v-1h-1.999z"></path>
        </symbol>
        <symbol id="svg-icon-leftRightArrow" viewBox="0 0 20 20">
            <path d="M13 13v2.149l3.719-4.649-3.719-4.649v2.149h-6v-2.149l-3.719 4.649 3.719 4.649v-2.149h6zM8 18l-6-7.5 6-7.5v4h4v-4l6 7.5-6 7.5v-4h-4v4z"></path>
        </symbol>
        <symbol id="svg-icon-leftRightArrowCallout" viewBox="0 0 20 20">
            <path d="M8 12h-4v0.37l-1.662-1.87 1.662-1.87v0.37h4v-5h4v5h4v-0.37l1.662 1.87-1.662 1.87v-0.37h-4v5h-4v-5zM1 10.5l4 4.5v-2h2v5h6v-5h2v2l4-4.5-4-4.5v2h-2v-5h-6v5h-2v-2l-4 4.5z"></path>
        </symbol>
        <symbol id="svg-icon-leftRightUpArrow" viewBox="0 0 20 20">
            <path d="M10.5 3l3.5 4h-2v5h3v-2l4 3.5-4 3.5v-2h-9v2l-4-3.5 4-3.5v2h3v-5h-2l3.5-4zM11.796 6l-1.296-1.481-1.296 1.481h0.796v7h-5v-0.796l-1.481 1.296 1.481 1.296v-0.796h11v0.796l1.481-1.296-1.481-1.296v0.796h-5v-7h0.796z"></path>
        </symbol>
        <symbol id="svg-icon-leftUpArrow" viewBox="0 0 20 20">
            <path d="M13 12h-6v-1.755l-2.505 2.255 2.505 2.255v-1.755h7v-7h1.755l-2.255-2.505-2.255 2.505h1.755v6zM9 7l4.5-5 4.5 5h-3v7h-7v3l-5-4.5 5-4.5v3h4v-4h-3z"></path>
        </symbol>
        <symbol id="svg-icon-lightningBolt" viewBox="0 0 20 20">
            <path d="M8.933 3.3l2.133 2.8-1.493 0.6 4.053 3.9-0.96 0.4 2.347 4-3.307-1.9 1.28-0.6-5.227-3.2 1.707-0.9-5.227-3.3 4.693-1.8zM9 2l-7 3 5.333 3.3-1.707 0.9 5.227 3.2-1.387 0.6 8.533 5-3.84-6.5 1.173-0.6-3.947-3.8 1.28-0.6-3.667-4.5z"></path>
        </symbol>
        <symbol id="svg-icon-line" viewBox="0 0 20 20">
            <path d="M16.647 17.354l-14-14 0.707-0.707 14 14-0.707 0.707z"></path>
        </symbol>
        <symbol id="svg-icon-lineWithArrow" viewBox="0 0 20 20">
            <path d="M16 15.293v-2.293h1v4h-4v-1h2.293l-12.646-12.646 0.707-0.707 12.646 12.646z"></path>
        </symbol>
        <symbol id="svg-icon-lineWithTwoArrows" viewBox="0 0 20 20">
            <path d="M3 3v4h1v-2.293l11.293 11.293h-2.293v1h4v-4h-1v2.293l-11.293-11.293h2.293v-1h-4zM4 4v0z"></path>
        </symbol>
        <symbol id="svg-icon-mathDivide" viewBox="0 0 20 20">
            <path fill="#444" style="fill: var(--color1, #444)" d="M16 9h-11v2h11v-2zM17 8v4h-13v-4h13z"></path>
            <path fill="#fff" style="fill: var(--color2, #fff)" d="M10.5 7c0.828 0 1.5-0.672 1.5-1.5s-0.672-1.5-1.5-1.5c-0.828 0-1.5 0.672-1.5 1.5s0.672 1.5 1.5 1.5z"></path>
            <path fill="#444" style="fill: var(--color1, #444)" d="M10.5 6c0.276 0 0.5-0.224 0.5-0.5s-0.224-0.5-0.5-0.5c-0.276 0-0.5 0.224-0.5 0.5s0.224 0.5 0.5 0.5zM12 5.5c0 0.828-0.672 1.5-1.5 1.5s-1.5-0.672-1.5-1.5 0.672-1.5 1.5-1.5c0.828 0 1.5 0.672 1.5 1.5z"></path>
            <path fill="#fff" style="fill: var(--color2, #fff)" d="M10.5 16c0.828 0 1.5-0.672 1.5-1.5s-0.672-1.5-1.5-1.5c-0.828 0-1.5 0.672-1.5 1.5s0.672 1.5 1.5 1.5z"></path>
            <path fill="#444" style="fill: var(--color1, #444)" d="M10.5 15c0.276 0 0.5-0.224 0.5-0.5s-0.224-0.5-0.5-0.5c-0.276 0-0.5 0.224-0.5 0.5s0.224 0.5 0.5 0.5zM12 14.5c0 0.828-0.672 1.5-1.5 1.5s-1.5-0.672-1.5-1.5 0.672-1.5 1.5-1.5c0.828 0 1.5 0.672 1.5 1.5z"></path>
        </symbol>
        <symbol id="svg-icon-mathEqual" viewBox="0 0 20 20">
            <path d="M16 6h-12v2h12v-2zM17 5v4h-14v-4h14z"></path>
            <path d="M16 11h-12v2h12v-2zM17 10v4h-14v-4h14z"></path>
        </symbol>
        <symbol id="svg-icon-mathMinus" viewBox="0 0 20 20">
            <path d="M16 9h-12v2h12v-2zM17 8v4h-14v-4h14z"></path>
        </symbol>
        <symbol id="svg-icon-mathMultiply" viewBox="0 0 20 20">
            <path d="M7.717 9.947l-3.717-3.717 2.23-2.23 3.717 3.717 3.823-3.717 2.23 2.23-3.717 3.717 3.717 3.823-2.23 2.23-3.823-3.717-3.717 3.717-2.23-2.23 3.717-3.823zM5.414 6.23l3.707 3.707-3.717 3.823 0.826 0.826 3.707-3.707 3.823 3.717 0.836-0.836-3.717-3.823 3.707-3.707-0.826-0.826-3.823 3.717-3.707-3.707-0.816 0.816z"></path>
        </symbol>
        <symbol id="svg-icon-mathNotEqual" viewBox="0 0 20 20">
            <path d="M3 17l10-13h4l-10 13h-4zM5.031 16h1.477l8.462-11h-1.477l-8.462 11z"></path>
            <path d="M8.877 11h-5.877v4h2.8l3.077-4zM7.277 15l3.077-4h6.646v4h-9.723zM6.846 12l-1.538 2h-1.308v-2h2.846zM9.308 14h6.692v-2h-5.154l-1.539 2z"></path>
            <path d="M12.723 6h-9.723v4h6.646l3.077-4zM11.123 10l3.077-4h2.8v4h-5.877zM10.692 7l-1.538 2h-5.154v-2h6.692zM13.154 9h2.846v-2h-1.308l-1.538 2z"></path>
        </symbol>
        <symbol id="svg-icon-mathPlus" viewBox="0 0 20 20">
            <path d="M12 12v5h-4v-5h-5v-4h5v-5h4v5h5v4h-5zM11 16v-5h5v-2h-5v-5h-2v5h-5v2h5v5h2z"></path>
        </symbol>
        <symbol id="svg-icon-moon" viewBox="0 0 20 20">
            <path d="M15.24 17.68c-0.46 0.133-0.922 0.221-1.381 0.267-4.528 0.448-8.797-3.223-8.859-7.947 0-4.766 4.348-8.399 8.861-7.948 0.459 0.046 0.921 0.134 1.379 0.268-0.384 0.232-0.746 0.493-1.086 0.778-2.011 1.69-3.213 4.245-3.181 6.902-0.032 2.656 1.169 5.21 3.179 6.9 0.34 0.286 0.703 0.547 1.087 0.78zM12.767 16.974c-1.784-1.846-2.822-4.363-2.794-6.974-0.028-2.612 1.011-5.131 2.798-6.977-3.566 0.175-6.767 3.168-6.771 6.971 0.053 3.787 3.207 6.796 6.767 6.98z"></path>
        </symbol>
        <symbol id="svg-icon-noSmoking" viewBox="0 0 20 20">
            <path d="M15.657 4.343c3.124 3.124 3.124 8.19 0 11.314s-8.189 3.124-11.314 0c-3.124-3.124-3.124-8.19 0-11.314s8.19-3.124 11.314 0zM13.864 11.036c0.356-1.335 0.011-2.818-1.036-3.864s-2.53-1.392-3.864-1.036l4.9 4.9zM14.656 11.827c-0.126 0.323-0.288 0.635-0.484 0.931l-6.93-6.93c0.296-0.196 0.608-0.357 0.931-0.484 1.794-0.703 3.913-0.33 5.363 1.12s1.823 3.568 1.12 5.363zM6.136 8.964l4.9 4.901c-1.335 0.356-2.818 0.010-3.864-1.036s-1.392-2.53-1.036-3.864zM5.344 8.173c-0.703 1.794-0.33 3.913 1.12 5.363s3.568 1.823 5.363 1.12c0.323-0.127 0.635-0.288 0.931-0.484l-6.93-6.93c-0.196 0.296-0.357 0.608-0.484 0.931zM14.95 14.95c2.734-2.734 2.734-7.166 0-9.899s-7.166-2.734-9.899 0-2.734 7.166 0 9.899c2.734 2.734 7.166 2.734 9.899 0z"></path>
        </symbol>
        <symbol id="svg-icon-notchedRightArrow" viewBox="0 0 20 20">
            <path d="M11 13.016h-5.832l2.147-2.516-2.147-2.516h5.832v-2.676l5.538 5.192-5.538 5.192v-2.676zM3 14.016h7v3.984l8-7.5-8-7.5v3.984h-7l3 3.516-3 3.516z"></path>
        </symbol>
        <symbol id="svg-icon-octagon" viewBox="0 0 20 20">
            <path fill="none" stroke="#444" style="stroke: var(--color1, #444)" stroke-linejoin="miter" stroke-linecap="butt" stroke-miterlimit="4" stroke-width="1" d="M7.007 17.5l-4.507-4.507v-5.986l4.507-4.507h5.986l4.507 4.507v5.986l-4.507 4.507h-5.986z"></path>
            <path d="M8 6v7h4v-7h-4zM11 12h-2v-2h2v2zM11 9h-2v-2h2v2z"></path>
        </symbol>
        <symbol id="svg-icon-parallelogram" viewBox="0 0 20 20">
            <path d="M16.5 6l-4.2 10h-8.8l4.2-10h8.8zM18 5h-11l-5 12h11l5-12z"></path>
        </symbol>
        <symbol id="svg-icon-pentagon" viewBox="0 0 20 20">
            <path d="M10 3.203l6.811 4.561-2.733 8.235h-8.156l-2.733-8.235 6.811-4.561zM18 7.357l-8-5.357-8 5.357 3.2 9.643h9.6l3.2-9.643z"></path>
        </symbol>
        <symbol id="svg-icon-pie" viewBox="0 0 20 20">
            <path d="M10 10h8c0 0.336-0.021 0.669-0.063 1-0.155 1.228-0.593 2.408-1.286 3.445-0.879 1.316-2.128 2.341-3.59 2.946s-3.070 0.764-4.622 0.455c-1.552-0.309-2.977-1.071-4.096-2.189s-1.881-2.544-2.189-4.096c-0.309-1.552-0.15-3.16 0.455-4.622s1.631-2.711 2.946-3.59c1.037-0.693 2.217-1.131 3.445-1.286 0.331-0.042 0.664-0.063 1-0.063v8zM16.928 11h-7.928v-7.928c-1.029 0.149-2.017 0.525-2.889 1.108-1.151 0.769-2.048 1.862-2.578 3.142s-0.668 2.687-0.398 4.044c0.27 1.358 0.937 2.605 1.916 3.584s2.226 1.646 3.584 1.916 2.765 0.132 4.044-0.398c1.279-0.53 2.372-1.427 3.142-2.578 0.582-0.872 0.959-1.86 1.108-2.889z"></path>
        </symbol>
        <symbol id="svg-icon-plaque" viewBox="0 0 20 20">
            <path d="M6.765 17c-0.36-0.956-1.024-1.762-1.559-2.334-0.616-0.659-1.372-1.154-2.206-1.44v-6.451c0.834-0.286 1.591-0.781 2.206-1.44 0.534-0.573 1.198-1.379 1.559-2.334h6.47c0.36 0.956 1.024 1.762 1.559 2.334 0.616 0.659 1.372 1.154 2.206 1.44v6.451c-0.834 0.287-1.591 0.781-2.206 1.44-0.534 0.573-1.198 1.379-1.559 2.334h-6.47zM2 14c0.937 0.157 1.804 0.629 2.475 1.348s1.378 1.648 1.525 2.652h8c0.147-1.004 0.854-1.933 1.525-2.652s1.538-1.191 2.475-1.348v-8c-0.938-0.157-1.804-0.629-2.475-1.348s-1.378-1.647-1.525-2.652h-8c-0.147 1.004-0.854 1.933-1.525 2.652s-1.538 1.191-2.475 1.348v8z"></path>
        </symbol>
        <symbol id="svg-icon-plus" viewBox="0 0 20 20">
            <path d="M13 13v5h-6v-5h-5v-6h5v-5h6v5h5v6h-5zM12 17v-5h5v-4h-5v-5h-4v5h-5v4h5v5h4z"></path>
        </symbol>
        <symbol id="svg-icon-polyline1" viewBox="0 0 20 20">
            <path d="M7.224 4.929c0.155-0.38 0.276-0.966 0.276-1.929h1c0 1.037-0.129 1.764-0.349 2.306-0.226 0.556-0.535 0.883-0.821 1.133-0.084 0.073-0.157 0.134-0.221 0.188-0.17 0.141-0.282 0.235-0.383 0.383-0.115 0.168-0.225 0.436-0.225 0.991 0 0.595 0.073 1.001 0.177 1.249 0.1 0.238 0.194 0.264 0.23 0.27 0.074 0.012 0.258-0.007 0.581-0.23 0.312-0.214 0.69-0.575 1.123-1.104 1.027-1.283 1.981-1.999 2.828-2.244 0.889-0.257 1.647 0.018 2.092 0.643 0.826 1.157 0.423 3.213-1.255 4.332-1.087 0.725-1.63 1.351-1.865 1.845-0.223 0.47-0.178 0.84-0.028 1.14 0.162 0.324 0.468 0.604 0.814 0.808 0.182 0.107 0.354 0.181 0.496 0.227-0.214-0.676-0.29-1.247-0.256-1.722 0.038-0.527 0.212-0.959 0.506-1.264 0.295-0.307 0.678-0.45 1.056-0.45 0.662 0 1.188 0.297 1.516 0.756 0.319 0.446 0.432 1.017 0.354 1.564-0.123 0.857-0.708 1.663-1.735 2.006 0.206 0.423 0.466 0.891 0.789 1.408l-0.848 0.53c-0.401-0.642-0.72-1.23-0.966-1.766-0.036 0.001-0.073 0.001-0.11 0.001-0.373 0-0.868-0.17-1.308-0.428-0.45-0.265-0.926-0.672-1.202-1.223-0.287-0.574-0.336-1.267 0.019-2.016 0.344-0.724 1.051-1.474 2.214-2.249 1.322-0.881 1.419-2.325 0.995-2.918-0.179-0.251-0.484-0.413-1.001-0.263-0.559 0.162-1.354 0.695-2.326 1.91l-0.003 0.004-0-0c-0.466 0.57-0.913 1.008-1.332 1.297-0.408 0.281-0.862 0.467-1.312 0.392-0.488-0.081-0.807-0.437-0.988-0.87-0.177-0.424-0.254-0.981-0.254-1.635 0-0.695 0.14-1.177 0.4-1.556 0.188-0.274 0.442-0.484 0.637-0.645 0.049-0.041 0.094-0.078 0.134-0.113 0.213-0.187 0.405-0.392 0.554-0.757zM12.739 14.904c0.739-0.214 1.072-0.746 1.141-1.224 0.047-0.327-0.027-0.632-0.177-0.842-0.141-0.197-0.365-0.337-0.703-0.337-0.122 0-0.239 0.044-0.335 0.143-0.097 0.101-0.204 0.294-0.229 0.642-0.027 0.379 0.046 0.91 0.303 1.618z"></path>
        </symbol>
        <symbol id="svg-icon-polyline2" viewBox="0 0 20 20">
            <path d="M12.8 6.1c-0.37 0.348-0.628 0.786-0.742 1.264s-0.081 0.975 0.096 1.436c0.564 1.352 2.15 1.283 3.525 1.223 0.272-0.012 0.537-0.023 0.783-0.023 0.135 0.020 0.26 0.079 0.357 0.168s0.16 0.206 0.182 0.332v4c-0.046 0.383-0.231 0.74-0.525 1.013s-0.678 0.444-1.091 0.487h-11.846c-0.135-0.020-0.26-0.079-0.357-0.168s-0.16-0.206-0.181-0.332v-7.3l3.446-3.2h7.323v0.3l-0.969 0.8zM16 11.011c-0.080 0.003-0.162 0.007-0.247 0.011-0.144 0.006-0.297 0.013-0.464 0.019-0.433 0.014-0.924 0.019-1.406-0.039-0.971-0.117-2.114-0.526-2.652-1.815l-0.006-0.013-0.005-0.013c-0.249-0.648-0.296-1.352-0.134-2.027 0.097-0.406 0.266-0.787 0.496-1.131h-4.743l-2.839 2.636v6.364h11.324c0.187-0.028 0.351-0.109 0.471-0.22 0.114-0.106 0.18-0.231 0.205-0.355v-3.414z"></path>
        </symbol>
        <symbol id="svg-icon-quadArrow" viewBox="0 0 20 20">
            <path d="M10.547 1.095l3.513 3.953h-2.013v3h3v-2.013l3.953 3.513-3.953 3.513v-2.013h-3v3h2.013l-3.513 3.953-3.513-3.953h2.013v-3h-3v2.013l-3.953-3.513 3.953-3.513v2.013h3v-3h-2.013l3.513-3.953zM9.261 4.047h0.787v5h-5v-0.787l-1.447 1.287 1.447 1.287v-0.787h5v5h-0.787l1.287 1.447 1.287-1.447h-0.787v-5h5v0.787l1.447-1.287-1.447-1.287v0.787h-5v-5h0.787l-1.287-1.447-1.287 1.447z"></path>
        </symbol>
        <symbol id="svg-icon-quadArrowCallout" viewBox="0 0 20 20">
            <path d="M7 15h2v-2h-2v-2h-2v2l-3-3.5 3-3.5v2h2v-2h2v-2h-2l3.5-3 3.5 3h-2v2h2v2h2v-2l3 3.5-3 3.5v-2h-2v2h-2v2h2l-3.5 3-3.5-3zM10.5 16.683l0.797-0.683h-0.297v-4h2v-2h4v0.297l0.683-0.797-0.683-0.797v0.297h-4v-2h-2v-4h0.297l-0.797-0.683-0.797 0.683h0.297v4h-2v2h-4v-0.297l-0.683 0.797 0.683 0.797v-0.297h4v2h2v4h-0.297l0.797 0.683z"></path>
        </symbol>
        <symbol id="svg-icon-rect" viewBox="0 0 20 20">
            <path d="M17 5v10h-14v-10h14zM18 4h-16v12h16v-12z"></path>
        </symbol>
        <symbol id="svg-icon-rect-1" viewBox="0 0 20 20">
            <path d="M17 5v10h-14v-10h14zM18 4h-16v12h16v-12z"></path>
        </symbol>
        <symbol id="svg-icon-ribbon" viewBox="0 0 20 20">
            <path d="M15.434 9l1.8-3h-3.234v6h3.234l-1.8-3zM13 8h-6v6h6v-6zM19 5l-2.4 4 2.4 4h-5v1c0 0.552-0.448 1-1 1h-6c-0.552 0-1-0.448-1-1v-1h-5l2.4-4-2.4-4h7c0.552 0 1 0.448 1 1v1h2v-1c0-0.552 0.448-1 1-1h7zM2.766 6l1.8 3-1.8 3h3.234v-6h-3.234z"></path>
        </symbol>
        <symbol id="svg-icon-ribbon2" viewBox="0 0 20 20">
            <path d="M13 12v-6h-6v6h6zM6 8h-3.234l1.8 3-1.8 3h3.234v-6zM1 15l2.4-4-2.4-4h5v-1c0-0.552 0.448-1 1-1h6c0.552 0 1 0.448 1 1v1h5l-2.4 4 2.4 4h-7c-0.552 0-1-0.448-1-1v-1h-2v1c0 0.552-0.448 1-1 1h-7zM17.234 14l-1.8-3 1.8-3h-3.234v6h3.234z"></path>
        </symbol>
        <symbol id="svg-icon-rightArrow" viewBox="0 0 20 20">
            <path d="M9 13v3l7.333-5.5-7.333-5.5v3h-6v5h6zM8 3l10 7.5-10 7.5v-4h-6v-7h6v-4z"></path>
        </symbol>
        <symbol id="svg-icon-rightArrowCallout" viewBox="0 0 20 20">
            <path d="M10 9v-4h-7v11h7v-4h4v1.413l2.648-2.913-2.648-2.913v1.413h-4zM13 5l5 5.5-5 5.5v-3h-2v4h-9v-13h9v4h2v-3z"></path>
        </symbol>
        <symbol id="svg-icon-rightBrace" viewBox="0 0 20 20">
            <path d="M8 16.5c0.482-0.176 0.891-0.507 1.163-0.942s0.39-0.948 0.337-1.458v-1.6c-0.046-0.471 0.054-0.944 0.287-1.355s0.586-0.741 1.013-0.945c-0.427-0.203-0.781-0.533-1.013-0.945s-0.333-0.885-0.287-1.355v-1.5c0-1.4-0.5-2.2-1.5-2.5l0.2-0.9c0.764 0.208 1.457 0.623 2 1.2 0.421 0.655 0.63 1.423 0.6 2.2v1.5c0 1.2 0.6 1.8 1.6 1.8v1c-1 0-1.6 0.6-1.6 1.8v1.5c0.030 0.777-0.179 1.545-0.6 2.2-0.558 0.558-1.245 0.971-2 1.2l-0.2-0.9z"></path>
        </symbol>
        <symbol id="svg-icon-rightBracket" viewBox="0 0 20 20">
            <path d="M8.999 3.002h-1.999v1h1.999c0.53 0 1.039 0.211 1.414 0.586s0.586 0.884 0.586 1.414v8.998c0 0.53-0.211 1.039-0.586 1.414s-0.883 0.586-1.414 0.586h-1.999v1h1.999c0.398 0.014 0.794-0.054 1.164-0.2s0.706-0.366 0.988-0.648c0.281-0.281 0.502-0.618 0.648-0.988s0.214-0.766 0.2-1.164v-8.998c0.014-0.398-0.054-0.794-0.2-1.164s-0.366-0.706-0.648-0.988c-0.281-0.281-0.617-0.502-0.988-0.648s-0.766-0.214-1.164-0.2z"></path>
        </symbol>
        <symbol id="svg-icon-round1Rect" viewBox="0 0 20 20">
            <path d="M15 5c1.105 0 2 0.895 2 2v8h-14v-10h12zM2 4v12h16v-9c0-1.657-1.343-3-3-3h-13z"></path>
        </symbol>
        <symbol id="svg-icon-round2DiagRect" viewBox="0 0 20 20">
            <path d="M17 5v8c0 1.105-0.895 2-2 2h-12v-8c0-1.105 0.895-2 2-2h12zM5 4c-1.657 0-3 1.343-3 3v9h13c1.657 0 3-1.343 3-3v-9h-13z"></path>
        </symbol>
        <symbol id="svg-icon-round2SameRect" viewBox="0 0 20 20">
            <path d="M15 5c1.105 0 2 0.895 2 2v8h-14v-8c0-1.105 0.895-2 2-2h10zM5 4c-1.657 0-3 1.343-3 3v9h16v-9c0-1.657-1.343-3-3-3h-10z"></path>
        </symbol>
        <symbol id="svg-icon-roundRect" viewBox="0 0 20 20">
            <path d="M15 5c1.105 0 2 0.895 2 2v6c0 1.105-0.895 2-2 2h-10c-1.105 0-2-0.895-2-2v-6c0-1.105 0.895-2 2-2h10zM5 4c-1.657 0-3 1.343-3 3v6c0 1.657 1.343 3 3 3h10c1.657 0 3-1.343 3-3v-6c0-1.657-1.343-3-3-3h-10z"></path>
        </symbol>
        <symbol id="svg-icon-rtTriangle" viewBox="0 0 20 20">
            <path d="M4 5.4l10.6 10.6h-10.6v-10.6zM3 3v14h14l-14-14z"></path>
        </symbol>
        <symbol id="svg-icon-smileyFace" viewBox="0 0 20 20">
            <path d="M10 16.5c3.59 0 6.5-2.91 6.5-6.5s-2.91-6.5-6.5-6.5c-3.59 0-6.5 2.91-6.5 6.5s2.91 6.5 6.5 6.5zM17.5 10c0 4.142-3.358 7.5-7.5 7.5s-7.5-3.358-7.5-7.5c0-4.142 3.358-7.5 7.5-7.5s7.5 3.358 7.5 7.5z"></path>
            <path d="M7.5 7c-0.276 0-0.5 0.224-0.5 0.5s0.224 0.5 0.5 0.5c0.276 0 0.5-0.224 0.5-0.5s-0.224-0.5-0.5-0.5zM6 7.5c0-0.828 0.672-1.5 1.5-1.5s1.5 0.672 1.5 1.5c0 0.828-0.672 1.5-1.5 1.5s-1.5-0.672-1.5-1.5z"></path>
            <path d="M12.5 7c-0.276 0-0.5 0.224-0.5 0.5s0.224 0.5 0.5 0.5c0.276 0 0.5-0.224 0.5-0.5s-0.224-0.5-0.5-0.5zM11 7.5c0-0.828 0.672-1.5 1.5-1.5s1.5 0.672 1.5 1.5c0 0.828-0.672 1.5-1.5 1.5s-1.5-0.672-1.5-1.5z"></path>
            <path d="M5.416 12c0.772 1.766 2.534 3 4.584 3s3.812-1.234 4.584-3h-1.119c-0.692 1.196-1.984 2-3.465 2s-2.773-0.804-3.465-2h-1.119z"></path>
        </symbol>
        <symbol id="svg-icon-snip1Rect" viewBox="0 0 20 20">
            <path d="M3 5v10h14v-6.586l-3.414-3.414h-10.586zM14 4l4 4v8h-16v-12h12z"></path>
        </symbol>
        <symbol id="svg-icon-snip2DiagRect" viewBox="0 0 20 20">
            <path d="M6.414 15h10.586v-6.586l-3.414-3.414h-10.586v6.586l3.414 3.414zM6 16l-4-4v-8h12l4 4v8h-12z"></path>
        </symbol>
        <symbol id="svg-icon-snip2SameRect" viewBox="0 0 20 20">
            <path d="M6.414 5h7.172l3.414 3.414v6.586h-14v-6.586l3.414-3.414zM14 4h-8l-4 4v8h16v-8l-4-4z"></path>
        </symbol>
        <symbol id="svg-icon-snipRoundRect" viewBox="0 0 20 20">
            <path d="M3 7c0-1.105 0.895-2 2-2h8.586l3.414 3.414v6.586h-14v-8zM14 4h-9c-1.657 0-3 1.343-3 3v9h16v-8l-4-4z"></path>
        </symbol>
        <symbol id="svg-icon-spline" viewBox="0 0 20 20">
            <path d="M2.471 12.168c0-0 0-0-0.471-0.168s-0.471-0.168-0.471-0.168l0.001-0.002 0.002-0.005 0.006-0.016 0.023-0.062c0.020-0.053 0.049-0.131 0.087-0.229 0.076-0.196 0.188-0.475 0.331-0.809 0.286-0.667 0.701-1.561 1.213-2.457 0.51-0.893 1.129-1.811 1.831-2.512 0.692-0.692 1.532-1.24 2.479-1.24 0.776 0 1.418 0.196 1.945 0.562 0.521 0.362 0.895 0.867 1.181 1.43 0.455 0.897 0.728 2.037 0.993 3.148 0.059 0.248 0.118 0.495 0.179 0.738 0.344 1.375 0.746 2.651 1.505 3.588 0.731 0.902 1.832 1.534 3.698 1.534v1c-2.135 0-3.534-0.744-4.474-1.904-0.912-1.126-1.354-2.6-1.698-3.975-0.068-0.272-0.132-0.539-0.195-0.8-0.265-1.104-0.503-2.096-0.899-2.876-0.238-0.468-0.516-0.823-0.86-1.062-0.338-0.235-0.775-0.383-1.374-0.383-0.553 0-1.151 0.327-1.771 0.947-0.611 0.611-1.18 1.443-1.669 2.301-0.488 0.853-0.885 1.71-1.162 2.355-0.138 0.322-0.245 0.59-0.318 0.777-0.036 0.093-0.064 0.166-0.082 0.216l-0.020 0.056-0.005 0.013-0.001 0.004z"></path>
        </symbol>
        <symbol id="svg-icon-star4" viewBox="0 0 20 20">
            <path d="M12.5 7.5l5.5 2-5.5 2-2 5.5-2-5.5-5.5-2 5.5-2 2-5.5 2 5.5zM15.074 9.5l-3.354-1.22-1.22-3.354-1.22 3.354-3.354 1.22 3.354 1.22 1.22 3.354 1.22-3.354 3.354-1.22z"></path>
        </symbol>
        <symbol id="svg-icon-star5" viewBox="0 0 20 20">
            <path d="M12.5 7.997h6l-5 3.503 2 6-5-3.5-5 3.5 2-6-5-3.503h6l2-5.997 2 5.997zM15.33 8.997h-3.551l-1.279-3.836-1.279 3.836h-3.551l3.015 2.112-1.279 3.837 3.094-2.166 3.094 2.166-1.279-3.837 3.015-2.112z"></path>
        </symbol>
        <symbol id="svg-icon-star6" viewBox="0 0 20 20">
            <path d="M8 12h-2.826l2.143-2.5-2.143-2.5h2.826l2.5-3.333 2.5 3.333h2.826l-2.143 2.5 2.143 2.5h-3.38l-2.021 3.233-2.425-3.233zM3 13h4.5l3 4 2.5-4h5l-3-3.5 3-3.5h-4.5l-3-4-3 4h-4.5l3 3.5-3 3.5z"></path>
        </symbol>
        <symbol id="svg-icon-star7" viewBox="0 0 20 20">
            <path d="M10.5 13.321l2.747 1.717-0.337-2.697 3.129-1.173-2.224-1.854 1.169-3.116-3.021 0.378-1.463-2.559-1.463 2.559-3.020-0.378 1.169 3.116-2.224 1.854 3.129 1.173-0.337 2.697 2.747-1.717zM6.5 17l0.5-4-4-1.5 3-2.5-1.5-4 4 0.5 2-3.5 2 3.5 4-0.5-1.5 4 3 2.5-4 1.5 0.5 4-4-2.5-4 2.5z"></path>
        </symbol>
        <symbol id="svg-icon-star8" viewBox="0 0 20 20">
            <path fill="none" stroke="#444" style="stroke: var(--color1, #444)" stroke-linejoin="miter" stroke-linecap="butt" stroke-miterlimit="4" stroke-width="1" d="M10.5 1.781l2.266 2.719h2.734v2.734l2.719 2.266-2.719 2.266v2.734h-2.734l-2.266 2.719-2.266-2.719h-2.734v-2.734l-2.719-2.266 2.719-2.266v-2.734h2.734l2.266-2.719z"></path>
            <path d="M9 7v5h3v-5h-3zM11 11h-1v-1h1v1zM11 9h-1v-1h1v1z"></path>
        </symbol>
        <symbol id="svg-icon-star10" viewBox="0 0 20 20">
            <path d="M8.413 14.607l1.587 1.855 1.587-1.855 2.419 0.616 0.189-2.498 2.231-0.76-1.355-1.966 1.355-1.966-2.231-0.76-0.189-2.498-2.419 0.616-1.587-1.855-1.587 1.855-2.42-0.616-0.189 2.498-2.231 0.76 1.355 1.966-1.355 1.966 2.231 0.76 0.189 2.498 2.42-0.616zM5.086 16.487l-0.229-3.027-2.857-0.973 1.714-2.487-1.714-2.486 2.857-0.973 0.229-3.027 2.971 0.757 1.943-2.27 1.943 2.27 2.971-0.757 0.229 3.027 2.857 0.973-1.714 2.486 1.714 2.487-2.857 0.973-0.229 3.027-2.971-0.757-1.943 2.27-1.943-2.27-2.971 0.757z"></path>
            <path d="M10 8v5h3v-5h-3zM12 12h-1v-3h1v3z"></path>
            <path d="M8 8v1h-1v1h1v3h1v-5h-1z"></path>
        </symbol>
        <symbol id="svg-icon-star12" viewBox="0 0 20 20">
            <path d="M10.5 1l1.54 2.753 2.71-1.614-0.043 3.154 3.154-0.043-1.614 2.71 2.753 1.54-2.753 1.54 1.614 2.71-3.154-0.043 0.043 3.154-2.71-1.614-1.54 2.753-1.54-2.753-2.71 1.614 0.043-3.154-3.154 0.043 1.614-2.71-2.753-1.54 2.753-1.54-1.614-2.71 3.154 0.043-0.043-3.154 2.71 1.614 1.54-2.753zM13.726 3.913l-2.057 1.225-1.169-2.089-1.169 2.089-2.057-1.225 0.032 2.394-2.394-0.032 1.225 2.057-2.089 1.169 2.089 1.169-1.225 2.057 2.394-0.032-0.032 2.394 2.057-1.225 1.169 2.089 1.169-2.089 2.057 1.225-0.032-2.394 2.394 0.032-1.225-2.057 2.089-1.169-2.089-1.169 1.225-2.057-2.394 0.032 0.032-2.394z"></path>
            <path d="M8 7v1h-1v1h1v3h1v-5h-1z"></path>
            <path d="M12.682 7.318c0.183 0.183 0.296 0.424 0.318 0.682v1h-1v-1h-2v-1h2c0.258 0.023 0.499 0.135 0.682 0.318zM11 10v-1h1v1h-1zM11 10v1h2v1h-3v-2h1z"></path>
        </symbol>
        <symbol id="svg-icon-star16" viewBox="0 0 20 20">
            <path d="M12.26 2.932l2.49-0.793 0.558 2.553 2.553 0.558-0.793 2.49 1.932 1.76-1.932 1.76 0.793 2.49-2.553 0.558-0.558 2.553-2.49-0.793-1.76 1.932-1.76-1.932-2.49 0.793-0.558-2.553-2.553-0.558 0.793-2.49-1.932-1.76 1.932-1.76-0.793-2.49 2.553-0.558 0.558-2.553 2.49 0.793 1.76-1.932 1.76 1.932zM14.008 3.425l-2.055 0.654-1.453-1.594-1.453 1.594-2.055-0.654-0.461 2.107-2.107 0.461 0.654 2.055-1.594 1.453 1.594 1.453-0.654 2.055 2.107 0.461 0.461 2.107 2.055-0.654 1.453 1.594 1.452-1.594 2.055 0.654 0.461-2.107 2.107-0.461-0.654-2.055 1.594-1.453-1.594-1.453 0.654-2.055-2.107-0.461-0.461-2.107z"></path>
            <path d="M8 7v1h-1v1h1v3h1v-5h-1z"></path>
            <path d="M13 8v-1h-2c-0.258 0.023-0.499 0.135-0.682 0.318s-0.296 0.424-0.318 0.682v4h3v-3h-2v-1h2zM12 10v1h-1v-1h1z"></path>
        </symbol>
        <symbol id="svg-icon-star24" viewBox="0 0 20 20">
            <path d="M12.26 2.932l2.49-0.793 0.558 2.553 2.553 0.558-0.793 2.49 1.932 1.76-1.932 1.76 0.793 2.49-2.553 0.558-0.558 2.553-2.49-0.793-1.76 1.932-1.76-1.932-2.49 0.793-0.558-2.553-2.553-0.558 0.793-2.49-1.932-1.76 1.932-1.76-0.793-2.49 2.553-0.558 0.558-2.553 2.49 0.793 1.76-1.932 1.76 1.932zM14.008 3.425l-2.055 0.654-1.453-1.594-1.453 1.594-2.055-0.654-0.461 2.107-2.107 0.461 0.654 2.055-1.594 1.453 1.594 1.453-0.654 2.055 2.107 0.461 0.461 2.107 2.055-0.654 1.453 1.594 1.452-1.594 2.055 0.654 0.461-2.107 2.107-0.461-0.654-2.055 1.594-1.453-1.594-1.453 0.654-2.055-2.107-0.461-0.461-2.107z"></path>
            <path d="M9.682 7.318c0.183 0.183 0.295 0.424 0.318 0.682v1h-1v-1h-2v-1h2c0.258 0.023 0.499 0.135 0.682 0.318zM8 10v-1h1v1h-1zM8 10v1h2v1h-3v-2h1z"></path>
            <path d="M13 7v2h-1v-2h-1v3h2v2h1v-5h-1z"></path>
        </symbol>
        <symbol id="svg-icon-star32" viewBox="0 0 20 20">
            <path d="M12.26 2.932l2.49-0.793 0.558 2.553 2.553 0.558-0.793 2.49 1.932 1.76-1.932 1.76 0.793 2.49-2.553 0.558-0.558 2.553-2.49-0.793-1.76 1.932-1.76-1.932-2.49 0.793-0.558-2.553-2.553-0.558 0.793-2.49-1.932-1.76 1.932-1.76-0.793-2.49 2.553-0.558 0.558-2.553 2.49 0.793 1.76-1.932 1.76 1.932zM14.008 3.425l-2.055 0.654-1.453-1.594-1.453 1.594-2.055-0.654-0.461 2.107-2.107 0.461 0.654 2.055-1.594 1.453 1.594 1.453-0.654 2.055 2.107 0.461 0.461 2.107 2.055-0.654 1.453 1.594 1.452-1.594 2.055 0.654 0.461-2.107 2.107-0.461-0.654-2.055 1.594-1.453-1.594-1.453 0.654-2.055-2.107-0.461-0.461-2.107z"></path>
            <path d="M13.682 7.318c0.183 0.183 0.296 0.424 0.318 0.682v1h-1v-1h-2v-1h2c0.258 0.023 0.499 0.135 0.682 0.318zM12 10v-1h1v1h-1zM12 10v1h2v1h-3v-2h1z"></path>
            <path d="M7 7v1h2v1h-2v1h2v1h-2v1h3v-5h-3z"></path>
        </symbol>
        <symbol id="svg-icon-stripedRightArrow" viewBox="0 0 20 20">
            <path d="M11 12v2.692l5.538-5.192-5.538-5.192v2.692h-4v5h4zM10 2l8 7.5-8 7.5v-4h-4v-7h4v-4z"></path>
            <path d="M5 6h-1v7h1v-7z"></path>
            <path d="M3 6h-1v7h1v-7z"></path>
        </symbol>
        <symbol id="svg-icon-sun" viewBox="0 0 20 20">
            <path d="M10 6.136c0.764 0 1.511 0.227 2.147 0.651s1.131 1.028 1.423 1.734c0.292 0.706 0.369 1.483 0.22 2.232s-0.517 1.438-1.057 1.978c-0.54 0.54-1.229 0.908-1.978 1.057s-1.526 0.073-2.232-0.22c-0.706-0.292-1.309-0.788-1.734-1.423s-0.651-1.382-0.651-2.147c0-1.025 0.407-2.007 1.132-2.732s1.707-1.132 2.732-1.132zM10 5c-0.989 0-1.956 0.293-2.778 0.843s-1.463 1.33-1.842 2.244c-0.378 0.914-0.477 1.919-0.285 2.889s0.669 1.861 1.368 2.56c0.699 0.699 1.59 1.175 2.56 1.368s1.975 0.094 2.889-0.285c0.914-0.378 1.694-1.019 2.244-1.842s0.843-1.789 0.843-2.778c0-1.326-0.527-2.598-1.464-3.536s-2.209-1.464-3.536-1.464z"></path>
            <path d="M10 2l-1.5 1.5h3l-1.5-1.5z"></path>
            <path d="M16.5 3.5h-2l2 2v-2z"></path>
            <path d="M3.5 3.5v2l2-2h-2z"></path>
            <path d="M10 18l1.5-1.5h-3l1.5 1.5z"></path>
            <path d="M18 10l-1.5-1.5v3l1.5-1.5z"></path>
            <path d="M2 10l1.5 1.5v-3l-1.5 1.5z"></path>
            <path d="M3.5 16.5h2l-2-2v2z"></path>
            <path d="M16.5 16.5v-2l-2 2h2z"></path>
        </symbol>
        <symbol id="svg-icon-teardrop" viewBox="0 0 20 20">
            <path d="M10 17.998c-2.113-0.028-4.132-0.879-5.626-2.373s-2.346-3.513-2.374-5.626c0.028-2.113 0.879-4.132 2.374-5.626s3.513-2.346 5.626-2.373h8v8.959c-0.213 1.961-1.152 3.77-2.633 5.073s-3.395 2.004-5.367 1.966zM3 9.999c0.028 1.848 0.774 3.612 2.081 4.919 1.31 1.31 3.080 2.057 4.932 2.081l-0.013 1 0.019-1c1.722 0.033 3.394-0.579 4.687-1.717 1.28-1.126 2.097-2.686 2.293-4.378v-7.903h-6.993c-1.85 0.026-3.618 0.772-4.926 2.081-1.307 1.307-2.053 3.071-2.081 4.919z"></path>
        </symbol>
        <symbol id="svg-icon-textRect" viewBox="0 0 20 20">
            <path d="M17 4v11h-14v-11h14zM18 3h-16v13h16v-13z"></path>
            <path d="M15 6h-4v1h4v-1z"></path>
            <path d="M15 9h-4v1h4v-1z"></path>
            <path d="M15 12h-10v1h10v-1z"></path>
            <path d="M9.947 10.276l-0.894 0.447-0.362-0.724h-2.382l-0.362 0.724-0.894-0.447 2.447-4.894 2.447 4.894zM8.191 9l-0.691-1.382-0.691 1.382h1.382z"></path>
        </symbol>
        <symbol id="svg-icon-trapezoid" viewBox="0 0 20 20">
            <path d="M13.3 5l3.3 11h-13.2l3.3-11h6.6zM14 4h-8l-4 13h16l-4-13z"></path>
        </symbol>
        <symbol id="svg-icon-triangle" viewBox="0 0 20 20">
            <path d="M10 5l6.187 10h-12.373l6.187-10zM10 3l-8 13h16l-8-13z"></path>
        </symbol>
        <symbol id="svg-icon-upArrow" viewBox="0 0 20 20">
            <path d="M13 11h3l-5.5-7.333-5.5 7.333h3v6h5v-6zM3 12l7.5-10 7.5 10h-4v6h-7v-6h-4z"></path>
        </symbol>
        <symbol id="svg-icon-upArrowCallout" viewBox="0 0 20 20">
            <path d="M9 10h-4v7h11v-7h-4v-4h1.413l-2.913-2.649-2.913 2.649h1.413v4zM5 7l5.5-5 5.5 5h-3v2h4v9h-13v-9h4v-2h-3z"></path>
        </symbol>
        <symbol id="svg-icon-upDownArrow" viewBox="0 0 20 20">
            <path d="M7 13h-2.149l4.649 3.719 4.649-3.719h-2.149v-6h2.149l-4.649-3.719-4.649 3.719h2.149v6zM2 8l7.5-6 7.5 6h-4v4h4l-7.5 6-7.5-6h4v-4h-4z"></path>
        </symbol>
        <symbol id="svg-icon-uturnArrow" viewBox="0 0 20 20">
            <path d="M13 10.4h-2.108l2.608 3.825 2.608-3.825h-2.108v-2.4c0-2.761-2.239-5-5-5s-5 2.239-5 5v9h1v-9c0-2.209 1.791-4 4-4s4 1.791 4 4v2.4zM18 9.4l-4.5 6.6-4.5-6.6h3v-1.4c0-1.657-1.343-3-3-3s-3 1.343-3 3v10h-3v-10c0-3.314 2.686-6 6-6s6 2.686 6 6v1.4h3z"></path>
        </symbol>
        <symbol id="svg-icon-verticalScroll" viewBox="0 0 20 20">
            <path fill="none" stroke="#000" style="stroke: var(--color3, #000)" stroke-linejoin="miter" stroke-linecap="butt" stroke-miterlimit="4" stroke-width="1" d="M6.5 5.5h9v10.5c0 0.828-0.672 1.5-1.5 1.5h-7.5v-12z"></path>
            <path fill="none" stroke="#000" style="stroke: var(--color3, #000)" stroke-linejoin="miter" stroke-linecap="butt" stroke-miterlimit="4" stroke-width="1" d="M6.5 4c0-0.828 0.672-1.5 1.5-1.5h8c0.828 0 1.5 0.672 1.5 1.5s-0.672 1.5-1.5 1.5h-9.5v-1.5z"></path>
            <path fill="none" stroke="#000" style="stroke: var(--color3, #000)" stroke-linejoin="miter" stroke-linecap="butt" stroke-miterlimit="4" stroke-width="1" d="M9.5 4c0 0.828-0.672 1.5-1.5 1.5s-1.5-0.672-1.5-1.5c0-0.828 0.672-1.5 1.5-1.5s1.5 0.672 1.5 1.5z"></path>
            <path fill="none" stroke="#000" style="stroke: var(--color3, #000)" stroke-linejoin="miter" stroke-linecap="butt" stroke-miterlimit="4" stroke-width="1" d="M6.5 16c0 0.828-0.672 1.5-1.5 1.5s-1.5-0.672-1.5-1.5c0-0.828 0.672-1.5 1.5-1.5s1.5 0.672 1.5 1.5z"></path>
            <path fill="#000" style="fill: var(--color3, #000)" d="M5 14h2v1h-2v-1z"></path>
            <path fill="#000" style="fill: var(--color3, #000)" d="M5 17h2v1h-2v-1z"></path>
            <path fill="#444" style="fill: var(--color1, #444)" d="M7 4c0 0.552 0.448 1 1 1s1-0.448 1-1c0-0.552-0.448-1-1-1s-1 0.448-1 1zM6 5v-1c0-1.105 0.895-2 2-2h8c1.105 0 2 0.895 2 2s-0.895 2-2 2v10c0 1.105-0.895 2-2 2h-9c-1.105 0-2-0.895-2-2s0.895-2 2-2h1v-9zM5 17c0.552 0 1-0.448 1-1s-0.448-1-1-1c-0.552 0-1 0.448-1 1s0.448 1 1 1zM7 17h7c0.552 0 1-0.448 1-1v-10h-8v11zM10 4c0 0.364-0.097 0.706-0.268 1h6.268c0.552 0 1-0.448 1-1s-0.448-1-1-1h-6.268c0.17 0.294 0.268 0.636 0.268 1z"></path>
        </symbol>
        <symbol id="svg-icon-wave" viewBox="0 0 20 20">
            <path d="M17 12.594v-6.591c-0.321 0.163-0.65 0.301-0.972 0.418-1.029 0.373-2.145 0.579-3.028 0.579-1.45 0-2.503-0.565-3.376-1.033-0.053-0.028-0.105-0.057-0.157-0.084-0.907-0.484-1.724-0.882-2.967-0.882-1.106 0-1.814 0.219-2.338 0.501-0.435 0.235-0.78 0.53-1.162 0.892v6.57c0.953-0.558 2.121-0.963 3.5-0.963 1.736 0 2.915 0.589 3.916 1.090l0.032 0.016c0.992 0.496 1.808 0.894 3.053 0.894 1.391 0 2.068-0.232 2.486-0.482 0.339-0.203 0.542-0.42 0.845-0.743 0.053-0.057 0.109-0.117 0.169-0.18zM18 13c-0.127 0.127-0.246 0.254-0.363 0.379-0.804 0.859-1.518 1.621-4.137 1.621-1.5 0-2.5-0.5-3.5-1s-2-1-3.5-1c-1.418 0-2.585 0.503-3.5 1.152-0.376 0.266-0.709 0.557-1 0.848v-9.033c0.013-0.013 0.027-0.026 0.040-0.039 0.987-0.955 1.993-1.928 4.46-1.928 2 0 2.59 0.547 3.565 1.068 0.89 0.476 1.742 0.932 2.935 0.932 1.123 0 2.805-0.402 4-1.142 0.402-0.249 0.748-0.536 1-0.858v9z"></path>
        </symbol>
        <symbol id="svg-icon-wedgeEllipseCallout" viewBox="0 0 20 20">
            <path d="M8 13.053v1.889l1.954-1.535h0.346c1.453 0 3.185-0.46 4.527-1.339 1.329-0.87 2.172-2.070 2.172-3.569 0-1.16-0.629-2.26-1.799-3.107-1.172-0.848-2.836-1.393-4.701-1.393-1.827 0-3.49 0.627-4.682 1.534-1.213 0.924-1.818 2.036-1.818 2.966 0 1.044 0.388 1.745 1.003 2.363 0.513 0.515 1.13 0.927 1.844 1.404 0.231 0.154 0.471 0.315 0.722 0.488l0.431 0.298zM7 17v-3.422c-0.215-0.149-0.433-0.294-0.651-0.44-1.687-1.126-3.349-2.235-3.349-4.638 0-2.696 3.4-5.5 7.5-5.5s7.5 2.389 7.5 5.5c0 3.871-4.433 5.907-7.7 5.907l-3.3 2.593z"></path>
        </symbol>
        <symbol id="svg-icon-wedgeRectCallout" viewBox="0 0 20 20">
            <path d="M5.468 13l2.032 2.438 2.032-2.438h6.468v-9h-12v9h1.468zM7.5 17l-2.5-3h-2v-11h14v11h-7l-2.5 3z"></path>
        </symbol>
        <symbol id="svg-icon-wedgeRoundRectCallout" viewBox="0 0 20 20">
            <path d="M7.468 13l2.032 2.438 2.032-2.438h2.468c1.105 0 2-0.895 2-2v-5c0-1.105-0.895-2-2-2h-8c-1.105 0-2 0.895-2 2v5c0 1.105 0.895 2 2 2h1.468zM9.5 17l-2.5-3h-1c-1.657 0-3-1.343-3-3v-5c0-1.657 1.343-3 3-3h8c1.657 0 3 1.343 3 3v5c0 1.657-1.343 3-3 3h-2l-2.5 3z"></path>
        </symbol>
</svg>
