<svg version="1.1" xmlns="http://www.w3.org/2000/svg" xmlns:xlink="http://www.w3.org/1999/xlink" x="0px" y="0px" width="30px"
	 height="30px" viewBox="0 0 30 30" enable-background="new 0 0 30 30" xml:space="preserve">
    <symbol id="svg-btn-users-150" viewBox="0 0 30 30">
		<path display="inline" d="M11.051,6c2.205,0,4,1.794,4,4s-1.795,4-4,4c-2.206,0-4-1.794-4-4S8.845,6,11.051,6 M11.051,5
	c-2.761,0-5,2.238-5,5c0,2.76,2.239,5,5,5c2.762,0,5-2.24,5-5C16.051,7.238,13.813,5,11.051,5L11.051,5z"/>
		<path display="inline"  d="M11,18c6.825,0,7.887,3.874,8,4.407V25H3v-2.593C3.11,21.895,4.176,18,11,18 M11,17
	c-8.216,0-9,5.316-9,5.316V26h18v-3.684C20,22.316,19.216,17,11,17L11,17z"/>
		<circle cx="21.041" cy="13" r="4"/>
		<path d="M21,18c-0.728,0-1,0-2,0c1.635,1.63,2,2,2,2v6h7v-3.146C28,22.854,27.572,18,21,18z"/>
	</symbol>
    <symbol id="svg-btn-goback-150" viewBox="0 0 28 28">
			<path fill-rule="evenodd" clip-rule="evenodd" d="M15.1465 18.1465L15.8536 18.8536L19.2071 15.5L15.8536 12.1465L15.1465 12.8536L17.2929 15.0001H9V16.0001H17.2929L15.1465 18.1465Z"/>
			<path fill-rule="evenodd" clip-rule="evenodd" d="M14 10V7H5V21H23V10H14ZM23 9C23.5523 9 24 9.44772 24 10V21C24 21.5523 23.5523 22 23 22H5C4.44771 22 4 21.5523 4 21V7C4 6.44772 4.44772 6 5 6H14C14.5523 6 15 6.44772 15 7V9H23Z"/>
	</symbol>
    <symbol id="svg-btn-comments-150" viewBox="0 0 30 30">
		<rect x="9" y="11" width="12" height="1"/>
		<rect x="9" y="14" width="12" height="1"/>
		<rect x="9" y="17" width="9" height="1"/>
		<path d="M23.375,8C23.65,8,24,8.386,24,8.641V20c0,0.448-0.552,1-1,1h-6h-0.333L16.4,21.2L13,23.75L9.6,21.2
			L9.333,21H9H7c-0.449,0-1-0.552-1-1V8.656C6,8.401,6.318,8,6.594,8 M23.5,7h-17C5.671,7,5,7.653,5,8.462V20c0,1,1,2,2,2h2l4,3l4-3
			h6c1,0,2-1,2-2V8.462C25,7.653,24.329,7,23.5,7L23.5,7z"/>
	</symbol>
    <symbol id="svg-btn-options-150" viewBox="0 0 28 28">
		<path d="M24 8H4V9H24V8Z"/>
		<path d="M24 14H4V15H24V14Z"/>
		<path d="M24 20H4V21H24V20Z"/>
	</symbol>
    <symbol id="svg-btn-print-150" viewBox="0 0 28 28">
		<path fill-rule="evenodd" clip-rule="evenodd" d="M7 4H21V8H7V4ZM6 8V4C6 3.44772 6.44772 3 7 3H21C21.5523 3 22 3.44772 22 4V8H25C25.5523 8 26 8.44772 26 9V19C26 19.5523 25.5523 20 25 20H22V23C22 23.5523 21.5523 24 21 24H7C6.44772 24 6 23.5523 6 23V20H3C2.44772 20 2 19.5523 2 19V9C2 8.44771 2.44772 8 3 8H6ZM6 19V15C6 14.4477 6.44772 14 7 14H21C21.5523 14 22 14.4477 22 15V19H25V9H21H7H3V19H6ZM21 19V15H7V23H21V20V19ZM5 10H4V11H5V10Z"/>
		<rect x="9" y="17" width="10" height="1"/>
		<rect x="9" y="20" width="10" height="1"/>
	</symbol>
    <symbol id="svg-btn-save-150" viewBox="0 0 28 28">
		<path fill-rule="evenodd" clip-rule="evenodd" d="M20 22H22V8.79883L18.2012 5H18V9H9V5L5 5L5 22H7V14C7 13.4477 7.44772 13 8 13H19C19.5523 13 20 13.4477 20 14V22ZM19 23H22C22.5523 23 23 22.5523 23 22V8.79883C23 8.53361 22.8946 8.27926 22.7071 8.09172L18.9083 4.29289C18.7207 4.10536 18.4664 4 18.2012 4H5C4.44772 4 4 4.44771 4 5V22C4 22.5523 4.44771 23 5 23H8H19ZM19 22V14H8V22H19ZM15 5H17V8H15V5Z"/>
	</symbol>
    <symbol id="svg-btn-undo-150" viewBox="0 0 28 28">
		<path d="M14.8966 9C12.1379 9 9.2931 10.7857 7.5 12.5L4 9V19H14L10.5 15.5C11.6034 13.6429 13.7931 12 16.1379 12C19.5862 12 23.5862 14.4286 24 17.8571C23.4483 12.8571 19.8621 9 14.8966 9Z"/>
    </symbol>
    <symbol id="svg-btn-redo-150" viewBox="0 0 28 28">
		<path d="M13.1034 9C15.8621 9 18.7069 10.7857 20.5 12.5L24 9V19H14L17.5 15.5C16.3966 13.6429 14.2069 12 11.8621 12C8.41379 12 4.41379 14.4286 4 17.8571C4.55172 12.8571 8.13793 9 13.1034 9Z"/>
    </symbol>
    <symbol id="svg-btn-align-left-150" viewBox="0 0 28 28">
		<path d="M23 6H5V7H23V6Z"/>
		<path d="M13 9H5V10H13V9Z"/>
		<path d="M19 12H5V13H19V12Z"/>
		<path d="M13 15H5V16H13V15Z"/>
		<path d="M13 18H5V19H13V18Z"/>
		<path d="M23 21H5V22H23V21Z"/>
    </symbol>
    <symbol id="svg-btn-align-center-150" viewBox="0 0 28 28">
		<path d="M23 6H5V7H23V6Z"/>
		<path d="M18 9H10V10H18V9Z"/>
		<path d="M21 12H7V13H21V12Z"/>
		<path d="M18 15H10V16H18V15Z"/>
		<path d="M18 18H10V19H18V18Z"/>
		<path d="M23 21H5V22H23V21Z"/>
    </symbol>
    <symbol id="svg-btn-align-right-150" viewBox="0 0 28 28">
		<path d="M23 6H5V7H23V6Z"/>
		<path d="M23 9H15V10H23V9Z"/>
		<path d="M23 12H9V13H23V12Z"/>
		<path d="M23 15H15V16H23V15Z"/>
		<path d="M23 18H15V19H23V18Z"/>
		<path d="M23 21H5V22H23V21Z"/>
    </symbol>
    <symbol id="svg-btn-align-just-150" viewBox="0 0 28 28">
		<path d="M23 6H5V7H23V6Z"/>
		<path d="M23 21H5V22H23V21Z"/>
		<path d="M23 18H5V19H23V18Z"/>
		<path d="M23 15H5V16H23V15Z"/>
		<path d="M23 12H5V13H23V12Z"/>
		<path d="M23 9H5V10H23V9Z"/>
    </symbol>
    <symbol id="svg-btn-hidenchars-150" viewBox="0 0 28 28">
		<path fill-rule="evenodd" clip-rule="evenodd" d="M13.25 16C13.5046 16 13.755 15.9827 14 15.9494V22H15V7H18V22H19V7H21V6H14V6.05063C13.755 6.01727 13.5046 6 13.25 6C10.3505 6 8 8.23858 8 11C8 13.7614 10.3505 16 13.25 16Z"/>
    </symbol>
    <symbol id="svg-btn-setmarkers-150" viewBox="0 0 28 28">
		<path d="M23 8H9V9H23V8Z"/>
		<path d="M23 14H9V15H23V14Z"/>
		<circle cx="6.5" cy="8.5" r="1.5"/>
		<circle cx="6.5" cy="14.5" r="1.5"/>
		<path d="M23 20H9V21H23V20Z"/>
		<circle cx="6.5" cy="20.5" r="1.5"/>
    </symbol>
    <symbol id="svg-btn-numbering-150" viewBox="0 0 28 28">
		<path d="M22 8H10V9H22V8Z"/>
		<path d="M22 14H10V15H22V14Z"/>
		<path d="M9 17V16H7L9 14V13L8 12H7H6V13H8V14L6 16V17H9Z"/>
		<path d="M22 20H10V21H22V20Z"/>
		<path d="M7 21H8V22H6V23H8L9 22V20V19L8 18H6V19H7H8V20H7V21Z"/>
		<path d="M7 11H8V6H7H6V7H7V11Z"/>
    </symbol>
    <symbol id="svg-btn-multilevels-150" viewBox="0 0 28 28">
		<path d="M24 8H8V9H24V8Z"/>
		<path d="M24 14H11V15H24V14Z"/>
		<circle cx="5.5" cy="8.5" r="1.5"/>
		<circle cx="8.5" cy="14.5" r="1.5"/>
		<path d="M24 20H14V21H24V20Z"/>
		<circle cx="11.5" cy="20.5" r="1.5"/>
    </symbol>
    <symbol id="svg-btn-decoffset-150" viewBox="0 0 28 28">
		<path d="M6 7H22V8H6V7Z"/>
		<path d="M6 10H14V11H6V10Z"/>
		<path d="M6 13H14V14H6V13Z"/>
		<path d="M6 16H14V17H6V16Z"/>
		<path d="M6 19H22V20H6V19Z"/>
		<path d="M22 13H16V14H22V13Z"/>
		<path fill-rule="evenodd" clip-rule="evenodd" d="M16.2071 13.5L19.3536 16.6464L18.6464 17.3535L14.7929 13.5L18.6464 9.64641L19.3536 10.3535L16.2071 13.5Z"/>
    </symbol>
    <symbol id="svg-btn-incoffset-150" viewBox="0 0 28 28">
		<path d="M22 8H6V9H22V8Z"/>
		<path d="M22 11H14V12H22V11Z"/>
		<path d="M22 14H14V15H22V14Z"/>
		<path d="M22 17H14V18H22V17Z"/>
		<path d="M22 20H6V21H22V20Z"/>
		<path fill-rule="evenodd" clip-rule="evenodd" d="M11.2929 14H6V15H11.2929L8.64645 17.6465L9.35355 18.3536L12.8536 14.8536L13.2071 14.5L12.8536 14.1465L9.35355 10.6465L8.64645 11.3536L11.2929 14Z"/>
    </symbol>
    <symbol id="svg-btn-linespace-150" viewBox="0 0 28 28">
		<path fill-rule="evenodd" clip-rule="evenodd" d="M4.64645 9.64652L8.14645 6.14652L8.50001 5.79297L8.85356 6.14652L12.3536 9.64652L11.6465 10.3536L9.00001 7.70718V19.293L11.6465 16.6465L12.3536 17.3536L8.85356 20.8536L8.50001 21.2072L8.14645 20.8536L4.64645 17.3536L5.35356 16.6465L8.00001 19.293V7.70718L5.35356 10.3536L4.64645 9.64652Z"/>
		<path d="M24 7H14V8H24V7Z"/>
		<path d="M24 11H14V12H24V11Z"/>
		<path d="M24 15H14V16H24V15Z"/>
		<path d="M24 19H14V20H24V19Z"/>
    </symbol>

    <symbol id="svg-btn-insertimage-150" viewBox="0 0 40 40">
		<path fill-rule="evenodd" clip-rule="evenodd" d="M8 7H32C32.5523 7 33 7.44772 33 8V27.2929L23.8536 18.1464L23.5 17.7929L23.1464 18.1464L14.5 26.7929L11.8536 24.1464L11.5 23.7929L11.1464 24.1464L7 28.2929V8C7 7.44772 7.44772 7 8 7ZM7 29.7071V32C7 32.5523 7.44772 33 8 33H32C32.5523 33 33 32.5523 33 32V28.7071L23.5 19.2071L14.8536 27.8536L14.5 28.2071L14.1464 27.8536L11.5 25.2071L7 29.7071ZM6 8C6 6.89543 6.89543 6 8 6H32C33.1046 6 34 6.89543 34 8V32C34 33.1046 33.1046 34 32 34H8C6.89543 34 6 33.1046 6 32V8Z"/>
		<circle cx="12" cy="12" r="2.5"/>
    </symbol>
    <symbol id="svg-btn-insertchart-150" viewBox="0 0 40 40">
		<path fill-rule="evenodd" clip-rule="evenodd" d="M12.0048 33.067C12.049 33.0256 12.1111 32.9356 12.1111 32.75V25.25C12.1111 25.0644 12.049 24.9744 12.0048 24.933C11.9606 24.8916 11.8647 24.8333 11.6667 24.8333H6.33333C6.13533 24.8333 6.0394 24.8916 5.99521 24.933C5.95101 24.9744 5.88889 25.0644 5.88889 25.25V32.75C5.88889 32.9356 5.95101 33.0256 5.99521 33.067C6.0394 33.1084 6.13533 33.1667 6.33333 33.1667H11.6667C11.8647 33.1667 11.9606 33.1084 12.0048 33.067ZM11.6667 34C12.4667 34 13 33.5 13 32.75V25.25C13 24.5 12.4667 24 11.6667 24H6.33333C5.53333 24 5 24.5 5 25.25V32.75C5 33.5 5.53333 34 6.33333 34H11.6667Z"/>
		<path fill-rule="evenodd" clip-rule="evenodd" d="M23.013 32.9407C23.0538 32.8983 23.1111 32.808 23.1111 32.6154V17.3846C23.1111 17.192 23.0538 17.1017 23.013 17.0593C22.9701 17.0148 22.8715 16.9474 22.6667 16.9474H17.3333C17.1285 16.9474 17.0299 17.0148 16.987 17.0593C16.9462 17.1017 16.8889 17.192 16.8889 17.3846V32.6154C16.8889 32.808 16.9462 32.8983 16.987 32.9407C17.0299 32.9852 17.1285 33.0526 17.3333 33.0526H22.6667C22.8715 33.0526 22.9701 32.9852 23.013 32.9407ZM22.6667 34C23.4667 34 24 33.4462 24 32.6154V17.3846C24 16.5538 23.4667 16 22.6667 16H17.3333C16.5333 16 16 16.5538 16 17.3846V32.6154C16 33.4462 16.5333 34 17.3333 34H22.6667Z"/>
		<path fill-rule="evenodd" clip-rule="evenodd" d="M34.0104 32.8814C34.0522 32.8351 34.1111 32.7358 34.1111 32.5263V7.47368C34.1111 7.2642 34.0522 7.16487 34.0104 7.1186C33.9671 7.07077 33.8693 7 33.6667 7H28.3333C28.1307 7 28.0329 7.07077 27.9896 7.1186C27.9478 7.16487 27.8889 7.2642 27.8889 7.47368V32.5263C27.8889 32.7358 27.9478 32.8351 27.9896 32.8814C28.0329 32.9292 28.1307 33 28.3333 33H33.6667C33.8693 33 33.9671 32.9292 34.0104 32.8814ZM33.6667 34C34.4667 34 35 33.4105 35 32.5263V7.47368C35 6.58947 34.4667 6 33.6667 6H28.3333C27.5333 6 27 6.58947 27 7.47368V32.5263C27 33.4105 27.5333 34 28.3333 34H33.6667Z"/>
    </symbol>
    <symbol id="svg-btn-insertshape-150" viewBox="0 0 40 40">
		<path fill-rule="evenodd" clip-rule="evenodd" d="M24 34C29.5228 34 34 29.5228 34 24C34 18.4772 29.5228 14 24 14C18.4772 14 14 18.4772 14 24C14 29.5228 18.4772 34 24 34ZM24 35C30.0751 35 35 30.0751 35 24C35 17.9249 30.0751 13 24 13C17.9249 13 13 17.9249 13 24C13 30.0751 17.9249 35 24 35Z"/>
		<path fill-rule="evenodd" clip-rule="evenodd" d="M7 6H24C24.5523 6 25 6.44772 25 7V12H26V7C26 5.89543 25.1046 5 24 5H7C5.89543 5 5 5.89543 5 7V24C5 25.1046 5.89543 26 7 26H12V25H7C6.44772 25 6 24.5523 6 24V7C6 6.44772 6.44772 6 7 6Z"/>
    </symbol>
    <symbol id="svg-btn-inserttable-150" viewBox="0 0 40 40">
		<path fill-rule="evenodd" clip-rule="evenodd" d="M4 10C4 8.89543 4.89543 8 6 8H34C35.1046 8 36 8.89543 36 10C36 13.1616 36 15.5994 36 19V20V25V26V30C36 31.1046 35.1046 32 34 32H6C4.89543 32 4 31.1046 4 30V26V25V20V19C4 15.5994 4 13.1616 4 10ZM5 25H14V20H5V25ZM5 26H14V31H6C5.44772 31 5 30.5523 5 30V26ZM25 31H15V26H25V31ZM26 31H34C34.5523 31 35 30.5523 35 30V26H26V31ZM26 25H35V20H26V25ZM25 20H15V25H25V20ZM25 19H15V14H25V19ZM26 19H35V14H26V19ZM14 14V19H5V14H14Z"/>
    </symbol>
    <symbol id="svg-btn-editheader-150" viewBox="0 0 40 40">
		<path d="M30 28H10V33H30V28Z"/>
		<path d="M30 7H10V12H30V7Z"/>
		<path fill-rule="evenodd" clip-rule="evenodd" d="M31 5H9C8.44772 5 8 5.44772 8 6V34C8 34.5523 8.44772 35 9 35H31C31.5523 35 32 34.5523 32 34V6C32 5.44772 31.5523 5 31 5ZM9 4C7.89543 4 7 4.89543 7 6V34C7 35.1046 7.89543 36 9 36H31C32.1046 36 33 35.1046 33 34V6C33 4.89543 32.1046 4 31 4H9Z"/>
    </symbol>
    <symbol id="svg-btn-pagebreak-150" viewBox="0 0 40 40">
		<path d="M24 13H10V14H24V13Z"/>
		<path d="M30 8H10V9H30V8Z"/>
		<path d="M30 31H10V32H30V31Z"/>
		<path d="M5 22H6V23H5V22Z"/>
		<path d="M7 22H8V23H7V22Z"/>
		<path d="M9 22H10V23H9V22Z"/>
		<path d="M11 22H12V23H11V22Z"/>
		<path d="M13 22H14V23H13V22Z"/>
		<path d="M15 22H16V23H15V22Z"/>
		<path d="M17 22H18V23H17V22Z"/>
		<path d="M19 22H20V23H19V22Z"/>
		<path d="M21 22H22V23H21V22Z"/>
		<path d="M23 22H24V23H23V22Z"/>
		<path d="M25 22H26V23H25V22Z"/>
		<path d="M27 22H28V23H27V22Z"/>
		<path d="M29 22H30V23H29V22Z"/>
		<path d="M31 22H32V23H31V22Z"/>
		<path d="M33 22H34V23H33V22Z"/>
		<path d="M35 22H36V23H35V22Z"/>
		<path fill-rule="evenodd" clip-rule="evenodd" d="M6 5V19C6 19.5523 6.44771 20 7 20H33C33.5523 20 34 19.5523 34 19V5H33V19H7L7 5H6Z"/>
		<path fill-rule="evenodd" clip-rule="evenodd" d="M7 26H33V35H34V26C34 25.4477 33.5523 25 33 25H7C6.44772 25 6 25.4477 6 26V35H7L7 26Z"/>
    </symbol>
</svg>
