<?xml version="1.0" standalone="no"?><!DOCTYPE svg PUBLIC "-//W3C//DTD SVG 1.1//EN" "http://www.w3.org/Graphics/SVG/1.1/DTD/svg11.dtd"><svg t="1646282517718" class="icon" viewBox="0 0 1024 1024" version="1.1" xmlns="http://www.w3.org/2000/svg" p-id="4071" xmlns:xlink="http://www.w3.org/1999/xlink" width="200" height="200"><defs><style type="text/css"></style></defs><path d="M1007.979487 6.289836q18.869509 13.676737 15.432041 36.568817l-146.275266 877.651596q-2.852368 16.602243-18.284408 25.744447-7.972002 4.534533-17.699307 4.534533-6.289836 0-13.676737-2.852368l-258.834083-105.68388-138.303264 168.582244q-10.312406 13.164774-28.011713 13.164774-7.460039 0-12.579673-2.267267-10.82437-4.02257-17.406757-13.457324t-6.582387-20.844225l0-199.446325 493.679023-605.067638-610.845511 528.565674-225.702736-92.592243q-21.136776-7.972002-22.818942-31.449182-1.170202-22.818942 18.284408-33.716449l950.789229-548.532248q8.557103-5.119634 18.284408-5.119634 11.409471 0 20.551675 6.289836z" p-id="4072" fill="#2ABB9B"></path></svg>