<svg width="64" height="64" viewBox="0 0 64 64" fill="none" xmlns="http://www.w3.org/2000/svg">
<g clip-path="url(#clip0)">
<path d="M55.5 32C55.5 44.9787 44.9787 55.5 32 55.5C19.0213 55.5 8.5 44.9787 8.5 32C8.5 19.0213 19.0213 8.5 32 8.5C44.9787 8.5 55.5 19.0213 55.5 32Z" fill="white" stroke="#333333"/>
<path d="M27.6415 29.3235V28.1417C28.0189 28.0027 28.522 27.8636 29.1509 27.7246C29.7799 27.5624 30.4465 27.4234 31.1509 27.3075C31.8553 27.1916 32.5472 27.0989 33.2264 27.0294C33.9308 26.9367 34.5472 26.8904 35.0755 26.8904L35.7547 27.3075L32.3585 42.2888H35V43.4706C34.673 43.6791 34.283 43.8761 33.8302 44.0615C33.4025 44.2469 32.9371 44.4091 32.434 44.5481C31.956 44.6872 31.4654 44.7914 30.9623 44.861C30.4591 44.9537 29.9811 45 29.5283 45C28.5723 45 27.9057 44.8378 27.5283 44.5134C27.1761 44.1658 27 43.795 27 43.4011C27 42.9376 27.0377 42.4857 27.1132 42.0455C27.1887 41.6052 27.2893 41.1185 27.4151 40.5856L29.9811 29.8102L27.6415 29.3235ZM30.8113 21.5027C30.8113 20.7148 31.1006 20.1007 31.6792 19.6604C32.2579 19.2201 32.9874 19 33.8679 19C34.8239 19 35.5786 19.2201 36.1321 19.6604C36.7107 20.1007 37 20.7148 37 21.5027C37 22.2442 36.7107 22.8351 36.1321 23.2754C35.5786 23.7157 34.8239 23.9358 33.8679 23.9358C32.9874 23.9358 32.2579 23.7157 31.6792 23.2754C31.1006 22.8351 30.8113 22.2442 30.8113 21.5027Z" fill="url(#paint0_linear)"/>
</g>
<defs>
<linearGradient id="paint0_linear" x1="27" y1="17.9844" x2="44.9325" y2="25.1509" gradientUnits="userSpaceOnUse">
<stop stop-color="#FF8E3D"/>
<stop offset="1" stop-color="#FF6F3D"/>
</linearGradient>
<clipPath id="clip0">
<rect width="64" height="64" fill="white"/>
</clipPath>
</defs>
</svg>
