<svg width="64" height="64" viewBox="0 0 64 64" fill="none" xmlns="http://www.w3.org/2000/svg">
<g clip-path="url(#clip0)">
<path d="M55.5 32C55.5 44.9787 44.9787 55.5 32 55.5C19.0213 55.5 8.5 44.9787 8.5 32C8.5 19.0213 19.0213 8.5 32 8.5C44.9787 8.5 55.5 19.0213 55.5 32Z" fill="white" stroke="#333333"/>
<path fill-rule="evenodd" clip-rule="evenodd" d="M40.2045 15.6602C40.92 15.6602 41.5 16.239 41.5 16.9531C41.5 17.6672 40.92 18.246 40.2045 18.246C39.4891 18.246 38.9091 17.6672 38.9091 16.9531C38.9091 16.239 39.4891 15.6602 40.2045 15.6602ZM15.5909 32.4681C15.5909 33.1822 15.0109 33.7611 14.2955 33.7611C13.58 33.7611 13 33.1822 13 32.4681C13 31.7541 13.58 31.1752 14.2955 31.1752C15.0109 31.1752 15.5909 31.7541 15.5909 32.4681ZM51 32.4681C51 33.1822 50.42 33.7611 49.7045 33.7611C48.9891 33.7611 48.4091 33.1822 48.4091 32.4681C48.4091 31.7541 48.9891 31.1752 49.7045 31.1752C50.42 31.1752 51 31.7541 51 32.4681ZM25.0909 47.1212C25.0909 46.4072 24.5109 45.8283 23.7955 45.8283C23.08 45.8283 22.5 46.4072 22.5 47.1212C22.5 47.8353 23.08 48.4142 23.7955 48.4142C24.5109 48.4142 25.0909 47.8353 25.0909 47.1212ZM18.1818 41.0876C18.1818 40.3735 17.6018 39.7947 16.8864 39.7947C16.1709 39.7947 15.5909 40.3735 15.5909 41.0876C15.5909 41.8017 16.1709 42.3805 16.8864 42.3805C17.6018 42.3805 18.1818 41.8017 18.1818 41.0876ZM46.4474 21.9401C47.1629 21.9401 47.7429 22.5189 47.7429 23.233C47.7429 23.9471 47.1629 24.5259 46.4474 24.5259C45.7319 24.5259 45.1519 23.9471 45.1519 23.233C45.1519 22.5189 45.7319 21.9401 46.4474 21.9401ZM23.3636 16.9531C23.3636 17.6672 23.9436 18.246 24.6591 18.246C25.3746 18.246 25.9545 17.6672 25.9545 16.9531C25.9545 16.239 25.3746 15.6602 24.6591 15.6602C23.9436 15.6602 23.3636 16.239 23.3636 16.9531ZM41.5 47.1212C41.5 47.8353 40.92 48.4142 40.2045 48.4142C39.4891 48.4142 38.9091 47.8353 38.9091 47.1212C38.9091 46.4072 39.4891 45.8283 40.2045 45.8283C40.92 45.8283 41.5 46.4072 41.5 47.1212ZM17.1701 24.5259C17.8856 24.5259 18.4656 23.9471 18.4656 23.233C18.4656 22.5189 17.8856 21.9401 17.1701 21.9401C16.4547 21.9401 15.8747 22.5189 15.8747 23.233C15.8747 23.9471 16.4547 24.5259 17.1701 24.5259ZM48.4091 41.0876C48.4091 41.8017 47.8291 42.3805 47.1136 42.3805C46.3982 42.3805 45.8182 41.8017 45.8182 41.0876C45.8182 40.3735 46.3982 39.7947 47.1136 39.7947C47.8291 39.7947 48.4091 40.3735 48.4091 41.0876ZM31.1364 49.7071C31.1364 50.4211 31.7164 51 32.4318 51C33.1473 51 33.7273 50.4211 33.7273 49.7071C33.7273 48.993 33.1473 48.4142 32.4318 48.4142C31.7164 48.4142 31.1364 48.993 31.1364 49.7071Z" fill="#FF6F3D"/>
<path d="M31.0117 13.1359V16.6699V30.3008C30.3974 30.7613 30 31.4945 30 32.3204C30 33.7145 31.1324 34.8447 32.5292 34.8447C33.9261 34.8447 35.0584 33.7145 35.0584 32.3204C35.0584 31.4945 34.6611 30.7613 34.0468 30.3008V16.6699H33.0351V13.1359C33.0351 11.6214 31.0117 11.6214 31.0117 13.1359Z" fill="#333333"/>
</g>
<defs>
<clipPath id="clip0">
<rect width="64" height="64" fill="white"/>
</clipPath>
</defs>
</svg>
