<svg width="64" height="64" viewBox="0 0 64 64" fill="none" xmlns="http://www.w3.org/2000/svg">
<g clip-path="url(#clip0)">
<path fill-rule="evenodd" clip-rule="evenodd" d="M53.9625 40.7257C57.9822 48.7328 49.354 58.1568 40.9196 53.8976L40.4627 54.8208C49.8325 59.5524 59.3112 49.098 54.8737 40.2589L53.9625 40.7257Z" fill="#333333"/>
<path fill-rule="evenodd" clip-rule="evenodd" d="M23.6468 10.1011C15.7205 6.04044 6.39151 14.7566 10.6078 23.2769L9.6939 23.7384C5.01002 14.2732 15.3589 4.69791 24.1089 9.18061L23.6468 10.1011Z" fill="#333333"/>
<path fill-rule="evenodd" clip-rule="evenodd" d="M23.1202 53.8989C15.1939 57.9596 5.86493 49.2435 10.0812 40.7232L9.16732 40.2616C4.48344 49.7269 14.8323 59.3021 23.5823 54.8194L23.1202 53.8989Z" fill="#333333"/>
<path fill-rule="evenodd" clip-rule="evenodd" d="M53.4361 23.2743C57.4559 15.2672 48.8277 5.84318 40.3933 10.1024L39.9364 9.17922C49.3062 4.44762 58.7849 14.9019 54.3474 23.7411L53.4361 23.2743Z" fill="#333333"/>
<path d="M24.0961 20.5605L24.3808 20.8452L24.7197 20.6278C29.1416 17.7907 34.8585 17.7907 39.2804 20.6279L39.6193 20.8453L39.904 20.5606L47.0715 13.393L47.4719 12.9926L47.0251 12.6449C38.2108 5.78507 25.7893 5.78505 16.975 12.6448L16.5282 12.9925L16.9285 13.3929L24.0961 20.5605ZM43.3722 39.2803L43.1548 39.6192L43.4395 39.9039L50.6071 47.0714L51.0074 47.4718L51.3552 47.025C58.2149 38.2107 58.2149 25.7893 51.3552 16.975L51.0074 16.5282L50.6071 16.9285L43.4395 24.0961L43.1548 24.3808L43.3722 24.7197C46.2093 29.1416 46.2093 34.8584 43.3722 39.2803ZM24.7197 43.3722L24.3808 43.1548L24.0961 43.4395L16.9285 50.6071L16.5282 51.0074L16.975 51.3552C25.7893 58.2149 38.2108 58.2149 47.0251 51.3551L47.4719 51.0074L47.0715 50.607L39.904 43.4394L39.6193 43.1547L39.2804 43.3721C34.8585 46.2093 29.1416 46.2093 24.7197 43.3722ZM14.7168 49.3649L15.4231 48.657L15.4223 48.6562L15.3438 48.5777L15.343 48.5769L14.6351 49.2832L14.6359 49.284L14.6363 49.2844L14.6759 49.3241L14.6759 49.3241L14.6759 49.3241L14.716 49.3641L14.7168 49.3649ZM12.6449 47.0251L12.9926 47.4719L13.393 47.0715L20.5606 39.904L20.8453 39.6193L20.6279 39.2804C17.7907 34.8584 17.7907 29.1415 20.6279 24.7196L20.8453 24.3807L20.5606 24.096L13.393 16.9284L12.9926 16.5281L12.6449 16.9749C5.78505 25.7892 5.78504 38.2108 12.6449 47.0251ZM14.6376 14.7143L15.3454 15.4206L15.3462 15.4199L15.4199 15.3462L15.4206 15.3454L14.7143 14.6376L14.7135 14.6383L14.6759 14.6759L14.6383 14.7135L14.6376 14.7143Z" fill="url(#paint0_linear)" stroke="#333333"/>
<path d="M24.8033 44.1466L25.2424 43.7075L24.7198 43.3722C23.9172 42.8572 23.1568 42.2486 22.4542 41.5459C21.7515 40.8433 21.1429 40.083 20.628 39.2804L20.2926 38.7578L19.8536 39.1968L12.686 46.3644L12.3738 46.6766L12.645 47.0251C13.2544 47.8081 13.9178 48.5625 14.6352 49.2832L14.636 49.284L14.7161 49.3641L14.7169 49.3649C15.4376 50.0823 16.1921 50.7458 16.9751 51.3552L17.3236 51.6264L17.6358 51.3141L24.8033 44.1466ZM39.2805 43.3721L38.7579 43.7074L39.197 44.1465L46.3645 51.3141L46.6767 51.6263L47.0252 51.3551C47.823 50.7342 48.5912 50.0571 49.3242 49.3241C50.0573 48.591 50.7343 47.8228 51.3553 47.025L51.6265 46.6765L51.3143 46.3643L44.1467 39.1967L43.7076 38.7577L43.3723 39.2803C42.8573 40.0829 42.2487 40.8433 41.546 41.5459C40.8434 42.2485 40.0831 42.8572 39.2805 43.3721ZM43.3723 24.7197L43.7076 25.2423L44.1467 24.8032L51.3143 17.6356L51.6265 17.3234L51.3553 16.975C50.7343 16.1771 50.0573 15.4089 49.3242 14.6759C48.5912 13.9428 47.823 13.2658 47.0252 12.6448L46.6767 12.3737L46.3645 12.6859L39.197 19.8535L38.7579 20.2925L39.2805 20.6278C40.0831 21.1428 40.8434 21.7514 41.546 22.454C42.2487 23.1567 42.8573 23.917 43.3723 24.7197ZM24.7198 20.6278L25.2424 20.2925L24.8034 19.8534L17.6358 12.6858L17.3236 12.3736L16.9751 12.6448C16.1911 13.2549 15.4358 13.9192 14.7143 14.6376L14.7135 14.6384L14.6385 14.7134L14.6385 14.7134L14.6378 14.7142C13.9194 15.4357 13.2551 16.1909 12.645 16.9749L12.3738 17.3233L12.686 17.6355L19.8536 24.8031L20.2927 25.2422L20.628 24.7196C21.1429 23.917 21.7516 23.1566 22.4542 22.454C23.1568 21.7514 23.9172 21.1427 24.7198 20.6278Z" fill="white" stroke="#333333"/>
</g>
<defs>
<linearGradient id="paint0_linear" x1="8.00009" y1="6.125" x2="56.0001" y2="56" gradientUnits="userSpaceOnUse">
<stop stop-color="#FF8E3D"/>
<stop offset="1" stop-color="#FF6F3D"/>
</linearGradient>
<clipPath id="clip0">
<rect width="64" height="64" fill="white"/>
</clipPath>
</defs>
</svg>
