<svg width="58" height="32" viewBox="0 0 58 32" fill="none" xmlns="http://www.w3.org/2000/svg">
<path d="M19.7373 20.7278C19.675 20.6858 18.634 19.7535 18.3755 19.4233C18.1226 19.0895 17.6351 19.0019 17.3803 18.8687C17.1237 18.7374 15.4302 18.1809 15.0234 18.4692C14.622 18.7574 14.0685 18.9326 13.854 18.4692C13.6433 18.0021 13.537 17.9365 13.2401 17.8708C12.9431 17.8051 13.0916 17.453 13.0714 17.1428C13.0476 16.8309 12.879 16.4988 12.6664 16.7214C12.4538 16.944 11.7317 17.5205 11.6272 17.2286C11.5209 16.9422 11.0095 15.7472 11.7756 15.5228C12.5381 15.3039 13.1759 15.4334 13.3683 15.6341C13.559 15.8311 13.7056 16.3875 13.942 16.32C14.1766 16.2525 14.0483 15.8293 14.1326 15.479C14.2169 15.1269 14.7723 14.6598 15.0234 14.1746C15.2781 13.6838 15.3203 13.3974 15.6373 13.2642C15.9599 13.1328 16.1285 12.9559 16.4255 12.7333C16.7242 12.5107 17.1879 12.3137 17.362 12.2006C17.5325 12.0875 18.2949 11.7116 18.5478 11.7791C18.8026 11.8466 18.9712 11.7572 18.7604 11.3814C18.5478 11.0056 18.2729 9.87446 17.8697 9.36728C17.4665 8.8601 17.4225 8.72327 17.2319 8.23981C17.0413 7.74905 16.8268 7.32944 16.6784 7.66147C16.5299 7.99351 16.2128 8.43684 16.0424 8.01541C15.8738 7.59397 15.8939 7.61404 15.6813 7.41701C15.4706 7.21815 15.2983 7.17254 15.0032 7.08314C14.7063 6.99375 14.4094 7.10686 14.4295 7.39329C14.4497 7.68154 14.151 8.1942 14.3452 8.57185C14.5358 8.9495 14.7063 9.34721 14.4497 9.48039C14.1968 9.61175 14.4497 10.4108 14.1968 10.3871C13.942 10.367 13.8155 10.4108 13.8155 10.1208C13.8155 9.83615 13.942 9.39282 13.4728 9.39282C13.0073 9.39282 12.7305 9.15018 12.3915 8.90389C12.0506 8.66124 11.7756 8.7926 11.86 8.24163C11.9443 7.68519 11.8196 7.48816 12.199 7.17801C12.5821 6.86969 12.6682 6.68907 12.9431 6.82408C13.2199 6.95726 13.4087 6.95726 13.5828 6.80219C13.7514 6.64711 14.0685 6.71097 14.0685 6.51393C14.0685 6.31507 13.7074 6.31507 13.7514 5.98486C13.7917 5.64735 13.964 5.82796 14.0263 5.27335C14.0886 4.71873 13.6231 3.87769 13.1557 3.98897C12.6865 4.09844 11.9681 4.74245 11.8196 4.45237C11.6693 4.16594 11.3724 4.2973 10.7988 4.49798C10.2251 4.69866 7.84796 4.30094 7.67934 4.09844C7.67934 4.09844 7.2743 3.81201 7.06169 3.96708C6.85092 4.12215 6.0005 4.05465 5.74574 4.01269C5.48915 3.96708 5.25639 4.29912 4.94115 4.18966C4.61857 4.07837 3.49507 3.85579 3.24214 3.67883C2.98372 3.50004 2.60066 3.50004 2.43571 3.41247C2.26526 3.32307 1.64761 3.27928 1.52298 3.45625C1.39468 3.63322 0.92732 3.94154 0.692722 4.16412C0.459957 4.38669 0.18687 4.34291 0.417802 4.80813C0.650568 5.27335 -0.176024 5.5616 0.0347477 6.06878C0.245519 6.57596 -0.00740664 7.94973 0.841178 8.21609C1.6916 8.48245 2.39172 8.63752 2.87925 8.24163C3.37044 7.84026 4.11272 7.84027 4.34549 8.28359C4.57825 8.72692 4.70655 9.391 5.46899 9.76682C6.23143 10.1445 6.89124 11.23 6.84909 11.7134C6.80877 12.2024 6.87291 13.817 7.65369 14.7474C8.44179 15.6779 9.24822 17.3636 9.3087 16.9622C9.37285 16.5627 9.37285 16.1631 9.54513 16.4532C9.71192 16.7415 10.1591 17.6281 10.8812 17.7832C11.6052 17.9383 11.9663 17.9821 12.2393 18.2502C12.5143 18.5166 12.7507 18.6699 13.0458 18.8049C13.3427 18.9362 14.0648 19.3376 14.2133 19.6021C14.3636 19.8685 14.2994 20.2224 14.1491 20.622C14.0025 21.0215 13.832 21.4192 14.0428 21.7969C14.2573 22.1727 14.7026 23.2582 15.0655 23.5008C15.4266 23.7471 15.784 24.1449 15.6997 24.6976C15.6154 25.2504 15.2121 27.6203 15.2543 28.153C15.2983 28.6821 14.7686 30.4317 15.192 31.1414C15.6154 31.8493 16.3411 32.0718 16.6582 31.9806C16.9753 31.8949 16.7224 31.8693 16.5721 31.5391C16.4236 31.2053 16.4438 30.7838 16.6142 30.4755C16.7865 30.1654 16.7865 29.9884 16.7004 29.6345C16.6142 29.2805 16.6582 29.0798 16.869 28.8153C17.0834 28.5489 17.9742 27.8411 18.2509 27.5309C18.524 27.2208 20.2688 25.0935 20.5016 24.9166C20.7344 24.7396 21.264 24.3182 21.4363 23.6559C21.6068 22.9937 22.2208 21.6856 21.7974 21.3517C21.3722 21.0179 19.8015 20.7716 19.7373 20.7278Z" fill="url(#paint0_linear)"/>
<path d="M23.9824 2.03866C24.1034 1.80331 24.3966 1.21403 24.5542 0.891113H17.8279C17.9085 1.24687 18.1999 2.56773 18.145 3.10228C18.0808 3.72257 18.2733 3.50182 18.4419 3.74629C18.6123 3.99076 18.5702 4.3684 18.4639 4.65301C18.3557 4.94126 18.2934 5.58528 18.6361 6.33875C18.9734 7.0904 19.3766 8.04273 19.7157 8.08834C20.0584 8.1303 19.9723 8.61924 20.2069 8.44045C20.4396 8.26166 20.4799 7.86759 20.6742 7.28926C20.8648 6.7164 20.8648 6.29314 21.3542 6.00488C21.8435 5.71663 23.1998 4.78802 23.4967 4.45415C23.7955 4.12029 24.1345 3.98893 24.0282 3.41425C23.9183 2.83774 23.8138 2.37252 23.9824 2.03866Z" fill="url(#paint1_linear)"/>
<path d="M57.0993 4.65304C56.8446 4.47607 55.3178 3.2592 54.658 3.41428C54.0037 3.56935 52.8344 3.05852 52.642 2.94906C52.4513 2.83777 50.8825 2.35796 50.054 2.32877C49.6417 2.31417 47.9097 1.92922 47.1876 1.6209C46.4636 1.30893 45.8514 -0.218087 44.4713 0.0263812C44.2936 0.0592202 42.6257 0.292743 42.2005 0.670392C41.779 1.04804 41.5847 1.48772 41.3519 1.57711C41.1192 1.66651 40.4392 1.6209 40.4392 1.95476C40.4392 2.2868 40.6738 3.30664 40.3989 3.10596C40.1221 2.9071 39.8454 2.44188 39.7207 2.79763C39.5943 3.15339 39.3762 3.35042 39.2515 3.21724C39.1269 3.08406 38.4854 3.21724 38.403 3.438C38.3168 3.66057 37.4902 4.16775 37.131 4.23708C36.7699 4.30276 36.6196 4.47972 36.429 4.56912C36.2384 4.65669 34.7923 5.32259 34.5193 5.07812C34.2425 4.83548 34.1582 4.99055 33.9878 5.03434C33.9878 5.03434 33.4782 4.94494 33.1612 4.54723C32.8404 4.14951 32.7781 4.28086 32.417 3.90504C32.0578 3.52921 31.9717 3.15339 31.6124 3.30846C31.2532 3.46171 29.7247 5.03251 29.129 5.7422C28.537 6.45189 27.474 7.18165 28.0037 7.68883C28.537 8.19783 28.8101 8.13216 28.8761 8.41858C28.9421 8.70501 29.0044 9.01698 29.0887 9.12827C29.173 9.24139 29.6807 9.63728 29.9373 9.10638C30.1957 8.57366 30.2342 8.19783 30.5311 8.28723C30.828 8.3748 30.8903 8.57548 30.74 8.9732C30.5916 9.37457 30.4871 9.99304 29.9776 9.96932C29.4699 9.94743 28.9182 9.63728 28.746 9.70478C28.5773 9.77046 28.4747 9.92553 28.2804 10.0806C28.0898 10.2357 27.4942 10.9636 27.0909 11.0767C26.6896 11.188 26.202 11.0968 26.477 11.4288C26.7519 11.7609 27.1551 12.4925 26.7739 12.4687C26.3926 12.4468 25.7548 12.3812 25.7127 12.757C25.6705 13.1328 25.5019 13.3554 25.5862 13.6199C25.6705 13.8863 25.9473 14.3971 26.2845 14.2183C26.6291 14.0395 27.2852 13.8662 27.4538 13.4649C27.6243 13.0653 27.8167 12.6256 28.2401 12.6475C28.6635 12.6694 29.6843 13.2222 29.6184 13.4229C29.5561 13.6199 29.3453 14.087 29.5982 13.9319C29.853 13.775 30.0637 13.598 30.2122 13.5324C30.3606 13.4649 30.5568 13.7549 30.6172 13.8662C30.6796 13.9793 31.1066 14.1983 31.1891 13.8407C31.2752 13.4886 31.3595 13.7549 31.6124 13.8662C31.869 13.9793 32.6315 14.0633 32.7341 14.1527C32.8441 14.242 33.0769 14.5066 32.7781 14.8623C32.4812 15.2144 32.1403 15.3513 31.6528 15.0849C31.1634 14.8186 30.6319 15.3075 30.0857 15.0393C29.5304 14.7748 29.787 14.3989 29.129 14.1326C28.4747 13.8662 26.9865 14.1983 26.5173 14.3314C26.0499 14.4628 26.0297 14.5084 25.8391 14.7292C25.6485 14.9517 24.3967 16.3894 24.3967 17.2085C24.3967 18.0258 24.8623 20.2443 26.3688 20.0217C27.8772 19.7991 28.7899 19.9305 28.6213 20.372C28.449 20.8172 28.537 20.9284 28.8119 21.4356C29.0869 21.9446 29.7265 25.3343 29.831 25.8853C29.9409 26.4399 29.7485 27.146 30.4486 27.0365C31.1524 26.9252 31.8929 26.7501 32.1879 26.1079C32.4867 25.4639 32.5325 24.736 32.9137 24.3601C33.2968 23.9825 33.7623 23.9825 33.8026 23.4516C33.843 22.9189 33.6963 21.6582 33.9511 21.3663C34.2077 21.0817 35.3935 19.7499 35.52 19.219C35.6483 18.6881 35.8169 18.5549 35.3294 18.5549C34.8418 18.5549 34.0134 18.4911 33.777 18.0477C33.5442 17.6099 32.9907 16.7688 32.9907 16.57C32.9907 16.3729 33.3316 16.393 33.4984 16.8126C33.6707 17.2322 34.2608 18.4984 34.9408 18.2283C35.6208 17.962 36.5775 17.6537 36.5977 17.2322C36.6178 16.8126 36.3007 16.3255 35.9598 16.3492C35.6171 16.3729 35.2579 16.1266 35.2579 15.884C35.2579 15.6414 35.3202 15.7307 35.7252 15.884C36.1303 16.0391 36.2549 16.3036 36.8726 16.3492C37.4884 16.393 38.1885 16.9914 38.5258 17.2578C38.8667 17.5241 39.4587 19.3412 39.6089 19.5164C39.7556 19.6952 39.9315 19.6952 40.0781 19.3394C40.2266 18.9836 40.8626 17.8562 41.2255 17.5442C41.5847 17.234 41.6067 16.8144 41.8156 17.0808C42.0282 17.3472 42.941 18.0094 43.0051 18.409C43.0693 18.8085 42.963 19.6714 43.1536 19.4051C43.3442 19.1387 43.4945 18.5877 43.6594 18.8322C43.8317 19.0767 43.8317 19.4525 44.2331 19.1643C44.6381 18.8796 45.3383 18.7665 44.957 18.1462C44.5758 17.526 44.8306 17.1501 45.067 17.1264C45.2998 17.1027 46.8925 16.8163 46.9346 15.9515C46.9768 15.0886 46.3811 14.6233 46.6634 14.18C46.9346 13.7367 47.3397 13.339 47.4258 13.6035C47.5101 13.8699 47.2132 14.7328 47.5944 14.5996C47.9775 14.4683 48.4229 14.4683 48.4229 14.2001C48.4229 13.9319 48.3367 13.2678 48.509 13.0927C48.6794 12.9157 49.9294 11.7445 50.0779 11.2792C50.2263 10.8122 50.5031 10.4145 50.2685 10.0624C50.0339 9.70843 49.6325 9.81607 49.9496 9.37639C50.2685 8.93306 50.8 8.52258 51.2032 8.48974C52.4917 8.37663 52.1288 9.96385 52.1508 10.3178C52.1746 10.6717 52.1746 11.5584 52.3634 11.115C52.554 10.6735 52.7758 10.128 53.1588 9.75222C53.5419 9.37821 53.7526 9.13192 53.7765 8.80171C53.7984 8.46967 53.8149 8.35838 54.1797 8.18141C54.5407 8.00262 56.1316 7.38233 56.2801 6.96454C56.4285 6.54493 56.0894 6.16546 56.4707 6.191C56.8519 6.21107 57.2129 6.63068 57.4054 6.40993C57.596 6.191 58.0212 5.79146 57.9992 5.56888C57.9736 5.33901 57.3577 4.83001 57.0993 4.65304Z" fill="url(#paint2_linear)"/>
<path d="M50.246 12.091C50.1177 12.3811 50.0554 12.4267 49.8648 13.0251C49.6705 13.6198 49.7347 13.4648 49.5422 13.8406C49.3516 14.2182 49.0364 14.2602 48.7175 14.5065C48.3949 14.751 48.3106 15.2363 48.3106 15.2363C48.0357 15.6121 49.4359 14.7035 49.9234 14.4171C50.4128 14.1289 50.2863 13.7968 50.3285 13.3316C50.3706 12.8645 50.5026 12.7989 50.7097 12.6C50.9205 12.4012 50.7519 12.0016 50.6511 11.7152C50.5411 11.4287 50.3706 11.8064 50.246 12.091Z" fill="url(#paint3_linear)"/>
<path d="M45.8934 22.147C46.0419 22.0339 45.9338 21.7931 46.1665 21.8351C46.4011 21.8789 46.6119 22.0157 46.8923 21.8606C47.1654 21.7037 47.4 21.7694 47.3578 21.5049C47.3175 21.2403 47.3578 20.8864 47.2955 20.6656C47.2314 20.4431 46.8502 20.3756 46.5734 20.6218C46.2967 20.8681 45.9173 21.244 45.9173 21.109C45.9173 20.9776 46.0841 20.6218 45.9997 20.4011C45.9173 20.1803 46.0419 19.9815 45.6185 20.1566C45.1933 20.3354 44.9605 20.2898 44.8121 20.5343C44.6655 20.7806 44.4932 21.1984 44.2403 20.9338C43.9873 20.6693 43.2414 20.1165 43.2414 20.1165C43.1809 20.049 42.3323 19.3612 42.6292 19.8282C42.9243 20.2935 43.3715 21.0907 43.5841 21.3771C43.7931 21.6654 44.0277 21.9993 44.2842 21.8442C44.539 21.6873 44.5812 21.6453 44.9221 21.8442C45.2538 22.0358 45.745 22.2583 45.8934 22.147Z" fill="url(#paint4_linear)"/>
<path d="M51.0948 21.5252C50.688 21.3482 50.8584 21.1931 50.369 21.1074C49.8797 21.0216 49.4801 21.1074 49.3482 21.0198C49.2199 20.9304 48.5857 20.7097 48.67 21.0198C48.7562 21.3318 49.328 21.4175 49.4765 21.5051C49.6249 21.5945 49.2639 21.7952 49.537 21.9484C49.8119 22.1017 50.0062 22.3917 50.3654 22.3023C50.7264 22.2111 50.8547 22.4136 51.148 22.4574C51.4467 22.4994 51.7436 22.4136 51.6208 22.2768C51.4926 22.1473 51.4101 21.9667 51.4302 21.8134C51.4522 21.6583 51.4962 21.7039 51.0948 21.5252Z" fill="url(#paint5_linear)"/>
<path d="M50.8825 23.4971C50.734 23.0538 50.373 22.2383 50.2905 22.6342C50.2044 23.0319 49.6325 23.3183 49.4163 23.2964C49.222 23.2745 49.3319 23.0757 49.3319 22.8951C49.3319 22.7181 49.2201 22.543 48.7363 22.6761C48.2451 22.8075 48.1443 23.2727 48.0123 23.2308C47.8877 23.187 47.545 23.0976 47.336 23.342C47.1234 23.5865 46.9291 24.0517 46.6781 24.1411C46.4215 24.2305 45.571 24.3382 45.571 24.6957C45.571 25.0497 45.7855 25.5806 45.7635 25.8688C45.7415 26.1571 45.3548 26.8193 45.8698 27.0218C46.1667 27.1368 46.3775 27.1532 46.722 26.9781C47.0611 26.8011 48.5237 26.3359 48.718 26.4891C48.9086 26.6442 49.2165 27.0072 49.3539 27.0857C49.6234 27.2462 49.6967 27.6166 50.0577 27.706C50.4133 27.7954 50.6937 27.8373 50.8403 27.8373C50.9906 27.8373 51.5185 27.6604 51.6468 27.3502C51.7751 27.0383 52.0078 26.3085 52.1141 25.9546C52.2259 25.6006 52.3249 25.2029 52.0078 24.891C51.6908 24.5826 51.0309 23.9404 50.8825 23.4971Z" fill="url(#paint6_linear)"/>
<defs>
<linearGradient id="paint0_linear" x1="10.9718" y1="3.33447" x2="10.9718" y2="32" gradientUnits="userSpaceOnUse">
<stop stop-color="#FF8E3D"/>
<stop offset="1" stop-color="#FF6F3D"/>
</linearGradient>
<linearGradient id="paint1_linear" x1="21.1911" y1="0.891113" x2="21.1911" y2="8.47961" gradientUnits="userSpaceOnUse">
<stop stop-color="#FF8E3D"/>
<stop offset="1" stop-color="#FF6F3D"/>
</linearGradient>
<linearGradient id="paint2_linear" x1="41.1984" y1="0" x2="41.1984" y2="27.0478" gradientUnits="userSpaceOnUse">
<stop stop-color="#FF8E3D"/>
<stop offset="1" stop-color="#FF6F3D"/>
</linearGradient>
<linearGradient id="paint3_linear" x1="49.543" y1="11.613" x2="49.543" y2="15.326" gradientUnits="userSpaceOnUse">
<stop stop-color="#FF8E3D"/>
<stop offset="1" stop-color="#FF6F3D"/>
</linearGradient>
<linearGradient id="paint4_linear" x1="44.9646" y1="19.6667" x2="44.9646" y2="22.1768" gradientUnits="userSpaceOnUse">
<stop stop-color="#FF8E3D"/>
<stop offset="1" stop-color="#FF6F3D"/>
</linearGradient>
<linearGradient id="paint5_linear" x1="50.1558" y1="20.8599" x2="50.1558" y2="22.4681" gradientUnits="userSpaceOnUse">
<stop stop-color="#FF8E3D"/>
<stop offset="1" stop-color="#FF6F3D"/>
</linearGradient>
<linearGradient id="paint6_linear" x1="48.8964" y1="22.5288" x2="48.8964" y2="27.8373" gradientUnits="userSpaceOnUse">
<stop stop-color="#FF8E3D"/>
<stop offset="1" stop-color="#FF6F3D"/>
</linearGradient>
</defs>
</svg>
